<?xml version="1.0" standalone="no"?>
<!DOCTYPE svg PUBLIC "-//W3C//DTD SVG 1.1//EN" "http://www.w3.org/Graphics/SVG/1.1/DTD/svg11.dtd" >
<svg xmlns="http://www.w3.org/2000/svg" xmlns:xlink="http://www.w3.org/1999/xlink" version="1.1">
<metadata></metadata>
<defs>
<font id="unvadaregular" horiz-adv-x="2048" >
<font-face units-per-em="2048" ascent="1638" descent="-410" />
<missing-glyph horiz-adv-x="614" />
<glyph horiz-adv-x="0" />
<glyph horiz-adv-x="0" />
<glyph unicode="&#xd;" horiz-adv-x="0" />
<glyph unicode=" "  horiz-adv-x="614" />
<glyph unicode="&#x09;" horiz-adv-x="614" />
<glyph unicode="&#xa0;" horiz-adv-x="614" />
<glyph unicode="!" horiz-adv-x="614" d="M420 1405l-80 -1055h-88l-74 1055h242zM406 0h-216v219h216v-219z" />
<glyph unicode="&#x22;" horiz-adv-x="942" d="M729 1178q0 -37 -55 -277h-82q-55 240 -55 277v227h192v-227zM403 1178q0 -37 -55 -277h-82q-55 240 -55 277v227h192v-227z" />
<glyph unicode="#" horiz-adv-x="1228" d="M1155 879h-231l-56 -326h219v-129h-251l-78 -424h-135l75 424h-272l-82 -424h-133l76 424h-213v129h243l56 326h-223v129h251l74 397h137l-73 -397h274l72 397h141l-72 -397h201v-129zM784 879h-272l-55 -326h272z" />
<glyph unicode="$" horiz-adv-x="1228" d="M1110 420q0 -82 -40 -160t-105 -127q-94 -70 -279 -90v-197h-125v197q-346 35 -440 324l139 53q37 -102 116 -164.5t185 -69.5v478q-176 41 -279.5 117.5t-103.5 232.5q0 164 106.5 254t276.5 112v170h125v-170q305 -25 397 -270l-139 -47q-27 84 -96.5 131t-161.5 51 v-440q92 -18 158.5 -43t132 -68t99.5 -111.5t34 -162.5zM561 823v422q-96 -4 -164.5 -59.5t-68.5 -147.5q0 -170 233 -215zM952 408q0 104 -76.5 158.5t-189.5 68.5v-449q104 0 185 60t81 162z" />
<glyph unicode="%" horiz-adv-x="1433" d="M1380 344q0 -147 -74.5 -255.5t-216 -108.5t-216 108.5t-74.5 255.5q0 150 71.5 258.5t215 108.5t219 -107.5t75.5 -259.5zM1085 606q-162 0 -161 -262q0 -104 36.5 -182t129.5 -78q90 0 127.5 74.5t37.5 175.5q0 272 -170 272zM1217 1405l-850 -1405h-150l850 1405h150z M635 1059q0 -147 -75 -256t-216 -109t-216 108.5t-75 256.5q0 150 72 258t215 108t219 -107t76 -259zM340 1321q-162 0 -162 -262q0 -104 37 -182t129 -78q90 0 128 74.5t38 175.5q0 272 -170 272z" />
<glyph unicode="&#x26;" horiz-adv-x="1392" d="M1321 8q-8 0 -67.5 -7t-88.5 -7q-41 0 -73.5 9t-56 26.5t-49 40t-52.5 49.5q-168 -139 -377 -139q-190 0 -331.5 113.5t-141.5 299.5q0 152 105.5 265.5t259.5 158.5q-135 190 -136 311q0 133 89.5 215t224.5 82q141 0 234 -79.5t93 -217.5q0 -129 -78.5 -211.5 t-216.5 -148.5l295 -444q145 178 191 444l151 -31q-66 -305 -260 -520q68 -74 138 -74q25 0 147 11v-146zM821 1120q0 78 -55 127t-135 49q-70 0 -119 -46t-49 -115q0 -86 125 -267q53 33 105 60.5t90 78t38 113.5zM854 223l-338 490q-125 -53 -190.5 -121t-65.5 -186 q0 -141 88 -217t232 -76q161 -1 274 110z" />
<glyph unicode="'" horiz-adv-x="614" d="M403 1178q0 -37 -55 -277h-82q-55 240 -55 277v227h192v-227z" />
<glyph unicode="(" horiz-adv-x="614" d="M514 -350h-106q-147 182 -226.5 412.5t-79.5 467.5q0 473 304 875h106q-258 -385 -258 -866q0 -479 260 -889z" />
<glyph unicode=")" horiz-adv-x="614" d="M512 530q0 -240 -79 -469t-226 -411h-107q260 410 260 889q0 481 -258 866h107q303 -402 303 -875z" />
<glyph unicode="*" horiz-adv-x="1228" d="M1020 809l-57 -104l-299 188l16 -350h-121l14 350l-301 -188l-63 104l313 164l-313 164l63 104l301 -188l-14 352h121l-16 -352l299 188l57 -104l-318 -164z" />
<glyph unicode="+" horiz-adv-x="1228" d="M1143 524h-463v-463h-133v463h-463v133h463v463h133v-463h463v-133z" />
<glyph unicode="," horiz-adv-x="614" d="M436 25l-153 -289h-88l122 264h-106v236h225v-211z" />
<glyph unicode="-" horiz-adv-x="450" d="M436 463h-436v127h436v-127z" />
<glyph unicode="." horiz-adv-x="614" d="M430 0h-227v231h227v-231z" />
<glyph unicode="/" horiz-adv-x="1064" d="M1028 1405l-848 -1755h-137l846 1755h139z" />
<glyph unicode="0" horiz-adv-x="1228" d="M1147 696q0 -125 -31 -246.5t-92 -229t-165.5 -174t-237.5 -66.5q-137 0 -245 65.5t-169.5 173t-93 230t-31.5 251.5t28.5 251t87 231.5t164 176t242.5 66.5q141 0 250 -65.5t170 -174t92 -232.5t31 -257zM967 672q0 104 -14.5 198.5t-50.5 195.5t-112.5 162.5 t-185.5 61.5q-102 0 -174 -57t-105.5 -151.5t-48 -183.5t-14.5 -185q0 -102 14.5 -194.5t50 -190t111.5 -155.5t183 -58q100 0 171.5 54t107.5 143t51.5 177.5t15.5 182.5z" />
<glyph unicode="1" horiz-adv-x="1228" d="M1139 0h-983v129h419v1063q-182 -193 -387 -299v174q279 143 430 338h127v-1276h394v-129z" />
<glyph unicode="2" horiz-adv-x="1228" d="M1116 0h-997v145l569 447q250 197 250 414q0 123 -96.5 200.5t-223.5 77.5q-133 0 -231 -93t-104 -226l-164 49q39 193 174 302t332 109q195 0 342 -114.5t147 -304.5q0 -266 -307 -504l-465 -357h774v-145z" />
<glyph unicode="3" horiz-adv-x="1228" d="M1149 393q0 -137 -83 -234.5t-199.5 -138t-250.5 -40.5q-186 0 -331.5 86t-202.5 253l164 56q72 -254 366 -254q147 0 251 65.5t104 206.5q0 133 -123 209q-55 33 -131 48.5t-143.5 12t-141.5 -0.5v137q14 0 66.5 -1t81 0t72.5 4t79 11t61 23q57 27 92 83t35 119 q0 119 -87 184.5t-210 65.5q-113 0 -202.5 -60.5t-124.5 -166.5l-158 45q57 156 192.5 237.5t307.5 81.5q188 0 324.5 -98t136.5 -278q0 -115 -79 -202t-192 -106v-4q141 -20 233.5 -112.5t92.5 -231.5z" />
<glyph unicode="4" horiz-adv-x="1228" d="M1161 328h-229v-328h-170v328h-692v116l643 961h219v-942h229v-135zM762 463v805l-510 -805h510z" />
<glyph unicode="5" horiz-adv-x="1228" d="M1130 475q0 -225 -155.5 -360t-384.5 -135q-166 0 -306.5 90t-185.5 241l152 51q41 -115 131 -179t213 -64q166 0 266.5 96t100.5 262q0 145 -93.5 239.5t-236.5 94.5q-102 0 -189.5 -51t-142.5 -139l-139 28l47 756h831l-14 -152h-690l-31 -452q156 152 338 151 q207 0 348 -136t141 -341z" />
<glyph unicode="6" horiz-adv-x="1228" d="M1137 459q0 -207 -145.5 -343t-352.5 -136q-139 0 -247.5 58t-172 157.5t-95.5 218t-32 252.5q0 145 31 274t94.5 241.5t178 178t268.5 65.5q164 0 281.5 -78.5t168.5 -232.5l-158 -43q-78 211 -292 211q-123 0 -209 -60.5t-127 -164t-57.5 -204.5t-16.5 -218h4 q49 127 166 205t254 78q195 0 327 -133t132 -326zM973 451q0 135 -93.5 231t-228.5 96q-143 0 -249.5 -100t-106.5 -244q0 -131 103.5 -222t236.5 -91q143 0 240.5 94.5t97.5 235.5z" />
<glyph unicode="7" horiz-adv-x="1228" d="M1087 1298q-500 -602 -499 -1298h-180q-2 336 131 659.5t364 591.5h-762l19 154h927v-107z" />
<glyph unicode="8" horiz-adv-x="1228" d="M1157 377q0 -104 -48 -183t-128 -124t-171 -67.5t-187 -22.5q-90 0 -182.5 21.5t-177.5 64.5t-138 119.5t-53 174.5q0 242 334 369q-115 43 -190 131t-75 203q0 123 78 208t183.5 119.5t226.5 34.5q182 0 324.5 -88t142.5 -260q0 -233 -273 -323q74 -35 124 -63.5 t103.5 -74t80 -105.5t26.5 -134zM942 1069q0 121 -90 173t-221 52q-119 0 -215.5 -53t-96.5 -162q0 -102 92.5 -169.5t206.5 -94.5q68 18 108 32.5t98.5 44.5t88 75t29.5 102zM983 350q0 205 -383 305q-139 -29 -247.5 -101.5t-108.5 -191.5q0 -92 64.5 -152t143 -79.5 t171.5 -19.5q82 0 158.5 20.5t139 77.5t62.5 141z" />
<glyph unicode="9" horiz-adv-x="1228" d="M1135 735.5q0 -141.5 -31 -270.5t-94.5 -240.5t-177 -178t-265.5 -66.5q-156 0 -273.5 70.5t-166.5 209.5l141 51q37 -92 117 -142t182 -50q115 0 199 59.5t127 155.5t61.5 197.5t18.5 207.5h-4q-63 -121 -170 -185.5t-242 -64.5q-197 0 -330 131.5t-133 327.5 q0 203 141.5 340t346.5 137q147 0 257.5 -56t173 -154.5t92.5 -218t30 -261zM936 958q0 145 -96.5 234.5t-243.5 89.5t-240.5 -94t-93.5 -242q0 -141 97.5 -229t240.5 -88q135 0 235.5 97t100.5 232z" />
<glyph unicode=":" horiz-adv-x="614" d="M430 809h-227v231h227v-231zM430 0h-227v231h227v-231z" />
<glyph unicode=";" horiz-adv-x="614" d="M436 809h-227v231h227v-231zM436 25l-153 -289h-88l122 264h-106v236h225v-211z" />
<glyph unicode="&#x3c;" horiz-adv-x="1228" d="M1114 131l-1001 424v70l1001 424v-127l-809 -332l809 -332v-127z" />
<glyph unicode="=" horiz-adv-x="1228" d="M1143 723h-1059v133h1059v-133zM1143 326h-1059v133h1059v-133z" />
<glyph unicode="&#x3e;" horiz-adv-x="1228" d="M1114 555l-1001 -424v127l800 332l-800 332v127l1001 -424v-70z" />
<glyph unicode="?" horiz-adv-x="1105" d="M1032 1030q0 -229 -262 -368q-111 -55 -135 -87q-31 -35 -35 -108.5t2 -118.5h-147v88q0 119 22.5 181.5t110.5 113.5q47 23 94 52.5t84 59t60.5 78t23.5 107.5q0 119 -83 185.5t-206 66.5q-133 0 -214 -83t-101 -218l-154 33q31 197 157 305t324 108q190 0 324.5 -105.5 t134.5 -289.5zM639 0h-209v201h209v-201z" />
<glyph unicode="@" horiz-adv-x="1638" d="M1567 836q0 -195 -122 -362t-308 -167q-178 0 -197 123q-47 -43 -70.5 -62.5t-66.5 -38t-94 -18.5q-117 0 -192 90.5t-75 208.5q0 172 125 318.5t295 146.5q63 0 125 -44t78 -105l37 108h135q-4 -16 -51 -152.5t-82 -246t-35 -135.5q0 -35 20.5 -56.5t57.5 -21.5 q121 0 208 124t87 251q0 217 -187.5 363.5t-412.5 146.5q-233 0 -433 -200t-200 -433q0 -254 184.5 -413t442.5 -159q152 0 299 58l47 -111q-199 -70 -383 -69q-295 0 -512 187t-217 476q0 326 239.5 554t564.5 228q168 0 325 -70.5t262.5 -208.5t105.5 -310zM858 952 q-117 0 -191.5 -109.5t-74.5 -232.5q0 -74 45 -133t117 -59q111 0 181.5 138t70.5 261q-1 135 -148 135z" />
<glyph unicode="A" horiz-adv-x="1146" d="M1137 0h-181l-141 410h-520l-125 -410h-147l454 1405h203zM776 543l-215 674l-217 -674h432z" />
<glyph unicode="B" horiz-adv-x="1269" d="M1176 387q0 -190 -136 -297q-72 -55 -151.5 -72.5t-194.5 -17.5h-528v1405h530q190 0 289 -66q147 -100 148 -276q0 -119 -67 -204t-181 -111v-5q131 -29 211 -126t80 -230zM958 1040q0 117 -76.5 169.5t-199.5 52.5h-340v-459h293q323 -1 323 237zM999 395 q0 139 -102 219q-70 53 -221 54h-334v-518h344q137 0 225 57t88 188z" />
<glyph unicode="C" horiz-adv-x="1269" d="M1178 438q-51 -215 -180.5 -336.5t-340.5 -121.5q-145 0 -258.5 65.5t-179 173t-99.5 234.5t-34 264q0 190 59.5 346t195.5 259t331 103q203 0 332 -121.5t174 -326.5l-166 -31q-43 154 -123 243t-223 89q-109 0 -188 -54.5t-121 -143.5t-60 -183t-18 -195q0 -96 19 -190 t59 -184t118 -145.5t182 -55.5q276 0 361 346z" />
<glyph unicode="D" horiz-adv-x="1351" d="M1272 707q0 -188 -63.5 -345t-203 -259.5t-329.5 -102.5h-502v1405h444q160 0 274 -44t210 -155q170 -198 170 -499zM1094 707q0 248 -129 407q-68 84 -151 113.5t-206 29.5h-258v-1107h258q131 0 224.5 38.5t158.5 139.5q103 156 103 379z" />
<glyph unicode="E" horiz-adv-x="1146" d="M1083 0h-909v1405h889v-152h-713v-446h565v-141h-565v-514h733v-152z" />
<glyph unicode="F" horiz-adv-x="983" d="M1028 1253h-684v-446h567v-141h-567v-666h-176v1405h860v-152z" />
<glyph unicode="G" horiz-adv-x="1351" d="M1229 -10h-109l-47 174q-125 -184 -389 -184q-117 0 -214 38.5t-164.5 106.5t-115 159t-70 193.5t-22.5 210.5q0 193 63.5 356.5t206 272t339 108.5t327.5 -105.5t180 -297.5l-165 -41q-27 135 -123.5 216t-231.5 81q-113 0 -195.5 -53.5t-126.5 -141.5t-63.5 -184 t-19.5 -203q0 -102 21.5 -198.5t65.5 -183.5t127 -139t193 -52q162 0 257.5 99.5t95.5 260.5v78h-351v148h531v-719z" />
<glyph unicode="H" horiz-adv-x="1351" d="M1169 0h-176v668h-651v-668h-176v1405h176v-584h651v584h176v-1405z" />
<glyph unicode="I" horiz-adv-x="532" d="M352 0h-176v1405h176v-1405z" />
<glyph unicode="J" horiz-adv-x="819" d="M662 459q0 -233 -97.5 -356t-324.5 -123q-102 0 -205 28v144q98 -20 180 -21q90 0 146.5 19.5t82 65.5t33.5 98.5t8 144.5v946h177v-946z" />
<glyph unicode="K" horiz-adv-x="1269" d="M1286 0h-194l-418 774l-322 -399v-375h-176v1405h176v-815l633 815h191l-379 -492z" />
<glyph unicode="L" horiz-adv-x="1024" d="M1001 0h-829v1405h176v-1249h653v-156z" />
<glyph unicode="M" horiz-adv-x="1679" d="M1522 0h-176v1227h-9l-444 -1227h-119l-455 1227h-8v-1227h-147v1405h262l424 -1124l414 1124h258v-1405z" />
<glyph unicode="N" horiz-adv-x="1351" d="M1202 0h-172l-715 1225v-1225h-147v1405h221l666 -1145v1145h147v-1405z" />
<glyph unicode="O" horiz-adv-x="1351" d="M1245 719q0 -135 -34.5 -263t-102.5 -235.5t-181.5 -174t-257 -66.5t-258 60t-183 162.5t-103.5 227.5t-35 262t35 264t102.5 233.5t181 171t259.5 64.5q186 0 321 -105.5t195.5 -262t60.5 -338.5zM1061 709q0 98 -19.5 192t-61.5 182t-121 142.5t-185 54.5 q-111 0 -193 -55.5t-125 -146.5t-62.5 -187t-19.5 -201q0 -98 21.5 -192.5t64.5 -181.5t124 -140t186 -53q106 0 186 56.5t123 147.5t62.5 186.5t19.5 195.5z" />
<glyph unicode="P" horiz-adv-x="1146" d="M1083 983q0 -178 -122 -297q-117 -115 -338 -115h-316v-571h-176v1405h471q225 0 338 -94q68 -57 105.5 -146.5t37.5 -181.5zM905 983q0 133 -77.5 203.5t-211.5 70.5h-309v-540h297q135 0 218 66.5t83 199.5z" />
<glyph unicode="Q" horiz-adv-x="1351" d="M1251 702q0 -156 -42 -295t-144 -252.5t-252 -152.5v-31q0 -74 42 -113.5t116 -39.5q45 0 188 14v-139q-80 -27 -151 -27q-158 0 -247 79t-91 235q-287 8 -436.5 211.5t-149.5 500.5q0 139 35 267t103.5 233.5t183 169t262.5 63.5q119 0 216 -41t164.5 -110.5 t113.5 -162.5t67.5 -195.5t21.5 -213.5zM1061 698q0 106 -17.5 199.5t-59.5 181.5t-123 139.5t-195.5 51.5t-195.5 -52.5t-122 -142.5t-58.5 -184t-17.5 -203q0 -100 18.5 -192.5t58.5 -179.5t119 -139t185 -52q115 0 199 51t127 137t62.5 181t19.5 204z" />
<glyph unicode="R" horiz-adv-x="1269" d="M1176 0h-185l-260 608h-389v-608h-176v1405h526q201 0 335 -98.5t134 -294.5q0 -127 -70.5 -227.5t-191.5 -133.5zM985 1014q0 127 -81 183t-212 56h-350v-501h330q139 0 226 62.5t87 199.5z" />
<glyph unicode="S" horiz-adv-x="1269" d="M1180 401q0 -209 -153 -315t-372 -106q-432 0 -569 399l158 35q41 -141 152.5 -213t262.5 -72q137 0 237.5 60.5t100.5 189.5q0 84 -55 138t-145 82t-184.5 47.5t-191.5 52t-151 79.5q-115 102 -114 260q0 193 139 290t338 97q180 0 312 -88t188 -256l-160 -43 q-23 111 -124 179.5t-220 68.5q-113 0 -207 -58.5t-94 -164.5q0 -100 84 -157.5t193.5 -76t242.5 -55.5t201 -94q131 -107 131 -279z" />
<glyph unicode="T" horiz-adv-x="1024" d="M997 1251h-399v-1251h-176v1251h-399v154h974v-154z" />
<glyph unicode="U" horiz-adv-x="1310" d="M1135 516q0 -125 -19.5 -215t-83.5 -166q-131 -156 -379 -155q-266 0 -376.5 133t-110.5 403v889h176v-889q0 -197 67.5 -289t258.5 -92q180 0 249.5 97.5t69.5 283.5v889h148v-889z" />
<glyph unicode="V" horiz-adv-x="1146" d="M1139 1405l-475 -1405h-168l-476 1405h185l391 -1159l389 1159h154z" />
<glyph unicode="W" horiz-adv-x="1679" d="M1663 1405l-338 -1405h-176l-305 1090l-287 -1090h-178l-356 1405h180l280 -1139h4l297 1139h142l319 -1139h4l260 1139h154z" />
<glyph unicode="X" horiz-adv-x="1105" d="M1104 0h-199l-354 598l-369 -598h-164l451 727l-401 678h196l309 -520l314 520h162l-394 -643z" />
<glyph unicode="Y" horiz-adv-x="1146" d="M1137 1405l-469 -813v-592h-176v592l-469 813h204l373 -647l377 647h160z" />
<glyph unicode="Z" horiz-adv-x="1105" d="M1026 0h-991v152l764 1108h-729v145h934v-117l-773 -1136h795v-152z" />
<glyph unicode="[" horiz-adv-x="614" d="M498 -350h-365v1755h365v-105h-224v-1540h224v-110z" />
<glyph unicode="\" horiz-adv-x="1064" d="M1186 -350h-137l-848 1755h139z" />
<glyph unicode="]" horiz-adv-x="614" d="M498 -350h-365v110h223v1540h-223v105h365v-1755z" />
<glyph unicode="^" horiz-adv-x="1228" d="M1018 528h-125l-279 682l-278 -682h-123l354 877h95z" />
<glyph unicode="_" horiz-adv-x="1024" d="M1024 -256h-1024v102h1024v-102z" />
<glyph unicode="`" horiz-adv-x="778" d="M623 1223l-41 -82l-441 192l70 133z" />
<glyph unicode="a" horiz-adv-x="1105" d="M1018 0h-160l-18 195q-106 -215 -365 -215q-154 0 -258 82.5t-104 232.5q0 94 53 171t139 118q53 25 125 40t138.5 18t139 4t132.5 -1v45q0 137 -63.5 194.5t-201.5 57.5q-248 0 -284 -184l-150 24q10 78 54.5 135.5t111 89t137 46t146.5 14.5q236 0 320.5 -102.5 t84.5 -341.5v-404q0 -141 23 -219zM840 457v67h-133q-422 0 -422 -237q0 -90 65.5 -136.5t159.5 -46.5q143 0 236.5 105t93.5 248z" />
<glyph unicode="b" horiz-adv-x="1105" d="M1018 535q0 -141 -43 -263t-144.5 -207t-246.5 -85q-100 0 -185.5 54t-134.5 144l-59 -178h-78v1405h160v-537h8q104 199 305 199q203 0 310.5 -159.5t107.5 -372.5zM846 508q0 74 -12.5 142.5t-41 137t-86 109.5t-135.5 41q-117 0 -200.5 -98.5t-83.5 -218.5v-185 q0 -133 76.5 -230t207.5 -97q98 0 164 66.5t88.5 150.5t22.5 182z" />
<glyph unicode="c" horiz-adv-x="983" d="M913 344q-29 -164 -134 -264t-267 -100q-147 0 -249.5 79.5t-147.5 198.5t-45 262.5t45 263t149.5 201.5t249.5 82q166 0 269.5 -97.5t129.5 -262.5l-147 -27q-12 109 -76.5 180.5t-171.5 71.5q-145 0 -211.5 -121t-66.5 -281q0 -72 12 -138t39.5 -131.5t84 -104.5 t132.5 -39q209 0 258 254z" />
<glyph unicode="d" horiz-adv-x="1105" d="M969 0h-146v184h-4q-100 -205 -325 -204q-137 0 -235.5 85t-139.5 203.5t-41 251.5q0 139 43 259t144.5 204t242.5 84q182 0 301 -168v506h160v-1405zM809 451v165q0 141 -73.5 232.5t-213.5 91.5q-96 0 -160.5 -67.5t-88 -153.5t-23.5 -180q0 -74 11 -141.5t39 -135 t84 -108.5t134 -41q131 0 211 101.5t80 236.5z" />
<glyph unicode="e" horiz-adv-x="1105" d="M1012 508h-756q-2 -168 72.5 -280.5t236.5 -112.5q98 0 171 53t108 147l151 -30q-45 -139 -167.5 -222t-274.5 -83q-225 0 -351 154.5t-126 385.5q0 227 129 387t352 160q221 0 338 -153.5t117 -381.5v-24zM836 627q2 135 -72 226t-207 91q-125 0 -207 -94t-86 -223h572z " />
<glyph unicode="f" horiz-adv-x="614" d="M668 1282q-86 16 -131 16q-104 0 -138 -53t-34 -164v-41h241v-127h-241v-913h-160v913h-185v127h185v31q0 156 64.5 256t211.5 100q23 0 187 -16v-129z" />
<glyph unicode="g" horiz-adv-x="1024" d="M1022 -94q0 -299 -514 -299q-483 0 -483 270q0 156 157 211q-100 63 -100 164q0 70 36 112t107 74q-135 106 -135 275q0 162 118 258t281 96q115 0 211 -45q16 96 64.5 138t146.5 42q47 0 70 -2l2 -129q-61 0 -94 -4t-65.5 -31.5t-41.5 -83.5q100 -111 101 -256 q0 -156 -119 -248t-279 -92q-25 0 -71.5 8.5t-69.5 8.5q-39 0 -75 -29t-36 -68q0 -68 78 -88q74 -20 274.5 -19t276.5 -34q72 -29 116 -91t44 -138zM721 713q0 96 -67.5 161.5t-164.5 65.5q-100 0 -166.5 -64.5t-66.5 -164.5q0 -106 63.5 -168t169.5 -62q104 0 168 64 t64 168zM868 -100q0 63 -64.5 94t-136 27.5t-122.5 3.5q-78 4 -250 16q-113 -53 -113 -141q0 -51 35 -87t90 -52.5t104.5 -22.5t98.5 -6q53 0 104.5 5t114 20.5t101 52.5t38.5 90z" />
<glyph unicode="h" horiz-adv-x="1105" d="M963 0h-160v606q0 55 -2 93t-14.5 87.5t-33 78t-61.5 50t-98 21.5q-119 0 -211 -111q-80 -96 -80 -290v-535h-160v1405h160v-557h6q102 219 324 219q166 0 248 -109.5t82 -279.5v-678z" />
<glyph unicode="i" horiz-adv-x="491" d="M334 1225h-176v180h176v-180zM326 0h-160v1040h160v-1040z" />
<glyph unicode="j" horiz-adv-x="450" d="M303 1225h-176v180h176v-180zM293 -18q0 -168 -67.5 -259.5t-229.5 -91.5q-70 0 -152 21v129q61 -16 117 -17q106 0 139 52.5t33 165.5v1058h160v-1058z" />
<glyph unicode="k" horiz-adv-x="1024" d="M1008 0h-170l-303 580l-224 -258v-322h-159v1405h159v-899l482 530h172l-324 -364z" />
<glyph unicode="l" horiz-adv-x="491" d="M326 0h-160v1405h160v-1405z" />
<glyph unicode="m" horiz-adv-x="1679" d="M1540 0h-160v662q0 117 -47 195.5t-155 78.5q-121 0 -201 -117q-27 -39 -40 -86t-15 -78.5t-2 -93.5v-561h-160v659q0 117 -49 197t-160 80q-109 0 -189 -102q-63 -80 -63 -238v-596h-160v1040h146v-200h4q41 100 124 163.5t187 63.5q111 0 189.5 -68.5t103.5 -179.5 q45 113 132 180.5t204 67.5q78 0 150.5 -41t111.5 -108q49 -84 49 -263v-655z" />
<glyph unicode="n" horiz-adv-x="1105" d="M965 0h-160v643q0 143 -29 193q-25 43 -75 68.5t-103 25.5q-150 0 -223.5 -114t-73.5 -271v-545h-160v1040h152v-192h4q45 100 131 159.5t193 59.5q199 0 294 -162q49 -84 50 -287v-618z" />
<glyph unicode="o" horiz-adv-x="1105" d="M1016 526q0 -231 -129 -388.5t-355 -157.5q-147 0 -252.5 80.5t-151.5 201.5t-46 266q0 229 126 384t351 155q215 0 336 -159t121 -382zM838 528q0 104 -23.5 190.5t-92.5 152t-175 65.5q-104 0 -172 -66.5t-91.5 -152.5t-23.5 -189q0 -76 13.5 -144.5t43 -132t89 -101 t141.5 -37.5q109 0 177.5 67.5t91 154.5t22.5 193z" />
<glyph unicode="p" horiz-adv-x="1105" d="M1042 528q0 -135 -38.5 -254.5t-136 -206.5t-236.5 -87q-201 0 -312 184v-504h-159v1380h145v-200h4q41 106 125 166.5t197 60.5q137 0 234.5 -85t137 -203t39.5 -251zM862 522q0 98 -20.5 182t-84 153t-163.5 69q-82 0 -147.5 -51.5t-102.5 -131.5q-25 -49 -25 -71v-264 q0 -111 83 -202t192 -91q78 0 134 37.5t84 102t39 129t11 138.5z" />
<glyph unicode="q" horiz-adv-x="1105" d="M967 -340h-160v537h-6q-41 -102 -122 -159.5t-190 -57.5q-106 0 -188 48t-129 128t-69.5 172t-22.5 192q0 217 109.5 382t314.5 165q113 0 184.5 -47t132.5 -148l64 168h82v-1380zM805 492v88q0 141 -70.5 249.5t-204.5 108.5q-76 0 -131 -40t-84.5 -105.5t-43 -133 t-13.5 -137.5q0 -98 21.5 -183t85 -153.5t163.5 -68.5q133 0 205 117t72 258z" />
<glyph unicode="r" horiz-adv-x="655" d="M659 911h-32q-154 0 -237 -113.5t-83 -273.5v-524h-160v1040h144v-243h4q94 272 287 272q25 0 77 -4v-154z" />
<glyph unicode="s" horiz-adv-x="1064" d="M971 301q0 -162 -129 -241.5t-303 -79.5q-166 0 -293 73.5t-164 222.5l156 31q16 -96 110 -145t203 -49q98 0 175 41t77 131q0 74 -69.5 112.5t-170 54t-200 37t-169 89t-69.5 184.5q0 150 115.5 227.5t273.5 77.5q152 0 263.5 -63.5t148.5 -198.5l-148 -31 q-59 164 -266 164q-86 0 -153.5 -37t-67.5 -115q0 -72 64.5 -110.5t148.5 -49t186.5 -33t155.5 -56.5q125 -84 125 -236z" />
<glyph unicode="t" horiz-adv-x="655" d="M639 -8q-16 -2 -85 -8.5t-103 -6.5q-260 0 -261 342v603h-184v127h184v258l160 16v-274h232v-127h-232v-629q0 -186 142 -187l147 13v-127z" />
<glyph unicode="u" horiz-adv-x="1105" d="M958 0h-145v207h-4q-39 -98 -127 -162.5t-193 -64.5q-184 0 -266 117.5t-82 310.5v632h160v-632q0 -289 203 -289q141 0 218 110.5t77 257.5v553h159v-1040z" />
<glyph unicode="v" horiz-adv-x="901" d="M905 1040l-358 -1040h-168l-371 1040h178l291 -845l285 845h143z" />
<glyph unicode="w" horiz-adv-x="1351" d="M1327 1040l-299 -1040h-131l-231 772l-213 -772h-134l-311 1040h162l225 -776l217 776h117l234 -778l233 778h131z" />
<glyph unicode="x" horiz-adv-x="901" d="M897 0h-188l-263 422l-272 -422h-158l351 539l-316 501h187l221 -356l227 356h156l-303 -467z" />
<glyph unicode="y" horiz-adv-x="860" d="M870 1040l-407 -1138q-51 -139 -117.5 -206t-200.5 -67q-49 0 -118 19v129q61 -14 106 -14.5t81 14t57.5 40t40 58.5t29.5 69t26 74l-361 1022h166l279 -782l284 782h135z" />
<glyph unicode="z" horiz-adv-x="860" d="M821 0h-766v125l553 788h-510v127h723v-88l-571 -827h571v-125z" />
<glyph unicode="{" horiz-adv-x="614" d="M545 -350l-150 6q-70 2 -119 79t-49 148q0 53 1 163t1 165q0 115 -30.5 179.5t-130.5 84.5v127q55 10 88.5 33.5t49 63.5t19.5 77t4 96q0 53 -1 160t-1 160q0 72 49.5 148.5t118.5 78.5l150 6v-125q-43 -2 -74 -5t-51.5 -13t-29.5 -35.5t-9 -75.5q0 -55 1 -165.5 t1 -165.5q0 -203 -150 -301q150 -113 150 -303l-2 -334q0 -61 18.5 -88t54 -31t91.5 -12v-121z" />
<glyph unicode="|" horiz-adv-x="532" d="M328 -512h-123v2048h123v-2048z" />
<glyph unicode="}" horiz-adv-x="614" d="M545 475q-102 -20 -132 -86.5t-30 -185.5q0 -53 1 -159.5t1 -160.5q0 -72 -49 -148.5t-119 -78.5l-149 -6v121q55 8 91 12t54 30.5t18 88.5q0 55 -1 166.5t-1 167.5q0 190 150 303q-150 98 -150 301l2 331q0 49 -9 75t-29.5 36t-51 13t-73.5 5v125l149 -6 q70 -2 119 -78.5t49 -148.5q0 -53 -1 -163.5t-1 -164.5q0 -117 30.5 -179t131.5 -83v-127z" />
<glyph unicode="~" horiz-adv-x="1228" d="M1110 709q0 -4 1 -14.5t1 -16.5q0 -100 -70.5 -190.5t-169.5 -90.5q-76 0 -178 54.5t-192 109.5t-137 55q-59 0 -85 -57t-26 -127h-139q6 121 67.5 222.5t173.5 101.5q82 0 263.5 -110.5t248.5 -110.5q102 0 103 174h139z" />
<glyph unicode="&#xa1;" horiz-adv-x="614" d="M406 821h-216v219h216v-219zM420 -350h-242l80 1055h88z" />
<glyph unicode="&#xa4;" horiz-adv-x="1228" d="M1047 999l-119 -112q59 -92 59 -187q0 -88 -67 -204l116 -117l-118 -113l-109 113q-102 -68 -201 -68q-84 0 -194 51l-111 -104l-113 121l101 104q-66 82 -66 211q0 139 76 201l-119 123l111 117l119 -121q119 57 200 57q84 0 199 -57l115 110zM811 696q0 90 -61.5 146.5 t-151.5 56.5q-92 0 -149.5 -57.5t-57.5 -151.5t57.5 -151.5t149.5 -57.5q94 0 153.5 59.5t59.5 155.5z" />
<glyph unicode="&#xa5;" horiz-adv-x="1228" d="M1171 1405l-307 -535h260v-120h-331l-91 -158v-6h422v-123h-422v-463h-174v463h-422v123h422v6l-92 158h-330v120h261l-310 535h207l371 -647l377 647h159z" />
<glyph unicode="&#xa7;" horiz-adv-x="1228" d="M1096 -2q0 -178 -144.5 -280.5t-330.5 -102.5q-170 0 -300.5 76t-185.5 227l180 27q35 -90 124 -143.5t190 -53.5q111 0 204 58.5t93 162.5q0 88 -77 139.5t-187.5 77t-220 56t-186.5 100.5t-77 184q0 180 199 308q-168 92 -168 274q0 154 116.5 235.5t276.5 81.5 q152 0 270.5 -68.5t157.5 -205.5l-156 -16q-31 84 -104.5 128t-165.5 44t-165.5 -44t-73.5 -133q0 -76 52 -126t129 -72.5t168 -51t167.5 -58t129 -96.5t52.5 -163q0 -145 -166 -280q90 -37 144.5 -114t54.5 -171zM913 520q0 133 -208 199l-203 63q-162 -82 -162 -200 q0 -49 21.5 -85t64.5 -60.5t74.5 -36t87.5 -27.5l178 -49q59 25 103 81t44 115z" />
<glyph unicode="&#xa8;" horiz-adv-x="819" d="M674 1364q0 -45 -32 -76t-77 -31q-43 0 -73.5 32t-30.5 75t31.5 72.5t74.5 29.5t75 -29.5t32 -72.5zM356 1364q0 -45 -31.5 -76t-76.5 -31q-43 0 -74 32t-31 75t32 72.5t75 29.5t74.5 -29.5t31.5 -72.5z" />
<glyph unicode="&#xab;" horiz-adv-x="819" d="M678 227h-90l-178 299l176 291h92l-109 -291zM410 227h-91l-178 299l176 291h93l-109 -291z" />
<glyph unicode="&#xb0;" horiz-adv-x="819" d="M717 1118q0 -127 -90 -217t-217 -90t-217.5 90t-90.5 217t90.5 217t217.5 90t217 -90t90 -217zM592 1116q0 76 -54.5 130t-130 54t-129 -54t-53.5 -130t54.5 -129t128.5 -53q76 0 130 53t54 129z" />
<glyph unicode="&#xb1;" horiz-adv-x="1228" d="M1143 698h-463v-462h-133v462h-463v133h463v463h133v-463h463v-133zM1143 0h-1059v133h1059v-133z" />
<glyph unicode="&#xb2;" horiz-adv-x="737" d="M692 569h-649v97l358 260q166 121 166 248q0 76 -59 117.5t-139 41.5q-78 0 -144.5 -54t-66.5 -130l-115 29q27 119 116 183t214 64q123 0 220 -67.5t97 -183.5q0 -176 -190 -304l-303 -204h495v-97z" />
<glyph unicode="&#xb3;" horiz-adv-x="737" d="M715 805q0 -123 -106.5 -185.5t-239.5 -62.5q-117 0 -213.5 51t-135.5 154l107 41q49 -152 240 -152q104 0 139 23q82 51 82 131q0 29 -10.5 52.5t-28 39.5t-41 27.5t-50 17.5t-55 10t-57.5 5t-54.5 1h-45.5v95q39 0 76.5 -1t79.5 6t71 23q82 51 82 111q0 74 -53 108.5 t-131 34.5q-72 0 -130.5 -35.5t-82.5 -101.5l-103 35q39 96 127 144t197 48q119 0 209 -57t90 -170q0 -68 -50 -120t-120 -64v-4q88 -12 147.5 -65.5t59.5 -139.5z" />
<glyph unicode="&#xb4;" horiz-adv-x="778" d="M623 1333l-441 -192l-41 82l412 243z" />
<glyph unicode="&#xb6;" horiz-adv-x="1105" d="M1038 1272h-118v-1657h-134v1657h-165v-1657h-134v825q-127 16 -196.5 50t-134.5 131q-90 131 -90 286q0 98 38 199q49 123 162 211t240 88h532v-133z" />
<glyph unicode="&#xb7;" horiz-adv-x="491" d="M352 629q0 -45 -31.5 -76t-76.5 -31q-43 0 -74 32t-31 75t32 72.5t75 29.5t74.5 -29.5t31.5 -72.5z" />
<glyph unicode="&#xb8;" horiz-adv-x="655" d="M518 -205q0 -76 -56 -113.5t-136 -37.5q-111 0 -187 47l23 65q74 -37 147 -37q37 0 71 17.5t34 52.5q0 76 -129 76q-4 0 -66 -6l45 141h70l-21 -70h9q78 0 137 -31.5t59 -103.5z" />
<glyph unicode="&#xb9;" horiz-adv-x="737" d="M688 582h-639v94h264v620q-102 -113 -243 -178v105q162 80 268 202h102v-749h248v-94z" />
<glyph unicode="&#xbb;" horiz-adv-x="819" d="M678 526l-178 -299h-90l108 299l-108 291h92zM410 526l-179 -299h-90l109 299l-109 291h92z" />
<glyph unicode="&#xbc;" horiz-adv-x="1843" d="M1782 197h-133v-197h-127v197h-463v69l418 578h172v-553h133v-94zM1522 291v442l-320 -442h320zM1546 1405l-850 -1405h-149l850 1405h149zM700 561h-639v94h265v621q-102 -113 -244 -178v104q162 80 268 203h103v-750h247v-94z" />
<glyph unicode="&#xbd;" horiz-adv-x="1843" d="M1782 0h-649v96l358 260q166 121 166 248q0 76 -59.5 118t-139.5 42q-78 0 -144.5 -54.5t-66.5 -129.5l-114 28q27 119 115.5 183.5t213.5 64.5q123 0 220.5 -67.5t97.5 -184.5q0 -176 -191 -303l-303 -205h496v-96zM1479 1405l-850 -1405h-150l850 1405h150zM700 561 h-639v94h265v621q-102 -113 -244 -178v104q162 80 268 203h103v-750h247v-94z" />
<glyph unicode="&#xbe;" horiz-adv-x="1843" d="M1782 197h-133v-197h-127v197h-463v69l418 578h172v-553h133v-94zM1522 291v442l-320 -442h320zM1526 1405l-850 -1405h-150l850 1405h150zM756 784q0 -123 -106.5 -185t-239.5 -62q-117 0 -213.5 51t-135.5 153l107 41q49 -152 240 -151q104 0 139 22q82 51 82 131 q0 29 -10.5 52.5t-28 40t-41 27.5t-50 17.5t-55 10.5t-57.5 5t-54.5 1h-45.5v94q39 0 76.5 -1t79.5 6t71 24q82 51 82 110q0 74 -53.5 109t-130.5 35q-72 0 -130.5 -36t-82.5 -101l-103 34q39 96 127 144.5t197 48.5q119 0 209 -57.5t90 -169.5q0 -68 -50.5 -120t-119.5 -65 v-4q88 -12 147.5 -65.5t59.5 -139.5z" />
<glyph unicode="&#xbf;" horiz-adv-x="1105" d="M694 840h-209v200h209v-200zM1032 41q-31 -197 -156.5 -305.5t-324.5 -108.5q-190 0 -324.5 105.5t-134.5 290.5q0 229 262 368q111 55 135 86q31 35 35 108.5t-2 119.5h148v-89q0 -119 -22.5 -181t-110.5 -113q-47 -23 -94.5 -52.5t-84 -59.5t-60.5 -78t-24 -107 q0 -119 83 -185.5t206 -66.5q133 0 214 83t102 218z" />
<glyph unicode="&#xd7;" horiz-adv-x="1228" d="M1143 154l-94 -95l-435 437l-434 -437l-94 95l434 436l-434 436l94 94l434 -436l435 436l94 -94l-434 -436z" />
<glyph unicode="&#xf7;" horiz-adv-x="1228" d="M713 889h-199v198h199v-198zM1143 524h-1059v133h1059v-133zM713 94h-199v199h199v-199z" />
<glyph unicode="&#x2c7;" horiz-adv-x="1024" d="M807 1511l-197 -348h-196l-197 348h121l174 -227l172 227h123z" />
<glyph unicode="&#x2d8;" horiz-adv-x="1024" d="M803 1477q-10 -143 -79 -211t-212 -68q-141 0 -211 67.5t-80 211.5h109q6 -78 52 -109t130 -31q172 0 182 140h109z" />
<glyph unicode="&#x2d9;" horiz-adv-x="1024" d="M608 1217h-192v221h192v-221z" />
<glyph unicode="&#x2da;" horiz-adv-x="1024" d="M741 1350q0 -94 -66.5 -161t-162.5 -67q-98 0 -163.5 64.5t-65.5 163.5q0 96 67.5 162.5t161.5 66.5t161.5 -66.5t67.5 -162.5zM629 1350q0 45 -36 80.5t-81 35.5q-47 0 -81 -34.5t-34 -81.5t34 -81t81 -34t82 34t35 81z" />
<glyph unicode="&#x2db;" horiz-adv-x="1024" d="M649 -440h-86q-225 0 -225 168q0 123 186 272h82q-137 -115 -137 -219q0 -47 30.5 -65.5t70.5 -14.5t79 2v-143z" />
<glyph unicode="&#x2dd;" horiz-adv-x="1024" d="M911 1511l-245 -348h-97l166 348h176zM627 1511l-219 -348h-97l138 348h178z" />
<glyph unicode="&#x2018;" horiz-adv-x="454" d="M324 1221v-209h-193v164q0 53 3 83.5t16.5 81t50.5 87t94 63.5l45 -70q-104 -43 -111 -200h95z" />
<glyph unicode="&#x2019;" horiz-adv-x="454" d="M131 1257v209h193v-163q0 -53 -3.5 -84t-16.5 -81.5t-50 -87t-94 -63.5l-45 70q104 43 110 200h-94z" />
<glyph unicode="&#x201c;" horiz-adv-x="681" d="M592 1221v-209h-193v164q0 53 3.5 83.5t16.5 81t50 87t94 63.5l45 -70q-104 -43 -110 -200h94zM281 1221v-209h-193v164q0 53 3 83.5t16.5 81t50.5 87t94 63.5l45 -70q-104 -43 -111 -200h95z" />
<glyph unicode="&#x201d;" horiz-adv-x="681" d="M90 1257v209h193v-163q0 -53 -3.5 -84t-16.5 -81.5t-50 -87t-94 -63.5l-45 70q104 43 110 200h-94zM401 1257v209h193v-163q0 -53 -3 -84t-16.5 -81.5t-50.5 -87t-94 -63.5l-45 70q104 43 111 200h-95z" />
<glyph unicode="&#x2020;" horiz-adv-x="1138" d="M479 -346v1212h-399v160h399v406h180v-406h400v-160h-400v-1212h-180z" />
<glyph unicode="&#x2021;" horiz-adv-x="1138" d="M479 -346v371h-399v159h399v727h-399v160h399v375h180v-375h398v-160h-398v-727h400v-159h-400v-371h-180z" />
<glyph unicode="&#x2025;" d="M1655 737q0 -145 -146 -145q-147 0 -147 143q0 150 147 150q68 0 107 -40t39 -108zM686 737q0 -145 -143 -145q-152 0 -152 143q0 150 152 150q66 0 104.5 -41t38.5 -107z" />
<glyph unicode="&#x2026;" d="M1823 731q0 -137 -142 -137q-135 0 -135 137q0 139 146 139q55 0 93 -41t38 -98zM1159 731q0 -137 -137 -137t-137 137q0 139 145 139q53 0 91 -42t38 -97zM500 731q0 -137 -138 -137q-139 0 -139 137q0 139 148 139q53 0 91 -42t38 -97z" />
<glyph unicode="&#x2030;" d="M37 1098q0 53 8 104t32.5 121t87 113t157.5 43q78 0 136 -33t85.5 -75t44 -101.5t19.5 -95t3 -72.5q0 -395 -286 -395q-82 0 -140.5 35.5t-85 79.5t-42 108.5t-17.5 96.5t-2 71zM184 1092q0 -258 144 -258q135 0 135 260q0 262 -139.5 262t-139.5 -264zM764 336 q0 53 8 104.5t32.5 121t87 112.5t157.5 43q78 0 136 -33t85.5 -75t44 -101t19.5 -95t3 -73q0 -395 -286 -395q-82 0 -140.5 35.5t-85 79.5t-42 108.5t-17.5 96.5t-2 71zM911 328q0 -258 144 -258q135 0 135 260q0 262 -139.5 262t-139.5 -264zM1438 336q0 53 8 104.5 t32.5 121t87 112.5t156.5 43q78 0 136.5 -33t86 -75t44 -101t19.5 -95t3 -73q0 -395 -287 -395q-82 0 -140 35.5t-84.5 79.5t-42 108.5t-17.5 96.5t-2 71zM1585 328q0 -258 144 -258q135 0 135 260q0 262 -139.5 262t-139.5 -264zM322 -51l600 1542h131l-598 -1542h-133z " />
<glyph unicode="&#x2032;" horiz-adv-x="505" d="M459 1642l-269 -286h-137l183 286h223z" />
<glyph unicode="&#x2033;" horiz-adv-x="866" d="M821 1642l-270 -286h-135l180 286h225zM453 1642l-271 -286h-135l182 286h224z" />
<glyph unicode="&#x203b;" d="M1755 733q0 -156 -153.5 -155.5t-153.5 155.5q0 68 43 112t111 44q70 0 111.5 -42t41.5 -114zM1176 1313q0 -158 -154 -158t-154 160q0 70 41 111.5t111 41.5q72 0 114 -41.5t42 -113.5zM1749 66l-59 -58l-666 668l-668 -668l-57 58l668 667l-668 668l57 57l668 -667 l666 667l59 -57l-670 -668zM596 733q0 -156 -152 -155q-156 0 -155 155q0 68 42 112t109 44q72 0 114 -42t42 -114zM1176 154q0 -154 -154 -154t-154 154q0 70 41 111.5t111 41.5q74 0 115 -39.5t41 -113.5z" />
<glyph unicode="&#x2074;" horiz-adv-x="761" d="M745 770h-133v-197h-127v197h-462v70l417 577h172v-553h133v-94zM485 864v443l-319 -443h319z" />
<glyph unicode="&#x207f;" horiz-adv-x="737" d="M692 571h-133v582q0 68 -38 115t-103 47q-166 0 -242 -144v-604h-133v840h133v-76q78 94 248 94q121 0 194.5 -73.5t73.5 -192.5v-588z" />
<glyph unicode="&#x2081;" horiz-adv-x="729" d="M686 -193h-639v95h264v620q-102 -113 -243 -178v105q164 84 268 202h102v-749h248v-95z" />
<glyph unicode="&#x2082;" horiz-adv-x="761" d="M707 -190h-650v96l359 260q166 121 166 248q0 76 -59.5 117.5t-139.5 41.5q-78 0 -144.5 -54t-66.5 -130l-115 29q27 119 116 183.5t214 64.5q123 0 220.5 -68t97.5 -184q0 -176 -191 -303l-303 -205h496v-96z" />
<glyph unicode="&#x2083;" horiz-adv-x="761" d="M729 49q0 -123 -106.5 -185.5t-239.5 -62.5q-117 0 -213 51.5t-135 153.5l106 41q27 -86 91.5 -118.5t164.5 -32.5q82 0 143.5 37.5t61.5 115.5q0 29 -10 52.5t-27.5 40t-41 27.5t-50.5 17.5t-55.5 10.5t-56 5t-54 1h-47.5v94q45 0 70.5 1t78 8t82 20.5t54 41t24.5 68.5 q0 74 -53 109t-131 35q-72 0 -130 -36t-83 -102l-102 35q39 96 127 144.5t196 48.5q119 0 209 -57.5t90 -170.5q0 -68 -50 -120t-120 -64v-4q88 -12 147.5 -65.5t59.5 -139.5z" />
<glyph unicode="&#x2084;" horiz-adv-x="761" d="M745 4h-133v-197h-127v197h-462v70l417 577h172v-553h133v-94zM485 98v443l-319 -443h319z" />
<glyph unicode="&#x20a9;" horiz-adv-x="1961" d="M1878 680h-270l-195 -823h-133l-190 823h-222l-194 -823h-131l-191 823h-266v78h246l-129 571h123l133 -571h317l133 571h150l129 -571h319l135 571h119l-135 -571h252v-78zM1073 758l-92 401l-92 -401h184zM1491 680h-285l140 -617zM760 680h-287l143 -617z" />
<glyph unicode="&#x2103;" horiz-adv-x="1888" d="M1776 76q-215 -111 -478 -111q-356 0 -538 206t-182 568q0 360 187 569.5t544 209.5q195 0 465 -66v-197q-305 104 -469 105q-176 0 -293 -89t-164 -224.5t-47 -309.5q0 -268 133 -439t393 -171q209 0 449 129v-180zM543 1296.5q0 -92.5 -64.5 -158t-156.5 -65.5 q-94 0 -159 64.5t-65 158.5q0 92 65.5 157t158 65t157 -64.5t64.5 -157zM444 1294q0 49 -36.5 87t-86 38t-86 -38t-36.5 -87t36.5 -86t86 -37t86 37t36.5 86z" />
<glyph unicode="&#x2109;" horiz-adv-x="1597" d="M1518 1323h-617v-496h518v-155h-518v-672h-211v1481h828v-158zM543 1296.5q0 -92.5 -64.5 -158t-156.5 -65.5q-94 0 -159 64.5t-65 158.5q0 92 65.5 157t158 65t157 -64.5t64.5 -157zM444 1294q0 49 -36.5 87t-86 38t-86 -38t-36.5 -87t36.5 -86t86 -37t86 37t36.5 86z " />
<glyph unicode="&#x2116;" d="M1919 883q0 -184 -95 -296t-276 -112q-168 0 -258 106.5t-90 278.5q0 182 92 300t271 118q174 0 265 -108.5t91 -286.5zM1753 893q0 102 -47 177t-145 75q-102 0 -148.5 -83t-46.5 -194q0 -106 44 -181t142 -75q201 0 201 281zM1876 180h-633v133h633v-133zM1061 0h-232 l-528 1190v-1190h-172v1427h268l498 -1148v1148h166v-1427z" />
<glyph unicode="&#x2121;" d="M1972 0h-493v1085h143v-946h350v-139zM1337 0h-493v1085h471v-135h-328v-321h268v-135h-268v-355h350v-139zM774 950h-278v-950h-144v950h-278v135h700v-135z" />
<glyph unicode="&#x2122;" horiz-adv-x="1705" d="M1415 909h-119v396l-147 -396h-72l-155 398v-398h-119v559h168l143 -364l133 364h168v-559zM705 1368h-173v-459h-129v459h-172v100h474v-100z" />
<glyph unicode="&#x212b;" horiz-adv-x="1460" d="M975 1743q0 -96 -65.5 -161.5t-161.5 -65.5q-98 0 -164 64.5t-66 162.5q0 96 66.5 162.5t163.5 66.5q94 0 160.5 -67.5t66.5 -161.5zM864 1745q0 45 -35.5 81t-80.5 36q-47 0 -81 -35t-34 -82t33.5 -82t81 -35t82 35t34.5 82zM1444 0h-230l-147 381h-684l-164 -381h-205 l627 1456h211zM1006 549l-271 727l-286 -727h557z" />
<glyph unicode="&#x2153;" horiz-adv-x="1843" d="M1819 209q0 -123 -106.5 -185.5t-239.5 -62.5q-117 0 -213.5 51t-135.5 154l107 41q49 -152 239 -152q106 0 140 23q82 51 82 131q0 29 -10.5 52.5t-28 39.5t-41 27.5t-50 17.5t-55 10t-57.5 5t-54.5 1h-45.5v95q39 0 76.5 -1t79.5 6t71 23q82 51 82 111 q0 74 -53.5 108.5t-130.5 34.5q-72 0 -130.5 -35.5t-82.5 -101.5l-103 35q39 96 127 144t197 48q119 0 209 -57t90 -170q0 -68 -50.5 -120t-119.5 -64v-4q88 -12 147.5 -65.5t59.5 -139.5zM1509 1405l-850 -1405h-149l850 1405h149zM664 561h-639v94h264v621 q-102 -113 -244 -178v104q162 80 268 203h103v-750h248v-94z" />
<glyph unicode="&#x2154;" horiz-adv-x="1843" d="M1817 209q0 -123 -106.5 -185.5t-240.5 -62.5q-117 0 -213 51t-135 154l107 41q49 -152 239 -152q104 0 140 23q82 51 82 131q0 29 -10.5 52.5t-28 39.5t-41 27.5t-50 17.5t-55 10t-57.5 5t-54.5 1h-45.5v95q39 0 76.5 -1t79.5 6t71 23q82 51 82 111q0 74 -53.5 108.5 t-130.5 34.5q-72 0 -130.5 -35.5t-82.5 -101.5l-103 35q39 96 127 144t197 48q119 0 209 -57t90 -170q0 -68 -50.5 -120t-119.5 -64v-4q88 -12 147.5 -65.5t59.5 -139.5zM1507 1405l-850 -1405h-149l850 1405h149zM674 559h-649v96l358 260q166 121 166 248q0 76 -59.5 118 t-139.5 42q-78 0 -144.5 -54.5t-66.5 -129.5l-114 28q27 119 115.5 183.5t213.5 64.5q123 0 220.5 -67.5t97.5 -184.5q0 -176 -191 -303l-303 -205h496v-96z" />
<glyph unicode="&#x215b;" horiz-adv-x="1843" d="M1817 203q0 -119 -104.5 -183.5t-231.5 -64.5q-125 0 -228.5 64.5t-103.5 183.5q0 86 59.5 139t147.5 66v4q-70 12 -120 64t-50 120q0 106 92 166.5t204.5 60.5t205 -60.5t92.5 -166.5q0 -68 -50.5 -120t-119.5 -64v-4q88 -12 147.5 -65.5t59.5 -139.5zM1657 590 q0 66 -53.5 104.5t-121 38.5t-120.5 -39t-53 -104q0 -55 58 -96t115.5 -41t116 41t58.5 96zM1690 203q0 74 -62.5 110.5t-144.5 36.5t-144.5 -37t-62.5 -110q0 -76 60.5 -115t138.5 -39q88 0 151.5 36t63.5 118zM1509 1405l-850 -1405h-149l850 1405h149zM664 561h-639v94 h264v621q-102 -113 -244 -178v104q162 80 268 203h103v-750h248v-94z" />
<glyph unicode="&#x215c;" horiz-adv-x="1843" d="M1817 203q0 -119 -104.5 -183.5t-231.5 -64.5q-125 0 -228.5 64.5t-103.5 183.5q0 86 59.5 139t147.5 66v4q-70 12 -120 64t-50 120q0 106 92 166.5t204.5 60.5t205 -60.5t92.5 -166.5q0 -68 -50.5 -120t-119.5 -64v-4q88 -12 147.5 -65.5t59.5 -139.5zM1657 590 q0 66 -53.5 104.5t-121 38.5t-120.5 -39t-53 -104q0 -55 58 -96t115.5 -41t116 41t58.5 96zM1690 203q0 74 -62.5 110.5t-144.5 36.5t-144.5 -37t-62.5 -110q0 -76 60.5 -115t138.5 -39q88 0 151.5 36t63.5 118zM1509 1405l-850 -1405h-149l850 1405h149zM719 784 q0 -123 -106.5 -185t-239.5 -62q-117 0 -213.5 51t-134.5 153l106 41q49 -152 240 -151q104 0 139 22q82 51 82 131q0 29 -10.5 52.5t-27.5 40t-41 27.5t-50.5 17.5t-55 10.5t-57 5t-54.5 1h-46v94q39 0 77 -1t80 6t70 24q82 51 82 110q0 74 -53 109t-131 35 q-72 0 -130.5 -36t-82.5 -101l-103 34q39 96 127 144.5t197 48.5q119 0 209 -57.5t90 -169.5q0 -68 -50 -120t-120 -65v-4q88 -12 147.5 -65.5t59.5 -139.5z" />
<glyph unicode="&#x215d;" horiz-adv-x="1843" d="M1812 203q0 -119 -104 -183.5t-231 -64.5q-125 0 -228.5 64.5t-103.5 183.5q0 86 59.5 139t147.5 66v4q-70 12 -120 64t-50 120q0 106 92 166.5t204.5 60.5t205 -60.5t92.5 -166.5q0 -68 -50.5 -120t-119.5 -64v-4q88 -12 147 -65.5t59 -139.5zM1653 590 q0 66 -53.5 104.5t-121 38.5t-120.5 -39t-53 -104q0 -55 58 -96t115.5 -41t116 41t58.5 96zM1686 203q0 74 -62.5 110.5t-144.5 36.5t-144.5 -37t-62.5 -110q0 -76 60.5 -115t137.5 -39q88 0 152 36t64 118zM1505 1405l-850 -1405h-149l850 1405h149zM725 834 q0 -145 -114.5 -223.5t-266.5 -78.5q-125 0 -216 54.5t-97 171.5h157q31 -123 183 -123q94 0 148 54t54 149q0 90 -56 133t-150 43q-154 0 -185 -115h-131l23 506h585v-96h-458l-17 -273q102 74 219 74q135 0 228.5 -72.5t93.5 -203.5z" />
<glyph unicode="&#x215e;" horiz-adv-x="1843" d="M1790 203q0 -119 -104.5 -183.5t-231.5 -64.5q-125 0 -228.5 64.5t-103.5 183.5q0 86 59.5 139t147.5 66v4q-70 12 -120 64t-50 120q0 106 92 166.5t205 60.5t205 -60.5t92 -166.5q0 -68 -50 -120t-120 -64v-4q88 -12 147.5 -65.5t59.5 -139.5zM1630 590q0 66 -53 104.5 t-120.5 38.5t-121 -39t-53.5 -104q0 -55 58.5 -96t115.5 -41t115.5 41t58.5 96zM1663 203q0 74 -62.5 110.5t-144.5 36.5t-144.5 -37t-62.5 -110q0 -76 60.5 -115t138.5 -39q88 0 151.5 36t63.5 118zM1483 1405l-850 -1405h-150l850 1405h150zM713 1288l-361 -762h-176 l402 770h-527v109h662v-117z" />
<glyph unicode="&#x2160;" d="M1104 -29h-164v1491h164v-1491z" />
<glyph unicode="&#x2161;" d="M1407 -29h-166v1491h166v-1491zM793 -29h-164v1491h164v-1491z" />
<glyph unicode="&#x2162;" d="M1595 -29h-163v1491h163v-1491zM1100 -29h-164v1491h164v-1491zM602 -29h-164v1491h164v-1491z" />
<glyph unicode="&#x2163;" d="M1759 1462l-483 -1491h-201l-483 1491h164l420 -1304l419 1304h164zM451 -29h-164v1491h164v-1491z" />
<glyph unicode="&#x2164;" d="M1720 1462l-585 -1491h-224l-585 1491h174l528 -1304l518 1304h174z" />
<glyph unicode="&#x2165;" d="M1759 -29h-164v1491h164v-1491zM1454 1462l-483 -1491h-201l-483 1491h164l419 -1304l420 1304h164z" />
<glyph unicode="&#x2166;" d="M1802 -29h-164v1491h164v-1491zM1403 -29h-166v1491h166v-1491zM1165 1462l-358 -1491h-201l-362 1491h164l299 -1294l297 1294h161z" />
<glyph unicode="&#x2167;" d="M1923 -29h-154v1491h154v-1491zM1577 -29h-156v1491h156v-1491zM1229 -29h-156v1491h156v-1491zM1044 1462l-360 -1491h-203l-358 1491h164l295 -1294l299 1294h163z" />
<glyph unicode="&#x2168;" d="M1806 -29h-184l-442 633l-443 -633h-182l516 764l-487 727h186l410 -592l401 592h184l-479 -727zM393 -29h-153v1491h153v-1491z" />
<glyph unicode="&#x2169;" d="M1726 -29h-196l-504 643l-502 -643h-194l585 764l-555 727h195l471 -602l465 602h192l-546 -727z" />
<glyph unicode="&#x2170;" d="M1104 1247h-162v215h162v-215zM1104 -29h-162v1090h162v-1090z" />
<glyph unicode="&#x2171;" d="M1393 1247h-164v215h164v-215zM817 1247h-164v215h164v-215zM1393 -29h-164v1090h164v-1090zM817 -29h-164v1090h164v-1090z" />
<glyph unicode="&#x2172;" d="M1577 1247h-166v215h166v-215zM1104 1247h-162v215h162v-215zM1577 -29h-166v1090h166v-1090zM635 1247h-166v215h166v-215zM1104 -29h-162v1090h162v-1090zM635 -29h-166v1090h166v-1090z" />
<glyph unicode="&#x2173;" d="M430 1247h-164v215h164v-215zM1659 1061l-410 -1090h-213l-407 1090h178l338 -909l336 909h178zM430 -29h-164v1090h164v-1090z" />
<glyph unicode="&#x2174;" d="M1548 1061l-418 -1090h-215l-417 1090h178l348 -909l346 909h178z" />
<glyph unicode="&#x2175;" d="M1698 1247h-162v215h162v-215zM1698 -29h-162v1090h162v-1090zM1417 1061l-407 -1090h-213l-410 1090h178l338 -909l336 909h178z" />
<glyph unicode="&#x2176;" d="M1862 1247h-164v215h164v-215zM1442 1247h-162v215h162v-215zM1862 -29h-164v1090h164v-1090zM1442 -29h-162v1090h162v-1090zM1157 1061l-354 -1090h-215l-359 1090h179l286 -909l287 909h176z" />
<glyph unicode="&#x2177;" d="M1939 1247h-153v215h153v-215zM1581 1247h-154v215h154v-215zM1223 1247h-156v215h156v-215zM1939 -29h-153v1090h153v-1090zM1581 -29h-154v1090h154v-1090zM1223 -29h-156v1090h156v-1090zM932 1061l-316 -1079h-194l-316 1079h168l244 -887l246 887h168z" />
<glyph unicode="&#x2178;" d="M451 1247h-164v215h164v-215zM1698 -29h-185l-356 443l-352 -443h-184l442 570l-399 520h184l309 -402l316 402h184l-402 -520zM451 -29h-164v1090h164v-1090z" />
<glyph unicode="&#x2179;" d="M1573 -29h-184l-367 443l-365 -443h-184l453 570l-410 520h184l322 -402l321 402h187l-412 -520z" />
<glyph unicode="&#x2190;" d="M1905 694h-1436l139 -272l-467 313l467 316l-139 -275h1436v-82z" />
<glyph unicode="&#x2191;" d="M1335 1149l-270 137v-1429h-84v1429l-270 -137l313 465z" />
<glyph unicode="&#x2192;" d="M1905 735l-467 -313l139 272h-1436v82h1436l-139 275z" />
<glyph unicode="&#x2193;" d="M1335 317l-311 -460l-313 460l270 -137v1434h84v-1434z" />
<glyph unicode="&#x2194;" d="M1905 733l-475 -311l149 268h-1112l151 -268l-477 311l477 307l-151 -268h1112l-149 268z" />
<glyph unicode="&#x2195;" d="M1331 324l-311 -471l-305 471l266 -150v1110l-266 -147l305 473l311 -473l-266 147v-1110z" />
<glyph unicode="&#x2196;" d="M1673 135l-53 -53l-1071 1071l-96 -291l-109 549l551 -106l-291 -97z" />
<glyph unicode="&#x2197;" d="M1673 1411l-106 -549l-97 291l-1073 -1071l-53 53l1071 1073l-289 97z" />
<glyph unicode="&#x2198;" d="M1673 82l-547 108l289 97l-1071 1071l53 53l1073 -1071l97 291z" />
<glyph unicode="&#x2199;" d="M1673 1358l-1069 -1071l291 -97l-551 -108l109 549l96 -291l1071 1071z" />
<glyph unicode="&#x21d2;" d="M1872 733l-551 -553l-64 62l246 245h-1227v82h1309l164 164l-164 164h-1309v82h1227l-246 246l64 61z" />
<glyph unicode="&#x21d4;" d="M1905 733l-555 -553l-60 62l246 245h-1024l244 -245l-60 -62l-555 553l555 553l60 -61l-244 -246h1024l-246 246l60 61zM1780 733l-164 164h-1186l-164 -164l164 -164h1186z" />
<glyph unicode="&#x2200;" horiz-adv-x="1304" d="M1311 1473l-549 -1473h-221l-545 1473h205l157 -443h580l156 443h217zM879 860h-459l231 -649z" />
<glyph unicode="&#x2202;" horiz-adv-x="1058" d="M961 752q0 -121 -28 -248t-83 -249t-157.5 -200t-233.5 -78q-158 0 -256.5 109t-98.5 268q0 182 103.5 318.5t279.5 136.5q199 0 269 -188q31 203 30 325q0 260 -145 260q-49 0 -125 -58t-110 -58q-33 0 -58.5 21.5t-25.5 53.5q0 76 81.5 118t163.5 42q109 0 189 -53 t123 -141.5t62.5 -183.5t19.5 -195zM707 494q0 98 -38 169.5t-128 71.5q-72 0 -125.5 -50t-78 -128t-35.5 -148.5t-11 -138.5q0 -100 38 -169.5t128 -69.5q70 0 123 50t78.5 127t37 148.5t11.5 137.5z" />
<glyph unicode="&#x2203;" horiz-adv-x="1308" d="M1151 0h-1067v182h868v496h-786v172h786v440h-850v183h1049v-1473z" />
<glyph unicode="&#x2207;" horiz-adv-x="1349" d="M1292 1456l-604 -1479h-37l-596 1479h1237zM1143 1255h-778l383 -968z" />
<glyph unicode="&#x2208;" horiz-adv-x="1628" d="M1407 0h-594q-248 0 -420 172t-172 420q0 246 173 419t419 173h594v-99h-594q-188 0 -331.5 -129t-157.5 -315h1083v-98h-1083q14 -188 156.5 -316.5t332.5 -128.5h594v-98z" />
<glyph unicode="&#x220b;" horiz-adv-x="1628" d="M1407 592q0 -248 -172 -420t-422 -172h-592v98h592q190 0 333.5 128t158.5 317h-1084v98h1084q-14 188 -159 316t-333 128h-592v99h592q246 0 420 -173t174 -419z" />
<glyph unicode="&#x220f;" horiz-adv-x="1550" d="M1393 -391h-240v1659h-758v-1659h-239v1864h1237v-1864z" />
<glyph unicode="&#x2211;" horiz-adv-x="1380" d="M1339 -391h-1314v149l725 799l-695 739v177h1258v-193h-959l672 -717l-694 -762h1007v-192z" />
<glyph unicode="&#x221a;" horiz-adv-x="1304" d="M1305 1565h-115l-594 -1604h-66l-319 881l-125 -45l-25 80l283 98l256 -709l516 1395h189v-96z" />
<glyph unicode="&#x221d;" d="M1552 262q-68 -31 -129 -31q-100 0 -166.5 71t-121.5 185q-129 -256 -322 -256q-145 0 -231 115t-86 264q0 154 75.5 266.5t221.5 112.5q188 0 305 -250q123 250 297 250q76 0 157 -41v-74q-57 10 -75 11q-57 0 -106.5 -30t-89.5 -88t-61.5 -98t-50.5 -106 q51 -109 119 -168t172 -59q14 0 92 10v-84zM1063 670q-98 190 -279 190q-109 0 -174 -73.5t-65 -182.5q0 -102 58.5 -177t158.5 -75q45 0 88 23.5t70.5 51.5t59.5 80t45 81t38 82z" />
<glyph unicode="&#x221e;" horiz-adv-x="1705" d="M1487 614q0 -156 -77 -272.5t-224 -116.5q-109 0 -181.5 68.5t-140.5 189.5q-63 -119 -138 -190.5t-183 -71.5q-150 0 -236 117t-86 272.5t77 273t224 117.5q109 0 182.5 -71.5t137.5 -192.5q133 268 323 269q145 0 233.5 -120t88.5 -272zM1411 621q0 96 -56.5 165.5 t-150.5 69.5q-53 0 -99 -26.5t-84 -81t-57.5 -91t-48.5 -98.5q96 -178 267 -178q100 0 164.5 69t64.5 171zM793 666q-98 176 -267 176q-102 0 -165.5 -67.5t-63.5 -170.5q0 -94 57.5 -164.5t149.5 -70.5q53 0 99 26.5t84 80.5t57.5 91.5t48.5 98.5z" />
<glyph unicode="&#x2220;" horiz-adv-x="1705" d="M1497 0h-1276l-12 33l895 1276l106 -80l-573 -819q-121 -176 -213 -283q172 8 260 8h813v-135z" />
<glyph unicode="&#x2227;" horiz-adv-x="1705" d="M1401 20h-154l-395 971l-393 -971h-154l483 1178h130z" />
<glyph unicode="&#x2228;" horiz-adv-x="1705" d="M1401 1198l-483 -1178h-130l-483 1178h154l393 -969l395 969h154z" />
<glyph unicode="&#x2229;" horiz-adv-x="1705" d="M1489 0h-143v709q0 244 -128 376t-370 132q-233 0 -359.5 -137.5t-126.5 -372.5v-707h-145v711q0 303 167 472t470 169t469 -169t166 -472v-711z" />
<glyph unicode="&#x222a;" horiz-adv-x="1705" d="M1489 616q0 -303 -166 -471t-469 -168t-470 168t-167 471v711h145v-706q0 -240 126 -374t364 -134q240 0 367 133t127 372v709h143v-711z" />
<glyph unicode="&#x222b;" horiz-adv-x="1067" d="M1018 1401q0 -53 -33 -85t-86 -32q-59 0 -85 31t-36 92q-8 37 -20 37q-102 0 -121 -619q0 -98 -5 -236t-13.5 -269.5t-34 -263.5t-66.5 -218q-98 -207 -291 -207q-74 0 -127 38t-53 110q0 57 35 88t94.5 31t84 -39t30.5 -79t20 -40q18 0 33.5 20.5t27 58.5t20.5 83 t15.5 102t10.5 106.5t6 107.5t3 93t2 74t1 41l4 166v26q2 88 4 142.5t12.5 164t24.5 182.5t45 164t72 146.5t103.5 94t142.5 38.5q74 0 127 -38.5t53 -110.5z" />
<glyph unicode="&#x222c;" horiz-adv-x="1751" d="M1530 1481q0 -104 -92 -105q-84 0 -84 84q0 43 30 70q-25 12 -38 12q-115 0 -115 -186q0 -88 7 -264.5t7 -264.5v-333q0 -788 -307 -789q-150 0 -150 135q0 106 95 107q82 0 82 -90q0 -31 -31 -66q18 -12 39 -12q113 0 112 217q0 82 -6 248t-6 250v333q-2 33 0 75t2 90 t4 100.5t10.5 105.5t18.5 104.5t26.5 97.5t39 86t53 68.5t68.5 45t87 16.5q148 0 148 -135zM963 1481q0 -104 -93 -105q-86 0 -86 84q0 43 33 70q-25 12 -39 12q-115 0 -114 -186q0 -88 7 -264.5t7 -264.5v-333q0 -788 -307 -789q-150 0 -150 135q0 106 94 107q82 0 82 -90 q0 -31 -30 -66q18 -12 39 -12q113 0 112 209q0 84 -6 253t-6 253v333q-2 31 0 73t2 90t4 100.5t10 105.5t17.5 104.5t27 98.5t39 87t53 68.5t68.5 45t86 16.5q150 0 150 -135z" />
<glyph unicode="&#x222e;" horiz-adv-x="1257" d="M1036 659.5q0 -147.5 -91 -257t-236 -142.5q-6 -63 -11.5 -105t-18.5 -116t-34.5 -125t-52.5 -103.5t-78 -79t-106 -26.5q-150 0 -150 135q0 106 94 107q82 0 82 -90q0 -31 -31 -66q18 -12 39 -12q113 0 113 217q0 31 -4 123t-2 141q-145 35 -236.5 143.5t-91.5 255.5 q0 150 90 259.5t238 140.5q6 61 9 91t13.5 99.5t22.5 109.5t35.5 95t52.5 86t73 53.5t97 22.5q147 0 147 -135q0 -104 -92 -105q-86 0 -86 86q0 41 33 68q-25 12 -39 12q-115 0 -115 -203q0 -96 9 -280q145 -31 236 -141.5t91 -258zM963 659q0 246 -252 324q4 -35 4 -156 q0 -408 -2 -489q250 77 250 321zM547 338q-12 61 -6 321.5t4 321.5q-248 -74 -248 -322q0 -243 250 -321z" />
<glyph unicode="&#x2234;" horiz-adv-x="1628" d="M913 987h-198v197h198v-197zM1407 0h-199v197h199v-197zM420 0h-199v197h199v-197z" />
<glyph unicode="&#x2235;" horiz-adv-x="1628" d="M1407 987h-199v197h199v-197zM420 987h-199v197h199v-197zM913 0h-198v197h198v-197z" />
<glyph unicode="&#x223d;" horiz-adv-x="1628" d="M1407 594q0 -123 -86 -210t-209 -87q-92 0 -165 51t-120 124t-90 144.5t-97 123t-120 51.5q-82 0 -140 -57.5t-58 -141.5q0 -88 60 -143.5t150 -55.5q23 0 50 10l30 -92q-51 -14 -88 -14q-125 0 -214 85t-89 210q0 127 86 212t213 85q66 0 127.5 -36t103.5 -90t85 -114.5 t69 -109.5q35 -53 54.5 -78t58.5 -45.5t92 -20.5q80 0 139.5 58.5t59.5 138.5t-57.5 139.5t-137.5 59.5q-29 0 -70 -19l-28 94q76 23 112 23q113 0 196 -90t83 -205z" />
<glyph unicode="&#x2252;" horiz-adv-x="1628" d="M1407 727h-1186v100h1186v-100zM420 1024h-199v197h199v-197zM1407 -35h-199v195h199v-195zM1407 358h-1186v99h1186v-99z" />
<glyph unicode="&#x2260;" horiz-adv-x="1705" d="M1452 344h-709l-249 -317l-105 84l184 233h-319v135h408l204 262h-612v136h702l252 317l105 -82l-187 -235h326v-136h-416l-205 -262h621v-135z" />
<glyph unicode="&#x2261;" horiz-adv-x="1705" d="M1452 907h-1198v135h1198v-135zM1452 541h-1198v137h1198v-137zM1452 178h-1198v135h1198v-135z" />
<glyph unicode="&#x2264;" horiz-adv-x="1705" d="M1444 295l-1182 395v121l1182 395v-147l-936 -309l936 -306v-149zM1446 23h-1184v139h1184v-139z" />
<glyph unicode="&#x2265;" horiz-adv-x="1705" d="M1446 690l-1184 -395v149l938 306l-938 309v147l1184 -395v-121zM1446 23h-1184v139h1184v-139z" />
<glyph unicode="&#x226a;" d="M1948 0l-1184 592l1184 592v-111l-963 -481l963 -481v-111zM1286 0l-1186 592l1186 592v-111l-962 -481l962 -481v-111z" />
<glyph unicode="&#x226b;" d="M1948 592l-1184 -592v111l960 483l-960 479v111zM1286 592l-1186 -592v111l963 483l-963 479v111z" />
<glyph unicode="&#x2282;" horiz-adv-x="1705" d="M1520 0h-693q-303 0 -472 166t-169 469t169 469t472 166h693v-137h-689q-233 0 -363 -129.5t-130 -362.5q0 -240 126 -371t365 -131h691v-139z" />
<glyph unicode="&#x2283;" horiz-adv-x="1705" d="M1520 635q0 -303 -168 -469t-471 -166h-693v139h689q240 0 366.5 131t126.5 371q0 233 -130 362.5t-363 129.5h-689v137h693q303 0 471 -166t168 -469z" />
<glyph unicode="&#x2286;" horiz-adv-x="1705" d="M1520 174h-693q-303 0 -472 166t-169 469t169 469t472 166h693v-139h-689q-233 0 -363 -128t-130 -362q0 -240 127 -372t364 -132h691v-137zM1520 -139h-1334v129h1334v-129z" />
<glyph unicode="&#x2287;" horiz-adv-x="1705" d="M1520 809q0 -303 -168 -469t-471 -166h-693v137h689q240 0 366.5 132t126.5 372q0 233 -130 361.5t-363 128.5h-689v139h693q303 0 471 -166t168 -469zM1520 -139h-1332v129h1332v-129z" />
<glyph unicode="&#x2299;" horiz-adv-x="1628" d="M1432 592q0 -258 -180.5 -436.5t-438.5 -178.5t-437 178.5t-179 436.5t179 437t437 179q256 0 437.5 -180t181.5 -436zM1331 592q0 217 -150.5 367.5t-367.5 150.5t-366.5 -150.5t-149.5 -367.5q0 -215 150.5 -366.5t365.5 -151.5q217 0 367.5 150.5t150.5 367.5z M1049 592q0 -98 -69 -166t-167 -68t-165.5 68t-67.5 166t67.5 166.5t165.5 68.5q96 0 166 -69.5t70 -165.5zM950 592q0 55 -41 95t-96 40t-95 -40t-40 -95t40 -95t95 -40t96 40t41 95z" />
<glyph unicode="&#x22a5;" horiz-adv-x="1705" d="M1452 0h-1198v139h528v1082h142v-1082h528v-139z" />
<glyph unicode="&#x2312;" d="M1874 1356l-23 -27q-387 223 -829 223q-420 0 -770 -190q-4 -2 -25.5 -15.5t-31.5 -17.5l-23 27q176 145 402.5 222t459.5 77q441 0 840 -299z" />
<glyph unicode="&#x2460;" d="M1987 733q0 -254 -132 -481q-276 -479 -831 -479q-258 0 -481 129q-483 279 -484 831q0 252 127 481q270 481 838 482q401 0 682 -281t281 -682zM1872 733q0 369 -239.5 614.5t-608.5 245.5q-223 0 -432 -114q-418 -225 -418 -746q0 -371 239.5 -615.5t610.5 -244.5 t609.5 244.5t238.5 615.5zM1124 59h-153v1004h-357v94q354 0 379 268v23h131v-1389z" />
<glyph unicode="&#x2461;" d="M1987 733q0 -254 -132 -481q-276 -479 -831 -479q-258 0 -481 129q-483 279 -484 831q0 252 127 481q270 481 838 482q401 0 682 -281t281 -682zM1872 731q0 373 -238.5 617.5t-611.5 244.5q-221 0 -430 -114q-418 -225 -418 -748q0 -371 238.5 -614.5t609.5 -243.5 q373 0 611.5 242.5t238.5 615.5zM1448 1057q0 -53 -12.5 -99.5t-40 -87.5t-52 -69.5t-72.5 -63.5t-75 -52t-86 -52t-80 -47q-307 -190 -340 -383h752v-144h-910v29q0 109 21 186q57 209 414 431q72 47 142.5 84.5t123.5 106.5t53 155q0 272 -276 272q-145 0 -233.5 -88 t-86.5 -234h-153v46q0 197 134 314.5t333 117.5q195 0 319.5 -114.5t124.5 -307.5z" />
<glyph unicode="&#x2462;" d="M1987 733q0 -254 -132 -481q-276 -479 -831 -479q-258 0 -481 129q-483 279 -484 831q0 252 127 481q270 481 838 482q401 0 682 -281t281 -682zM1872 733q0 371 -238.5 615.5t-609.5 244.5q-223 0 -432 -114q-418 -225 -418 -746q0 -371 239.5 -615.5t610.5 -244.5 t609.5 244.5t238.5 615.5zM1528 471q0 -440 -518 -440q-246 0 -364 115.5t-118 361.5h152q0 -172 78 -248t250 -76q358 0 358 291q0 250 -410 254v129q66 0 109 3t94 17.5t82 39t51.5 71.5t20.5 113q0 221 -291 221q-166 0 -236.5 -76t-70.5 -241h-156v59q0 195 140.5 303.5 t340.5 108.5q436 0 437 -373q0 -223 -195 -287q246 -72 246 -346z" />
<glyph unicode="&#x2463;" d="M1987 733q0 -254 -132 -481q-276 -479 -831 -479q-258 0 -481 129q-483 279 -484 831q0 252 127 481q270 481 838 482q401 0 682 -281t281 -682zM1872 731q0 371 -238.5 616.5t-607.5 245.5q-221 0 -434 -114q-418 -225 -418 -748q0 -369 241.5 -613.5t610.5 -244.5 q367 0 606.5 245.5t239.5 612.5zM1524 406h-207v-347h-156v347h-729v180l701 862h184v-899h207v-143zM1161 549v723l-583 -723h583z" />
<glyph unicode="&#x2464;" d="M1987 733q0 -254 -132 -481q-276 -479 -831 -479q-258 0 -481 129q-483 279 -484 831q0 252 127 481q270 481 838 482q401 0 682 -281t281 -682zM1872 733q0 373 -238.5 616.5t-609.5 243.5q-219 0 -432 -114q-418 -223 -418 -746q0 -371 239.5 -615.5t610.5 -244.5 t609.5 244.5t238.5 615.5zM1526 516q0 -231 -149.5 -358t-385.5 -127q-219 0 -334.5 94t-115.5 307h153q8 -248 312 -248q356 0 356 323.5t-350 323.5q-207 0 -303 -157h-125l118 774h744v-143h-631l-70 -424q129 102 302 102q207 0 343 -130t136 -337z" />
<glyph unicode="&#x2465;" d="M1987 733q0 -254 -132 -481q-276 -479 -831 -479q-258 0 -481 129q-483 279 -484 831q0 252 127 481q270 481 838 482q401 0 682 -281t281 -682zM1872 733q0 371 -238.5 615.5t-609.5 244.5q-223 0 -432 -114q-418 -225 -418 -746q0 -371 239.5 -615.5t610.5 -244.5 t609.5 244.5t238.5 615.5zM1516 514q0 -223 -127 -353t-349 -130q-504 0 -503 694q0 750 512 750q399 0 440 -383h-158q-31 229 -274 229q-330 0 -359 -530q121 176 367 176q201 0 326 -126t125 -327zM1352 496q0 315 -314 315q-150 0 -233.5 -84t-83.5 -233 q0 -309 326 -310q152 0 228.5 80t76.5 232z" />
<glyph unicode="&#x2466;" d="M1987 733q0 -254 -132 -481q-276 -479 -831 -479q-258 0 -481 129q-483 279 -484 831q0 252 127 481q270 481 838 482q401 0 682 -281t281 -682zM1872 733q0 371 -238.5 615.5t-609.5 244.5q-223 0 -432 -114q-418 -225 -418 -746q0 -371 239.5 -615.5t610.5 -244.5 t609.5 244.5t238.5 615.5zM1473 1200q-229 -326 -379 -626t-201 -615h-166q61 367 195.5 634t392.5 607h-811v143h969v-143z" />
<glyph unicode="&#x2467;" d="M1987 733q0 -254 -132 -481q-276 -479 -831 -479q-258 0 -481 129q-483 279 -484 831q0 252 127 481q270 481 838 482q401 0 682 -281t281 -682zM1872 733q0 371 -238.5 615.5t-609.5 244.5q-223 0 -432 -114q-418 -225 -418 -746q0 -371 239.5 -615.5t610.5 -244.5 t609.5 244.5t238.5 615.5zM1516 459q0 -201 -139.5 -314.5t-344.5 -113.5q-217 0 -356 108.5t-139 319.5q0 244 227 354q-184 70 -184 291q0 180 132 276.5t320 96.5q440 0 441 -375q0 -98 -46.5 -166t-138.5 -123q228 -123 228 -354zM1309 1104q0 219 -283 219 q-117 0 -200 -54.5t-83 -164.5q0 -209 275 -209q291 0 291 209zM1352 471q0 256 -332 256q-143 0 -231.5 -71.5t-88.5 -213.5q0 -258 324 -258q328 0 328 287z" />
<glyph unicode="&#x2468;" d="M1987 733q0 -254 -132 -481q-276 -479 -831 -479q-258 0 -481 129q-483 279 -484 831q0 252 127 481q270 481 838 482q401 0 682 -281t281 -682zM1872 733q0 371 -238.5 615.5t-609.5 244.5q-223 0 -432 -114q-418 -225 -418 -746q0 -371 239.5 -615.5t610.5 -244.5 t609.5 244.5t238.5 615.5zM1513 784q0 -752 -499 -751q-401 0 -447 385h156q14 -115 87 -173.5t191 -58.5q336 0 355 533q-109 -176 -361 -176q-201 0 -328.5 125t-127.5 325q0 219 129 352.5t346 133.5q499 -1 499 -695zM1333 1016q0 156 -85 231.5t-240 75.5 q-152 0 -229 -87t-77 -241q0 -299 314 -299q317 1 317 320z" />
<glyph unicode="&#x2469;" d="M1987 733q0 -254 -132 -481q-276 -479 -831 -479q-258 0 -481 129q-483 279 -484 831q0 252 127 481q270 481 838 482q401 0 682 -281t281 -682zM1872 733q0 371 -238.5 615.5t-609.5 244.5q-223 0 -432 -114q-418 -225 -418 -746q0 -371 239.5 -615.5t610.5 -244.5 t609.5 244.5t238.5 615.5zM1667 760q0 -764 -391 -764q-385 0 -385 706q0 727 393 728q96 0 169 -46.5t113 -115t63.5 -164.5t30.5 -176t7 -168zM1503 735q0 541 -223 541q-55 0 -96 -28.5t-64.5 -86t-38 -106.5t-19.5 -130t-6 -116t-1 -98q0 -563 217 -564q231 0 231 588z M723 18h-156v1004h-295v96q147 0 238.5 73t83.5 216h129v-1389z" />
<glyph unicode="&#x246a;" d="M1987 733q0 -254 -132 -481q-276 -479 -831 -479q-258 0 -481 129q-483 279 -484 831q0 252 127 481q270 481 838 482q401 0 682 -281t281 -682zM1872 733q0 369 -239.5 614.5t-608.5 245.5q-223 0 -432 -114q-418 -225 -418 -746q0 -371 239.5 -615.5t610.5 -244.5 t609.5 244.5t238.5 615.5zM1401 18h-156v1004h-297v96q152 0 238 71t84 218h131v-1389zM805 18h-156v1004h-295v96q152 0 238 71t84 218h129v-1389z" />
<glyph unicode="&#x246b;" d="M1987 733q0 -254 -132 -481q-276 -479 -831 -479q-258 0 -481 129q-483 279 -484 831q0 252 127 481q270 481 838 482q401 0 682 -281t281 -682zM1872 733q0 371 -238.5 615.5t-609.5 244.5q-223 0 -432 -114q-418 -225 -418 -746q0 -371 239.5 -615.5t610.5 -244.5 t609.5 244.5t238.5 615.5zM1561 1036q0 -115 -51.5 -209t-128 -161.5t-153.5 -132t-138.5 -153.5t-73.5 -196h522v-145h-682v29q0 117 29.5 216t78 167.5t105.5 128t114.5 109.5t105.5 99.5t78 109.5t30 130q0 100 -43 189.5t-131 89.5q-68 0 -119 -57.5t-71.5 -131.5 t-16.5 -137h-156v43q0 176 97.5 304t267.5 128q178 0 257 -116t79 -304zM741 39h-153v1003h-295v97q150 0 237.5 71.5t85.5 216.5h125v-1388z" />
<glyph unicode="&#x246c;" d="M1987 733q0 -254 -132 -481q-276 -479 -831 -479q-258 0 -481 129q-483 279 -484 831q0 252 127 481q270 481 838 482q401 0 682 -281t281 -682zM1872 733q0 371 -238.5 615.5t-609.5 244.5q-223 0 -432 -114q-418 -225 -418 -746q0 -371 239.5 -615.5t610.5 -244.5 t609.5 244.5t238.5 615.5zM1659 430q0 -440 -445 -440q-217 0 -305 125t-88 350h158q0 -68 7 -117t27.5 -100t65.5 -79t115 -28q299 0 299 291q0 250 -291 254v129q131 0 184.5 55.5t53.5 188.5q0 221 -211 221q-131 0 -175 -86t-44 -231h-154v59q0 176 104.5 294t278.5 118 q365 0 365 -373q0 -229 -134 -287q189 -70 189 -344zM741 18h-153v1004h-295v96q150 0 237.5 72t85.5 217h125v-1389z" />
<glyph unicode="&#x246d;" d="M1987 733q0 -254 -132 -481q-276 -479 -831 -479q-258 0 -481 129q-483 279 -484 831q0 252 127 481q270 481 838 482q401 0 682 -281t281 -682zM1872 733q0 371 -238.5 615.5t-609.5 244.5q-223 0 -432 -114q-418 -225 -418 -746q0 -371 239.5 -615.5t610.5 -244.5 t609.5 244.5t238.5 615.5zM1677 365h-207v-347h-153v347h-494v180l463 862h184v-899h207v-143zM1311 508v682l-344 -682h344zM741 18h-153v1004h-295v96q150 0 237.5 72t85.5 217h125v-1389z" />
<glyph unicode="&#x246e;" d="M1987 733q0 -254 -132 -481q-276 -479 -831 -479q-258 0 -481 129q-483 279 -484 831q0 252 127 481q270 481 838 482q401 0 682 -281t281 -682zM1872 733q0 371 -238.5 615.5t-609.5 244.5q-223 0 -432 -114q-418 -225 -418 -746q0 -371 239.5 -615.5t610.5 -244.5 t609.5 244.5t238.5 615.5zM1589 500q0 -211 -106.5 -351.5t-308.5 -140.5q-344 0 -340 400h155q4 -246 187 -246q250 0 249 330q0 313 -231 313q-135 0 -190 -156h-123l114 774h514v-147h-399l-68 -422q100 104 222 104q115 0 191.5 -74.5t105 -172.5t28.5 -211zM741 18 h-153v1004h-295v96q150 0 237.5 72t85.5 217h125v-1389z" />
<glyph unicode="&#x2474;" d="M2036 721q0 -487 -357 -975h-118q301 461 301 973q0 485 -295 967h112q357 -457 357 -965zM1165 -29h-164v1055h-372v102q373 0 401 281v23h135v-1461zM487 1686q-303 -467 -303 -975q0 -487 295 -965h-112q-356 457 -357 965q0 479 357 975h120z" />
<glyph unicode="&#x2475;" d="M2036 721q0 -487 -357 -975h-118q301 461 301 973q0 485 -295 967h112q357 -457 357 -965zM1522 1016q0 -96 -41 -174t-104.5 -127t-142.5 -99.5t-153 -89.5q-322 -190 -356 -403h791v-152h-961v29q0 119 23 197q59 215 436 450l203 127q131 84 131 236q0 139 -74 213.5 t-213 74.5q-156 0 -247 -91t-89 -246h-166v47q0 205 143.5 329.5t352.5 124.5q207 0 337 -120.5t130 -325.5zM487 1686q-303 -467 -303 -975q0 -487 295 -965h-112q-356 457 -357 965q0 479 357 975h120z" />
<glyph unicode="&#x2476;" d="M2036 721q0 -487 -357 -975h-118q301 461 301 973q0 485 -295 967h112q357 -457 357 -965zM1552 406q0 -463 -548 -463q-256 0 -382 121.5t-126 377.5h163q0 -178 82 -258t260 -80q377 0 377 306q0 262 -430 266v135q68 0 114 3t99 17.5t85 41t53.5 75.5t21.5 119 q0 231 -305 231q-172 0 -246 -79.5t-74 -251.5h-164v61q0 207 146.5 320.5t357.5 113.5q457 0 457 -393q0 -117 -46 -185.5t-155 -115.5q260 -75 260 -362zM487 1686q-303 -467 -303 -975q0 -487 295 -965h-112q-356 457 -357 965q0 479 357 975h120z" />
<glyph unicode="&#x2477;" d="M2036 721q0 -487 -357 -975h-118q301 461 301 973q0 485 -295 967h112q357 -457 357 -965zM1602 332h-220v-361h-163v361h-768v192l735 908h196v-947h220v-153zM1219 485v762l-615 -762h615zM487 1686q-303 -467 -303 -975q0 -487 295 -965h-112q-356 457 -357 965 q0 479 357 975h120z" />
<glyph unicode="&#x2478;" d="M2036 721q0 -487 -357 -975h-118q301 461 301 973q0 485 -295 967h112q357 -457 357 -965zM1546 446q0 -240 -159.5 -371.5t-403.5 -131.5q-477 0 -477 419h164q8 -258 325 -258q377 0 377 338q0 336 -368 336q-223 0 -320 -162h-129l123 816h784v-154h-665l-72 -447 q127 111 303 111q225 0 371.5 -136.5t146.5 -359.5zM487 1686q-303 -467 -303 -975q0 -487 295 -965h-112q-356 457 -357 965q0 479 357 975h120z" />
<glyph unicode="&#x2479;" d="M2036 721q0 -487 -357 -975h-118q301 461 301 973q0 485 -295 967h112q357 -457 357 -965zM1540 451q0 -229 -133 -368.5t-360 -139.5q-541 0 -541 727q0 121 12 224t49 210.5t95.5 183.5t158 124t228.5 48q205 0 323.5 -100t134.5 -303h-161q-14 117 -87 178t-192 61 q-362 0 -389 -557q131 186 385 187q211 0 344 -132t133 -343zM1366 432q0 330 -332 330q-152 0 -242 -91t-90 -243q0 -150 95.5 -237t246.5 -87q158 0 240 84t82 244zM487 1686q-303 -467 -303 -975q0 -487 295 -965h-112q-356 457 -357 965q0 479 357 975h120z" />
<glyph unicode="&#x247a;" d="M2036 721q0 -487 -357 -975h-118q301 461 301 973q0 485 -295 967h112q357 -457 357 -965zM1546 1276q-242 -346 -399.5 -660.5t-212.5 -644.5h-170q61 389 202.5 672t413.5 633h-852v154h1018v-154zM487 1686q-303 -467 -303 -975q0 -487 295 -965h-112 q-356 457 -357 965q0 479 357 975h120z" />
<glyph unicode="&#x247b;" d="M2036 721q0 -487 -357 -975h-118q301 461 301 973q0 485 -295 967h112q357 -457 357 -965zM1542 391q0 -215 -150.5 -331.5t-371.5 -116.5q-219 0 -366.5 117.5t-147.5 330.5q0 256 239 373q-190 88 -190 297q0 199 135 300t340 101q213 0 338 -94t125 -301 q0 -104 -48 -173t-147 -130q244 -131 244 -373zM1319 1067q0 231 -295 231q-121 0 -209 -58t-88 -173q0 -217 289 -217q303 0 303 217zM1368 406q0 143 -95 206.5t-247 63.5q-147 0 -246.5 -74t-99.5 -217q0 -281 344 -281q160 0 252 73t92 229zM487 1686 q-303 -467 -303 -975q0 -487 295 -965h-112q-356 457 -357 965q0 479 357 975h120z" />
<glyph unicode="&#x247c;" d="M2036 721q0 -487 -357 -975h-118q301 461 301 973q0 485 -295 967h112q357 -457 357 -965zM1538 731q0 -141 -24.5 -269t-81 -250t-165 -195.5t-257.5 -73.5q-424 0 -469 403h161q14 -123 92 -182.5t203 -59.5q354 0 373 558q-117 -184 -379 -185q-217 0 -350 130 t-133 345q0 229 137 369.5t365 140.5q528 0 528 -731zM1346 975q0 162 -89.5 242.5t-252.5 80.5q-156 0 -238 -92t-82 -250q0 -315 330 -315q332 0 332 334zM487 1686q-303 -467 -303 -975q0 -487 295 -965h-112q-356 457 -357 965q0 479 357 975h120z" />
<glyph unicode="&#x247d;" d="M2036 721q0 -487 -357 -975h-118q301 461 301 973q0 485 -295 967h112q357 -457 357 -965zM1749 750q0 -803 -414 -803q-104 0 -182 53t-119 129t-65.5 184.5t-31.5 194.5t-7 182q0 766 416 766q102 0 177.5 -49t117.5 -121t68 -173t33 -185t7 -178zM1577 725 q0 567 -238 567q-236 0 -235 -594q0 -590 227 -589q246 0 246 616zM745 -29h-163v1055h-312v102q158 0 250 74t90 230h135v-1461zM487 1686q-303 -467 -303 -975q0 -487 295 -965h-112q-356 457 -357 965q0 479 357 975h120z" />
<glyph unicode="&#x247e;" d="M2036 721q0 -487 -357 -975h-118q301 461 301 973q0 485 -295 967h112q357 -457 357 -965zM1536 -29h-164v1055h-313v102q158 0 250 74t90 230h137v-1461zM827 -29h-163v1055h-312v102q160 0 251 74t89 230h135v-1461zM487 1686q-303 -467 -303 -975q0 -487 295 -965 h-112q-356 457 -357 965q0 479 357 975h120z" />
<glyph unicode="&#x247f;" d="M2036 721q0 -487 -357 -975h-118q301 461 301 973q0 485 -295 967h112q357 -457 357 -965zM1686 1016q0 -123 -57.5 -221.5t-141.5 -167t-169 -135t-153.5 -160.5t-83.5 -209h598v-152h-766v29q0 94 21.5 178t49.5 141.5t86 126t98 106.5t121 110.5t122 111.5 q100 98 100 236q0 289 -204 288q-106 0 -171 -113.5t-55 -223.5h-163v47q0 184 102 319t280 135q182 0 284 -129t102 -317zM745 -29h-163v1055h-312v102q158 0 250 74t90 230h135v-1461zM487 1686q-303 -467 -303 -975q0 -487 295 -965h-112q-356 457 -357 965 q0 479 357 975h120z" />
<glyph unicode="&#x2480;" d="M2036 721q0 -487 -357 -975h-118q301 461 301 973q0 485 -295 967h112q357 -457 357 -965zM1737 406q0 -229 -119 -346t-348 -117q-227 0 -320.5 131t-93.5 368h162q0 -70 8 -123t30.5 -105t71 -81t119.5 -29q315 0 316 306q0 262 -310 266v135q141 -2 195.5 56.5 t54.5 199.5q0 111 -57 171t-166 60q-74 0 -121 -26.5t-68.5 -78.5t-28.5 -103.5t-7 -122.5h-164v61q0 188 108.5 311t294.5 123q383 0 383 -393q0 -221 -139 -301q199 -73 199 -362zM745 -29h-163v1055h-312v102q158 0 250 74t90 230h135v-1461zM487 1686 q-303 -467 -303 -975q0 -487 295 -965h-112q-356 457 -357 965q0 479 357 975h120z" />
<glyph unicode="&#x2481;" d="M2036 721q0 -487 -357 -975h-118q301 461 301 973q0 485 -295 967h112q357 -457 357 -965zM1765 332h-219v-361h-164v361h-538v192l506 908h196v-947h219v-153zM1382 485v762l-385 -762h385zM745 -29h-163v1055h-312v102q158 0 250 74t90 230h135v-1461zM487 1686 q-303 -467 -303 -975q0 -487 295 -965h-112q-356 457 -357 965q0 479 357 975h120z" />
<glyph unicode="&#x2482;" d="M2036 721q0 -487 -357 -975h-118q301 461 301 973q0 485 -295 967h112q357 -457 357 -965zM1737 449q0 -217 -119 -361.5t-332 -144.5q-195 0 -302 112.5t-107 306.5h161q10 -258 262 -258q139 0 201 95.5t62 242.5q0 338 -265 338q-168 0 -243 -164h-131l123 816h606 v-154h-488l-71 -447q104 111 241 111q193 0 297.5 -147t104.5 -346zM745 -29h-163v1055h-312v102q158 0 250 74t90 230h135v-1461zM487 1686q-303 -467 -303 -975q0 -487 295 -965h-112q-356 457 -357 965q0 479 357 975h120z" />
<glyph unicode="&#x249c;" d="M2036 721q0 -487 -357 -975h-118q301 461 301 973q0 485 -295 967h112q357 -457 357 -965zM1522 201h-41h-54.5t-46 3t-47 11t-31 23.5t-22.5 40t0 59.5q-154 -147 -356 -148q-338 0 -338 304q0 37 6 69.5t18.5 58t28.5 46t36.5 36t45 28.5t51.5 21.5t55.5 16.5t58 12 t59.5 9.5t61 9.5q117 16 208 39q18 4 33 7t24 14t9 32q0 115 -66.5 156t-187.5 41q-115 0 -205 -52.5t-82 -158.5h-131v24q0 104 65.5 177t156 102.5t192.5 29.5q389 0 389 -309v-512q0 -39 15.5 -54t40 -14t55.5 1v-123zM1280 526v215q-143 -41 -233 -55 q-66 -14 -136.5 -21.5t-126 -50.5t-55.5 -120q0 -180 221 -181q92 0 211 65.5t119 147.5zM487 1686q-303 -467 -303 -975q0 -487 295 -965h-112q-356 457 -357 965q0 479 357 975h120z" />
<glyph unicode="&#x249d;" d="M2036 721q0 -459 -357 -975h-118q301 471 301 973q0 494 -295 967h112q357 -473 357 -965zM1468 528q0 -518 -395 -518q-164 0 -264 135v-102h-135v1343h135v-481q100 158 289 158q370 0 370 -535zM1323 518q0 412 -252 412q-76 0 -130 -37t-82 -99.5t-39 -126 t-11 -135.5q0 -389 256 -389q258 0 258 375zM487 1686q-303 -467 -303 -975q0 -487 295 -965h-112q-356 457 -357 965q0 479 357 975h120z" />
<glyph unicode="&#x249e;" d="M2036 721q0 -487 -357 -975h-118q301 461 301 973q0 485 -295 967h112q357 -457 357 -965zM1411 547q-41 -375 -420 -375q-432 0 -432 533q0 520 451 520q381 0 401 -371h-143q-12 119 -85 178.5t-194 59.5q-285 0 -284 -390q0 -399 296 -399q117 0 183.5 63.5 t83.5 180.5h143zM487 1686q-303 -467 -303 -975q0 -487 295 -965h-112q-356 457 -357 965q0 479 357 975h120z" />
<glyph unicode="&#x249f;" d="M2036 721q0 -487 -357 -975h-118q301 461 301 973q0 485 -295 967h112q357 -457 357 -965zM1321 43h-135v121q-104 -154 -281 -154q-109 0 -184.5 44t-115.5 121t-56.5 162t-16.5 187q0 94 20.5 184.5t63.5 172.5t120 131t179 49q160 0 271 -129v454h135v-1343zM1188 555 q0 373 -242 373q-145 0 -208.5 -117t-63.5 -276q0 -391 252 -392q262 0 262 412zM487 1686q-303 -467 -303 -975q0 -487 295 -965h-112q-356 457 -357 965q0 479 357 975h120z" />
<glyph unicode="&#x24a0;" d="M2036 721q0 -487 -357 -975h-118q301 461 301 973q0 485 -295 967h112q357 -457 357 -965zM1427 524q-20 -156 -141 -254t-280 -98q-442 0 -443 543q0 510 438 510q109 0 187 -31t124 -79t72.5 -126t34.5 -154.5t8 -179.5h-718v-43q0 -147 74.5 -228t220.5 -81 q113 0 185.5 56.5t96.5 164.5h141zM1286 778v29q0 137 -70.5 211t-207.5 74q-293 0 -299 -314h577zM487 1686q-303 -467 -303 -975q0 -487 295 -965h-112q-356 457 -357 965q0 479 357 975h120z" />
<glyph unicode="&#x24a1;" d="M2036 721q0 -487 -357 -975h-118q301 461 301 973q0 485 -295 967h112q357 -457 357 -965zM1212 864h-182v-848h-133v848h-160v121h160q0 27 -1 81t-1 81q0 59 7 100t27.5 67.5t40 41t61.5 21.5t74 8t95 1v-122q-55 0 -77.5 -2t-49 -14.5t-35 -40t-8.5 -79.5v-143h182 v-121zM487 1686q-303 -467 -303 -975q0 -487 295 -965h-112q-356 457 -357 965q0 479 357 975h120z" />
<glyph unicode="&#x24a2;" d="M2036 721q0 -487 -357 -975h-118q301 461 301 973q0 485 -295 967h112q357 -457 357 -965zM1376 571q0 -109 -16.5 -199.5t-57 -176.5t-121.5 -135.5t-196 -49.5q-297 0 -360 312h143q43 -178 213 -179q260 0 260 394q-94 -150 -285 -150q-106 0 -181 47t-112.5 128 t-53 167t-15.5 186q0 133 34 244t124 191t227 80q158 0 262 -154v131h135v-836zM1243 924q0 373 -254 372q-98 0 -157.5 -63.5t-77 -141t-17.5 -173.5q0 -395 248 -396q258 1 258 402zM487 1686q-303 -467 -303 -975q0 -487 295 -965h-112q-356 457 -357 965q0 479 357 975 h120z" />
<glyph unicode="&#x24a3;" d="M2036 721q0 -487 -357 -975h-118q301 461 301 973q0 485 -295 967h112q357 -457 357 -965zM1386 41h-135v598q0 287 -217 287q-260 0 -260 -287v-598h-133v1345h133v-464q123 137 279 137q334 0 333 -428v-590zM487 1686q-303 -467 -303 -975q0 -487 295 -965h-112 q-356 457 -357 965q0 479 357 975h120z" />
<glyph unicode="&#x24a4;" d="M2036 721q0 -487 -357 -975h-118q301 461 301 973q0 485 -295 967h112q357 -457 357 -965zM1090 1192h-132v194h132v-194zM1090 43h-132v985h132v-985zM487 1686q-303 -467 -303 -975q0 -487 295 -965h-112q-356 457 -357 965q0 479 357 975h120z" />
<glyph unicode="&#x24a5;" d="M2036 721q0 -487 -357 -975h-118q301 461 301 973q0 485 -295 967h112q357 -457 357 -965zM1090 1253h-132v195h132v-195zM1090 369q0 -162 -55.5 -246t-209.5 -84h-71v133q125 0 164.5 36t39.5 161v696h132v-696zM487 1686q-303 -467 -303 -975q0 -487 295 -965h-112 q-356 457 -357 965q0 479 357 975h120z" />
<glyph unicode="&#x24a6;" d="M2036 721q0 -487 -357 -975h-118q301 461 301 973q0 485 -295 967h112q357 -457 357 -965zM1423 1042l-379 -352l342 -649h-145l-299 580l-168 -158v-422h-133v1345h133v-757l477 413h172zM487 1686q-303 -467 -303 -975q0 -487 295 -965h-112q-356 457 -357 965 q0 479 357 975h120z" />
<glyph unicode="&#x24a7;" d="M2036 721q0 -487 -357 -975h-118q301 461 301 973q0 485 -295 967h112q357 -457 357 -965zM1090 41h-132v1345h132v-1345zM487 1686q-303 -467 -303 -975q0 -487 295 -965h-112q-356 457 -357 965q0 479 357 975h120z" />
<glyph unicode="&#x24a8;" d="M2036 721q0 -487 -357 -975h-118q301 461 301 973q0 485 -295 967h112q357 -457 357 -965zM1649 174h-136v641q0 115 -44 177.5t-154 62.5q-133 0 -177 -77t-44 -220v-584h-131v633q0 248 -183 248q-229 0 -229 -314v-567h-135v979h135v-123q88 158 266 158q82 0 133 -33 t115 -106q115 139 270 139q170 0 242 -93.5t72 -267.5v-653zM487 1686q-303 -467 -303 -975q0 -487 295 -965h-112q-356 457 -357 965q0 479 357 975h120z" />
<glyph unicode="&#x24a9;" d="M2036 721q0 -487 -357 -975h-118q301 461 301 973q0 485 -295 967h112q357 -457 357 -965zM1407 174h-135v553q0 328 -221 328q-133 0 -199 -81t-66 -218v-582h-135v979h135v-123q133 158 308 158q313 0 313 -447v-567zM487 1686q-303 -467 -303 -975q0 -487 295 -965 h-112q-356 457 -357 965q0 479 357 975h120z" />
<glyph unicode="&#x24aa;" d="M2036 721q0 -487 -357 -975h-118q301 461 301 973q0 485 -295 967h112q357 -457 357 -965zM1462 696q0 -221 -112.5 -371.5t-325.5 -150.5q-215 0 -326.5 151.5t-111.5 374.5q0 219 113.5 372t324.5 153q221 0 329.5 -150t108.5 -379zM1319 694q0 397 -293 398 q-154 0 -225.5 -114t-71.5 -276q0 -395 285 -395q305 0 305 387zM487 1686q-303 -467 -303 -975q0 -487 295 -965h-112q-356 457 -357 965q0 479 357 975h120z" />
<glyph unicode="&#x24ab;" d="M2036 721q0 -487 -357 -975h-118q301 461 301 973q0 485 -295 967h112q357 -457 357 -965zM1475 893q0 -524 -377 -524q-178 0 -287 149v-475h-133v1343h133v-116q121 154 295 153q369 0 369 -530zM1329 889q0 401 -246 401q-102 0 -165.5 -65.5t-84 -147.5t-20.5 -182 q0 -393 254 -393q262 0 262 387zM487 1686q-303 -467 -303 -975q0 -487 295 -965h-112q-356 457 -357 965q0 479 357 975h120z" />
<glyph unicode="&#x24ac;" d="M2036 721q0 -487 -357 -975h-118q301 461 301 973q0 485 -295 967h112q357 -457 357 -965zM1325 43h-133v473q-39 -74 -117 -111.5t-168 -37.5q-375 0 -375 548q0 506 381 506q43 0 76 -6t58.5 -19.5t48 -31.5t45 -42t51.5 -52v116h133v-1343zM1190 909q0 379 -254 379 q-96 0 -158.5 -63.5t-83 -144.5t-20.5 -175q0 -406 256 -405q260 -1 260 409zM487 1686q-303 -467 -303 -975q0 -487 295 -965h-112q-356 457 -357 965q0 479 357 975h120z" />
<glyph unicode="&#x24ad;" d="M2036 721q0 -487 -357 -975h-118q301 461 301 973q0 485 -295 967h112q357 -457 357 -965zM1348 1024q-135 0 -215 -48t-121 -173q-18 -53 -21 -96v-179v-354h-131v987h131v-180q68 166 279 166h78v-123zM487 1686q-303 -467 -303 -975q0 -487 295 -965h-112 q-356 457 -357 965q0 479 357 975h120z" />
<glyph unicode="&#x24ae;" d="M2036 721q0 -487 -357 -975h-118q301 461 301 973q0 485 -295 967h112q357 -457 357 -965zM1372 489q0 -317 -381 -317q-184 0 -268 83t-84 269h143q0 -119 58.5 -170t179.5 -51q92 0 150.5 43t58.5 133q0 63 -57.5 106.5t-140.5 69t-166 55t-140 85t-57 139.5 q0 137 104.5 216t247.5 79q322 0 346 -316h-145q-14 182 -213 183q-197 0 -197 -154q0 -47 42 -81t103.5 -51t135 -43t135 -54.5t103.5 -86t42 -137.5zM487 1686q-303 -467 -303 -975q0 -487 295 -965h-112q-356 457 -357 965q0 479 357 975h120z" />
<glyph unicode="&#x24af;" d="M2036 721q0 -487 -357 -975h-118q301 461 301 973q0 485 -295 967h112q357 -457 357 -965zM1249 10h-123q-68 0 -111.5 29t-62 82t-23.5 100t-5 115v538h-160v123h160v258h135v-258h178v-123h-178v-577q0 -113 38 -140.5t152 -25.5v-121zM487 1686q-303 -467 -303 -975 q0 -487 295 -965h-112q-356 457 -357 965q0 479 357 975h120z" />
<glyph unicode="&#x24b0;" d="M2036 721q0 -487 -357 -975h-118q301 461 301 973q0 485 -295 967h112q357 -457 357 -965zM1384 205h-135v121q-133 -152 -323 -152q-82 0 -140.5 26.5t-88 63.5t-46 102.5t-19.5 117t-3 134.5v570h131v-553q0 -72 1 -100.5t11 -84t30.5 -79t62.5 -44t106 -20.5 q137 0 207.5 79t70.5 218v584h135v-983zM487 1686q-303 -467 -303 -975q0 -487 295 -965h-112q-356 457 -357 965q0 479 357 975h120z" />
<glyph unicode="&#x24b1;" d="M2036 721q0 -487 -357 -975h-118q301 461 301 973q0 485 -295 967h112q357 -457 357 -965zM1417 1153l-338 -979h-174l-340 979h146l280 -815l285 815h141zM487 1686q-303 -467 -303 -975q0 -487 295 -965h-112q-356 457 -357 965q0 479 357 975h120z" />
<glyph unicode="&#x24b2;" d="M2036 721q0 -487 -357 -975h-118q301 461 301 973q0 485 -295 967h112q357 -457 357 -965zM1653 1153l-273 -979h-178l-168 795l-170 -795h-176l-274 979h143l217 -811l174 811h170l174 -811l217 811h144zM487 1686q-303 -467 -303 -975q0 -487 295 -965h-112 q-356 457 -357 965q0 479 357 975h120z" />
<glyph unicode="&#x24b3;" d="M2036 721q0 -487 -357 -975h-118q301 461 301 973q0 485 -295 967h112q357 -457 357 -965zM1464 174h-164l-288 393l-293 -393h-164l373 512l-326 467h164l246 -352l248 352h161l-327 -467zM487 1686q-303 -467 -303 -975q0 -487 295 -965h-112q-356 457 -357 965 q0 479 357 975h120z" />
<glyph unicode="&#x24b4;" d="M2036 721q0 -487 -357 -975h-118q301 461 301 973q0 485 -295 967h112q357 -457 357 -965zM1446 1333l-336 -1026q-23 -70 -45.5 -121t-60 -109.5t-92 -90t-121.5 -31.5q-43 0 -99 10v133q12 0 37 -1t37 -1q160 0 201 250l-367 987h143l299 -815l261 815h143zM487 1686 q-303 -467 -303 -975q0 -487 295 -965h-112q-356 457 -357 965q0 479 357 975h120z" />
<glyph unicode="&#x24b5;" d="M2036 721q0 -487 -357 -975h-118q301 461 301 973q0 485 -295 967h112q357 -457 357 -965zM1348 176h-676v123l506 741h-488v123h641v-102l-506 -762h523v-123zM487 1686q-303 -467 -303 -975q0 -487 295 -965h-112q-356 457 -357 965q0 479 357 975h120z" />
<glyph unicode="&#x24d0;" d="M1987 733q0 -254 -132 -481q-276 -479 -831 -479q-258 0 -481 129q-483 279 -484 831q0 252 127 481q270 481 838 482q401 0 682 -281t281 -682zM1872 733q0 371 -238.5 615.5t-609.5 244.5q-223 0 -432 -114q-418 -225 -418 -746q0 -371 239.5 -615.5t610.5 -244.5 t609.5 244.5t238.5 615.5zM1528 279h-129q-68 0 -92.5 34.5t-20.5 104.5q-145 -158 -358 -158q-324 0 -324 313q0 119 70.5 186.5t171 84t200 22.5t170 22.5t70.5 63.5q0 53 -21.5 88t-64.5 49.5t-80 18.5t-94 4q-250 0 -264 -184h-144q2 317 422 317q377 0 377 -299v-450 q0 -66 20.5 -80.5t90.5 -14.5v-122zM1286 621v182q-41 -33 -137 -46.5t-182 -15.5t-154 -39.5t-68 -117.5q0 -190 228 -191q145 0 246 105q67 68 67 123z" />
<glyph unicode="&#x24d1;" d="M1987 733q0 -254 -132 -481q-276 -479 -831 -479q-258 0 -481 129q-483 279 -484 831q0 252 127 481q270 481 838 482q401 0 682 -281t281 -682zM1872 733q0 371 -238.5 615.5t-609.5 244.5q-223 0 -432 -114q-418 -225 -418 -746q0 -371 239.5 -615.5t610.5 -244.5 t609.5 244.5t238.5 615.5zM1493 629q0 -502 -381 -502q-156 0 -278 129v-96h-132v1274h132v-457q125 150 284 149q375 1 375 -497zM1350 629q0 365 -252 364q-94 0 -155.5 -57t-85 -135t-23.5 -170q0 -371 262 -371q254 0 254 369z" />
<glyph unicode="&#x24d2;" d="M1987 733q0 -254 -132 -481q-276 -479 -831 -479q-258 0 -481 129q-483 279 -484 831q0 252 127 481q270 481 838 482q401 0 682 -281t281 -682zM1872 733q0 371 -238.5 615.5t-609.5 244.5q-223 0 -432 -114q-418 -225 -418 -746q0 -371 239.5 -615.5t610.5 -244.5 t609.5 244.5t238.5 615.5zM1446 596q-47 -356 -404 -356q-449 0 -448 501q0 496 438 496q375 0 414 -350h-143q-45 219 -263 219q-303 0 -303 -356q0 -377 299 -377q223 0 267 223h143z" />
<glyph unicode="&#x24d3;" d="M1987 733q0 -254 -132 -481q-276 -479 -831 -479q-258 0 -481 129q-483 279 -484 831q0 252 127 481q270 481 838 482q401 0 682 -281t281 -682zM1872 733q0 371 -238.5 615.5t-609.5 244.5q-223 0 -432 -114q-418 -225 -418 -746q0 -371 239.5 -615.5t610.5 -244.5 t609.5 244.5t238.5 615.5zM1350 160h-131v112q-86 -145 -283 -145q-375 0 -375 483q0 514 395 514q156 0 263 -123v433h131v-1274zM1221 631q0 360 -258 360q-96 0 -157 -59.5t-80 -136t-19 -170.5q0 -365 260 -365q254 0 254 371z" />
<glyph unicode="&#x24d4;" d="M1987 733q0 -254 -132 -481q-276 -479 -831 -479q-258 0 -481 129q-483 279 -484 831q0 252 127 481q270 481 838 482q401 0 682 -281t281 -682zM1872 733q0 371 -238.5 615.5t-609.5 244.5q-223 0 -432 -114q-418 -225 -418 -746q0 -371 239.5 -615.5t610.5 -244.5 t609.5 244.5t238.5 615.5zM1462 573q-57 -334 -434 -333q-422 0 -422 508q0 489 432 489q129 0 216 -40t131.5 -118t60.5 -168t16 -215h-714v-34q0 -289 294 -289q236 0 277 200h143zM1319 819q-10 287 -281 287q-291 0 -290 -287h571z" />
<glyph unicode="&#x24d5;" d="M1987 733q0 -254 -132 -481q-276 -479 -831 -479q-258 0 -481 129q-483 279 -484 831q0 252 127 481q270 481 838 482q401 0 682 -281t281 -682zM1872 733q0 371 -238.5 615.5t-609.5 244.5q-223 0 -432 -114q-418 -225 -418 -746q0 -371 239.5 -615.5t610.5 -244.5 t609.5 244.5t238.5 615.5zM1239 1286q-53 0 -88 -11t-50.5 -33.5t-22.5 -53.5t-7 -69v-81h160v-123h-160v-784h-131v784h-158v123h158q0 49 1 80t6 81t18.5 81t35 63.5t57.5 49t85 16.5h96v-123z" />
<glyph unicode="&#x24d6;" d="M1987 733q0 -254 -132 -481q-276 -479 -831 -479q-258 0 -481 129q-483 279 -484 831q0 252 127 481q270 481 838 482q401 0 682 -281t281 -682zM1872 733q0 371 -238.5 615.5t-609.5 244.5q-223 0 -432 -114q-418 -225 -418 -746q0 -371 239.5 -615.5t610.5 -244.5 t609.5 244.5t238.5 615.5zM1386 565q0 -98 -7 -167.5t-30.5 -143.5t-64.5 -119t-114.5 -73.5t-174.5 -28.5q-336 0 -350 295h146q16 -162 192 -162q84 0 139.5 28.5t82 84t36.5 114t10 139.5q-129 -139 -284 -139q-121 0 -206 76t-120 181.5t-35 221.5q0 119 35 229.5 t120 194.5t208 84q147 0 282 -145v125h135v-795zM1253 903q0 344 -254 344q-72 0 -124 -33.5t-78.5 -91t-37.5 -118t-11 -127.5q0 -350 256 -351q249 0 249 377z" />
<glyph unicode="&#x24d7;" d="M1987 733q0 -254 -132 -481q-276 -479 -831 -479q-258 0 -481 129q-483 279 -484 831q0 252 127 481q270 481 838 482q401 0 682 -281t281 -682zM1872 733q0 371 -238.5 615.5t-609.5 244.5q-223 0 -432 -114q-418 -225 -418 -746q0 -371 239.5 -615.5t610.5 -244.5 t609.5 244.5t238.5 615.5zM1427 131h-131v569q0 264 -206 265q-133 0 -203 -81t-70 -216v-537h-131v1278h131v-442q109 131 279 131q184 0 257.5 -105.5t73.5 -300.5v-561z" />
<glyph unicode="&#x24d8;" d="M1987 733q0 -254 -132 -481q-276 -479 -831 -479q-258 0 -481 129q-483 279 -484 831q0 252 127 481q270 481 838 482q401 0 682 -281t281 -682zM1872 733q0 371 -238.5 615.5t-609.5 244.5q-223 0 -432 -114q-418 -225 -418 -746q0 -371 239.5 -615.5t610.5 -244.5 t609.5 244.5t238.5 615.5zM1090 1204h-132v185h132v-185zM1090 113h-132v921h132v-921z" />
<glyph unicode="&#x24d9;" d="M1987 733q0 -254 -132 -481q-276 -479 -831 -479q-258 0 -481 129q-483 279 -484 831q0 252 127 481q270 481 838 482q401 0 682 -281t281 -682zM1872 733q0 371 -238.5 615.5t-609.5 244.5q-223 0 -432 -114q-418 -225 -418 -746q0 -371 239.5 -615.5t610.5 -244.5 t609.5 244.5t238.5 615.5zM1124 1221h-135v174h135v-174zM1124 274q0 -221 -243 -221h-95v133q123 0 163 36t40 155v655h135v-758z" />
<glyph unicode="&#x24da;" d="M1987 733q0 -254 -132 -481q-276 -479 -831 -479q-258 0 -481 129q-483 279 -484 831q0 252 127 481q270 481 838 482q401 0 682 -281t281 -682zM1872 733q0 371 -238.5 615.5t-609.5 244.5q-223 0 -432 -114q-418 -225 -418 -746q0 -371 239.5 -615.5t610.5 -244.5 t609.5 244.5t238.5 615.5zM1468 123h-155l-297 545l-178 -154v-391h-131v1276h131v-711l432 367h176l-336 -301z" />
<glyph unicode="&#x24db;" d="M1987 733q0 -254 -132 -481q-276 -479 -831 -479q-258 0 -481 129q-483 279 -484 831q0 252 127 481q270 481 838 482q401 0 682 -281t281 -682zM1872 733q0 371 -238.5 615.5t-609.5 244.5q-223 0 -432 -114q-418 -225 -418 -746q0 -371 239.5 -615.5t610.5 -244.5 t609.5 244.5t238.5 615.5zM1090 113h-132v1276h132v-1276z" />
<glyph unicode="&#x24dc;" d="M1987 733q0 -254 -132 -481q-276 -479 -831 -479q-258 0 -481 129q-483 279 -484 831q0 252 127 481q270 481 838 482q401 0 682 -281t281 -682zM1872 733q0 371 -238.5 615.5t-609.5 244.5q-223 0 -432 -114q-418 -225 -418 -746q0 -371 239.5 -615.5t610.5 -244.5 t609.5 244.5t238.5 615.5zM1659 236h-135v630q0 201 -181 201q-246 0 -245 -274v-557h-131v600q0 231 -181 231q-121 0 -174 -81t-53 -210v-540h-131v933h131v-110q102 141 252 141q154 0 252 -133q127 133 297 133q299 0 299 -321v-643z" />
<glyph unicode="&#x24dd;" d="M1987 733q0 -254 -132 -481q-276 -479 -831 -479q-258 0 -481 129q-483 279 -484 831q0 252 127 481q270 481 838 482q401 0 682 -281t281 -682zM1872 733q0 371 -238.5 615.5t-609.5 244.5q-223 0 -432 -114q-418 -225 -418 -746q0 -371 239.5 -615.5t610.5 -244.5 t609.5 244.5t238.5 615.5zM1401 236h-135v526q0 57 -2 92t-13.5 80t-32 70.5t-60.5 44t-95 18.5q-283 0 -283 -276v-555h-135v933h135v-122q113 154 289 153q332 0 332 -424v-540z" />
<glyph unicode="&#x24de;" d="M1987 733q0 -254 -132 -481q-276 -479 -831 -479q-258 0 -481 129q-483 279 -484 831q0 252 127 481q270 481 838 482q401 0 682 -281t281 -682zM1872 733q0 371 -238.5 615.5t-609.5 244.5q-223 0 -432 -114q-418 -225 -418 -746q0 -371 239.5 -615.5t610.5 -244.5 t609.5 244.5t238.5 615.5zM1462 729q0 -498 -438 -498t-438 488q0 233 105.5 372.5t332.5 139.5q225 0 331.5 -136.5t106.5 -365.5zM1319 745q0 352 -283 353q-156 0 -231.5 -107.5t-75.5 -269.5t70.5 -259t224.5 -97q295 -1 295 380z" />
<glyph unicode="&#x24df;" d="M1987 733q0 -254 -132 -481q-276 -479 -831 -479q-258 0 -481 129q-483 279 -484 831q0 252 127 481q270 481 838 482q401 0 682 -281t281 -682zM1872 733q0 371 -238.5 615.5t-609.5 244.5q-223 0 -432 -114q-418 -225 -418 -746q0 -371 239.5 -615.5t610.5 -244.5 t609.5 244.5t238.5 615.5zM1499 926q0 -510 -395 -510q-172 0 -266 141v-451h-131v1276h131v-110q141 141 292 141q129 0 216.5 -74.5t120 -180t32.5 -232.5zM1356 940q0 342 -246 342q-137 0 -203.5 -106.5t-66.5 -251.5q0 -375 266 -375q250 0 250 391z" />
<glyph unicode="&#x24e0;" d="M1987 733q0 -254 -132 -481q-276 -479 -831 -479q-258 0 -481 129q-483 279 -484 831q0 252 127 481q270 481 838 482q401 0 682 -281t281 -682zM1872 733q0 371 -238.5 615.5t-609.5 244.5q-223 0 -432 -114q-418 -225 -418 -746q0 -371 239.5 -615.5t610.5 -244.5 t609.5 244.5t238.5 615.5zM1335 106h-131v467q-88 -141 -266 -141q-111 0 -191.5 42t-122.5 118t-61.5 163t-19.5 193q0 197 97 341.5t284 144.5q176 0 280 -144v92h131v-1276zM1202 936q0 365 -256 364q-260 0 -260 -356q0 -379 250 -379q266 0 266 371z" />
<glyph unicode="&#x24e1;" d="M1987 733q0 -254 -132 -481q-276 -479 -831 -479q-258 0 -481 129q-483 279 -484 831q0 252 127 481q270 481 838 482q401 0 682 -281t281 -682zM1872 733q0 371 -238.5 615.5t-609.5 244.5q-223 0 -432 -114q-418 -225 -418 -746q0 -371 239.5 -615.5t610.5 -244.5 t609.5 244.5t238.5 615.5zM1358 1036q-158 0 -242 -66.5t-84 -219.5v-514h-135v933h135v-168q66 90 139.5 129t186.5 39v-133z" />
<glyph unicode="&#x24e2;" d="M1987 733q0 -254 -132 -481q-276 -479 -831 -479q-258 0 -481 129q-483 279 -484 831q0 252 127 481q270 481 838 482q401 0 682 -281t281 -682zM1872 733q0 371 -238.5 615.5t-609.5 244.5q-223 0 -432 -114q-418 -225 -418 -746q0 -371 239.5 -615.5t610.5 -244.5 t609.5 244.5t238.5 615.5zM1409 535q0 -293 -354 -293q-188 0 -282.5 74.5t-94.5 258.5h133q0 -111 61.5 -155.5t176.5 -44.5q217 0 217 151q0 100 -111 140q-31 10 -107.5 31.5t-131 40t-116 50t-94 78.5t-32.5 109q0 131 108.5 204.5t245.5 73.5q344 0 379 -299h-145 q-27 166 -246 166q-199 0 -199 -139q0 -78 121 -117l274 -86q197 -61 197 -243z" />
<glyph unicode="&#x24e3;" d="M1987 733q0 -254 -132 -481q-276 -479 -831 -479q-258 0 -481 129q-483 279 -484 831q0 252 127 481q270 481 838 482q401 0 682 -281t281 -682zM1872 733q0 371 -238.5 615.5t-609.5 244.5q-223 0 -432 -114q-418 -225 -418 -746q0 -371 239.5 -615.5t610.5 -244.5 t609.5 244.5t238.5 615.5zM1253 131h-39q-74 0 -120.5 4t-80.5 22.5t-50.5 34t-24.5 60.5t-9 79t-1 111v17v487h-174v121h174v248h135v-248h190v-121h-190v-612q0 -43 35 -62.5t78 -16.5t77 1v-125z" />
<glyph unicode="&#x24e4;" d="M1987 733q0 -254 -132 -481q-276 -479 -831 -479q-258 0 -481 129q-483 279 -484 831q0 252 127 481q270 481 838 482q401 0 682 -281t281 -682zM1872 733q0 371 -238.5 615.5t-609.5 244.5q-223 0 -432 -114q-418 -225 -418 -746q0 -371 239.5 -615.5t610.5 -244.5 t609.5 244.5t238.5 615.5zM1399 236h-135v114q-125 -145 -332 -145q-80 0 -136.5 24.5t-86 59.5t-45 97.5t-18.5 111.5t-3 131v540h135v-528q0 -55 1 -74.5t5 -66.5t15.5 -66.5t31 -46.5t53.5 -37t81 -10q299 0 299 315v514h135v-933z" />
<glyph unicode="&#x24e5;" d="M1987 733q0 -254 -132 -481q-276 -479 -831 -479q-258 0 -481 129q-483 279 -484 831q0 252 127 481q270 481 838 482q401 0 682 -281t281 -682zM1872 733q0 371 -238.5 615.5t-609.5 244.5q-223 0 -432 -114q-418 -225 -418 -746q0 -371 239.5 -615.5t610.5 -244.5 t609.5 244.5t238.5 615.5zM1460 1169l-340 -933h-174l-338 933h144l282 -778l283 778h143z" />
<glyph unicode="&#x24e6;" d="M1987 733q0 -254 -132 -481q-276 -479 -831 -479q-258 0 -481 129q-483 279 -484 831q0 252 127 481q270 481 838 482q401 0 682 -281t281 -682zM1872 733q0 371 -238.5 615.5t-609.5 244.5q-223 0 -432 -114q-418 -225 -418 -746q0 -371 239.5 -615.5t610.5 -244.5 t609.5 244.5t238.5 615.5zM1653 1169l-273 -933h-174l-172 776l-174 -776h-172l-274 933h133l227 -776l172 776h174l172 -776l228 776h133z" />
<glyph unicode="&#x24e7;" d="M1987 733q0 -254 -132 -481q-276 -479 -831 -479q-258 0 -481 129q-483 279 -484 831q0 252 127 481q270 481 838 482q401 0 682 -281t281 -682zM1872 733q0 371 -238.5 615.5t-609.5 244.5q-223 0 -432 -114q-418 -225 -418 -746q0 -371 239.5 -615.5t610.5 -244.5 t609.5 244.5t238.5 615.5zM1483 236h-154l-297 380l-295 -380h-153l370 489l-329 444h151l256 -344l258 344h154l-334 -444z" />
<glyph unicode="&#x24e8;" d="M1987 733q0 -254 -132 -481q-276 -479 -831 -479q-258 0 -481 129q-483 279 -484 831q0 252 127 481q270 481 838 482q401 0 682 -281t281 -682zM1872 733q0 371 -238.5 615.5t-609.5 244.5q-223 0 -432 -114q-418 -225 -418 -746q0 -371 239.5 -615.5t610.5 -244.5 t609.5 244.5t238.5 615.5zM1464 1360l-348 -981q-16 -59 -39.5 -118.5t-49.5 -108t-78 -79t-124 -30.5q-51 0 -114 14v125q61 -14 108 -14q117 0 174 240l-375 952h144l299 -774l262 774h141z" />
<glyph unicode="&#x24e9;" d="M1987 733q0 -254 -132 -481q-276 -479 -831 -479q-258 0 -481 129q-483 279 -484 831q0 252 127 481q270 481 838 482q401 0 682 -281t281 -682zM1872 733q0 371 -238.5 615.5t-609.5 244.5q-223 0 -432 -114q-418 -225 -418 -746q0 -371 239.5 -615.5t610.5 -244.5 t609.5 244.5t238.5 615.5zM1409 236h-725v106l522 705h-501v122h677v-104l-524 -707h551v-122z" />
<glyph unicode="&#x2592;" d="M1946 1352h-306v307h306v-307zM1434 1352h-306v307h306v-307zM1946 840h-306v307h306v-307zM1434 840h-306v307h306v-307zM1946 328h-306v307h306v-307zM922 1348h-306v307h306v-307zM1946 -180h-306v303h306v-303zM1434 328h-306v307h306v-307zM410 1348h-306v307h306 v-307zM922 836h-306v307h306v-307zM1434 -180h-306v303h306v-303zM410 836h-306v307h306v-307zM922 324h-306v307h306v-307zM922 -184h-306v303h306v-303zM410 324h-306v307h306v-307zM410 -184h-306v303h306v-303z" />
<glyph unicode="&#x25a0;" d="M1841 -82h-1636v1634h1636v-1634z" />
<glyph unicode="&#x25a1;" d="M1841 -82h-1636v1641h1636v-1641zM1759 0v1477h-1472v-1477h1472z" />
<glyph unicode="&#x25a3;" d="M1841 -82h-1636v1641h1636v-1641zM1759 0v1477h-1472v-1477h1472zM1556 199h-1067v1073h1067v-1073z" />
<glyph unicode="&#x25a4;" d="M2048 1511h-2048v82h2048v-82zM2048 1102h-2048v82h2048v-82zM2048 692h-2048v82h2048v-82zM2048 283h-2048v82h2048v-82zM2048 -125h-2048v84h2048v-84z" />
<glyph unicode="&#x25a5;" d="M1884 -287h-82v2044h82v-2044zM1475 -287h-82v2044h82v-2044zM1065 -287h-84v2044h84v-2044zM653 -287h-82v2044h82v-2044zM244 -287h-82v2044h82v-2044z" />
<glyph unicode="&#x25a6;" d="M2048 -287h-2048v80h326v326h-326v82h326v327h-326v82h326v328h-326v82h326v328h-326v82h326v327h82v-327h327v327h82v-327h330v327h82v-327h327v327h82v-327h328v327h82v-2044zM1966 1020v328h-328v-328h328zM1556 1020v328h-327v-328h327zM1966 610v328h-328v-328h328z M1556 610v328h-327v-328h327zM1966 201v327h-328v-327h328zM1147 1020v328h-330v-328h330zM1966 -207v326h-328v-326h328zM1556 201v327h-327v-327h327zM1147 610v328h-330v-328h330zM735 1020v328h-327v-328h327zM1556 -207v326h-327v-326h327zM1147 201v327h-330v-327h330 zM735 610v328h-327v-328h327zM1147 -207v326h-330v-326h330zM735 201v327h-327v-327h327zM735 -207v326h-327v-326h327z" />
<glyph unicode="&#x25a7;" d="M2048 1706l-51 51h51v-51zM2048 1020l-737 737h100l637 -635v-102zM2048 344l-1413 1413h100l1313 -1311v-102zM2048 -287h-51l-1997 1993v51h49l1999 -1993v-51zM1411 -287h-100l-1311 1307v102zM735 -287h-100l-635 631v102zM49 -287h-49v51z" />
<glyph unicode="&#x25a8;" d="M2048 -287h-51l51 51v-51zM2048 1706l-1999 -1993h-49v51l1997 1993h51v-51zM2048 1020l-1313 -1307h-100l1413 1409v-102zM2048 344l-637 -631h-100l737 733v-102zM49 1757l-49 -51v51h49zM735 1757l-735 -737v102l635 635h100zM1411 1757l-1411 -1413v102l1311 1311 h100z" />
<glyph unicode="&#x25a9;" d="M2048 1696l-61 61h61v-61zM2048 -287h-61l-121 125l-129 -125h-107l185 174l-289 287l-289 -287l174 -174h-100l-127 125l-127 -125h-105l183 174l-291 287l-289 -287l180 -174h-102l-129 125l-123 -125h-109l181 174l-289 287l-164 -168v98l113 119l-113 117v102 l164 -166l289 289l-289 291l-164 -166v105l113 110l-113 115v104l164 -166l289 289l-289 291l-164 -166v103l113 112l-113 115v55h45l119 -117l117 117h100l-168 -170l291 -289l291 289l-168 170h98l119 -117l119 117h102l-168 -170l287 -289l291 289l-168 170h102l117 -117 l119 117h100l-168 -170l289 -289l182 183v-101l-131 -133l131 -131v-102l-182 182l-289 -291l289 -289l182 179v-105l-131 -125l131 -123v-102l-182 174l-289 -291l289 -282l182 163v-98l-131 -119l131 -118v-56zM1815 1247l-289 291l-289 -291l289 -289zM1133 1247 l-289 291l-289 -291l289 -289zM1815 565l-289 291l-289 -291l289 -289zM1475 905l-291 291l-287 -291l287 -289zM1475 223l-291 291l-287 -291l287 -282zM1135 565l-291 291l-289 -291l289 -289zM795 905l-291 291l-291 -291l291 -289zM795 223l-291 291l-291 -291l291 -282 zM55 -287h-55v49z" />
<glyph unicode="&#x25b2;" d="M1843 -82h-1640l821 1634z" />
<glyph unicode="&#x25b3;" d="M1843 -82h-1640l821 1634zM1733 -10l-709 1401l-711 -1401h1420z" />
<glyph unicode="&#x25b6;" d="M1659 733l-1333 -815v1665z" />
<glyph unicode="&#x25b7;" d="M1663 733l-1337 -815v1665zM1520 733l-1112 709v-1385z" />
<glyph unicode="&#x25bc;" d="M1843 1552l-819 -1634l-821 1634h1640z" />
<glyph unicode="&#x25bd;" d="M1843 1552l-819 -1634l-821 1634h1640zM1733 1481h-1420l711 -1405z" />
<glyph unicode="&#x25c0;" d="M1720 -82l-1333 815l1333 850v-1665z" />
<glyph unicode="&#x25c1;" d="M1724 -82l-1337 815l1337 850v-1665zM1642 57v1385l-1110 -709z" />
<glyph unicode="&#x25c6;" d="M1985 733l-961 -956l-963 956l963 961z" />
<glyph unicode="&#x25c7;" d="M1985 733l-961 -956l-963 956l963 961zM1882 733l-858 858l-860 -858l860 -856z" />
<glyph unicode="&#x25c8;" d="M1985 733l-961 -956l-963 956l963 961zM1882 733l-858 858l-860 -858l860 -856zM1657 733l-633 -633l-635 633l635 633z" />
<glyph unicode="&#x25cb;" d="M1944 733q0 -393 -263.5 -655t-656.5 -262q-246 0 -463 123q-459 258 -459 794q0 248 121 461q260 461 801 461q231 0 461 -123q459 -246 459 -799zM1862 733q0 221 -113 420q-240 420 -725 420q-211 0 -420 -113q-420 -225 -420 -727q0 -354 243 -594.5t597 -240.5 q358 0 598 238.5t240 596.5z" />
<glyph unicode="&#x25ce;" d="M1944 733q0 -393 -263.5 -655t-656.5 -262q-246 0 -463 123q-459 258 -459 794q0 248 121 461q260 461 801 461q231 0 461 -123q459 -246 459 -799zM1862 733q0 221 -113 420q-240 420 -725 420q-211 0 -420 -113q-420 -225 -420 -727q0 -354 243 -594.5t597 -240.5 q358 0 598 238.5t240 596.5zM1622 733q0 -154 -82 -297q-168 -299 -516 -299q-254 0 -427 171t-173 425q0 252 174 425t426 173q145 0 299 -82q299 -158 299 -516zM1540 733q0 217 -149.5 366.5t-366.5 149.5q-131 0 -260 -69q-258 -137 -258 -447q0 -219 149.5 -367.5 t368.5 -148.5q215 0 365.5 150.5t150.5 365.5z" />
<glyph unicode="&#x25cf;" d="M1944 733q0 -393 -263.5 -655t-656.5 -262q-246 0 -463 123q-459 258 -459 794q0 248 121 461q260 461 801 461q231 0 461 -123q459 -246 459 -799z" />
<glyph unicode="&#x25d0;" d="M1944 731q0 -391 -264.5 -653t-655.5 -262q-246 0 -463 123q-459 258 -459 792q0 250 121 463q260 461 801 461q231 0 461 -123q459 -246 459 -801zM1862 729q0 358 -241 603t-597 245v-1686l43 -6q176 0 375 115q420 244 420 729z" />
<glyph unicode="&#x25d1;" d="M1944 731q0 -391 -264.5 -653t-655.5 -262q-246 0 -463 123q-459 258 -459 792q0 250 121 463q260 461 801 461q231 0 461 -123q459 -246 459 -801zM1024 -109v1686q-227 0 -422 -113q-418 -246 -418 -735q0 -483 420 -729q199 -115 373 -115q8 0 15 1t16.5 3t15.5 2z " />
<glyph unicode="&#x25fc;" horiz-adv-x="1044" d="M0 1044h1044v-1044h-1044v1044z" />
<glyph unicode="&#x2605;" d="M1921 915l-553 -405l209 -649l-551 399l-551 -389l205 639l-553 405h686l213 658l211 -658h684z" />
<glyph unicode="&#x2606;" d="M1921 913l-553 -403l209 -649l-551 399l-551 -389l205 639l-553 403h686l213 658l211 -658h684zM1692 842h-502l-164 499l-164 -499h-497l403 -297l-158 -492l416 301l414 -301l-158 492z" />
<glyph unicode="&#x260e;" d="M1884 825q0 -92 -61 -92q-88 0 -247 46t-159 110q0 6 23.5 53t23.5 62q0 18 -13 35.5t-32.5 27.5t-41 20.5t-36.5 14.5q-8 -25 -8 -76q0 -61 15.5 -117.5t55.5 -117t62.5 -91t86 -100.5t77.5 -86q37 -43 52.5 -82t23.5 -96t18 -92q6 -25 15.5 -46.5t12.5 -30.5t5 -30.5 t2 -58.5q0 -31 -39 -31h-1364q-63 0 -63 33q0 51 9 84t26 78q8 25 17 71.5t11 59.5q16 66 60.5 126t93.5 108t96 103.5t79 140.5t32 191q0 37 -2 56q-113 -37 -113 -101q0 -12 19.5 -56t19.5 -58.5t-31 -40.5q-133 -109 -350 -109q-57 0 -76.5 16.5t-19.5 71.5 q0 496 862 496q858 0 858 -492zM1239 958v203q-164 -27 -227 -26q-57 0 -199 26v-198q119 -41 203 -41q76 -1 223 36zM1370 508q0 141 -98 245.5t-240 104.5q-154 0 -254 -100.5t-100 -253.5q0 -147 100.5 -244.5t249.5 -97.5q143 0 242.5 101.5t99.5 244.5zM1186 997 q-90 -14 -154 -14q-66 0 -166 18v97q63 -20 140 -21q31 0 180 21v-101zM1307 506q0 -283 -279 -283q-289 0 -289 283q0 139 72 213t211 74q123 0 204 -82t81 -205z" />
<glyph unicode="&#x260f;" d="M1884 829q0 -94 -61 -94q-86 0 -245 48t-159 110q0 18 22.5 56t22.5 59q0 57 -123 98q-14 -68 -14 -88q0 -59 16.5 -114.5t56.5 -113t66.5 -91t86 -97t77.5 -84.5q37 -43 52.5 -83t23.5 -96t18 -91q4 -10 12.5 -26.5t12.5 -26.5q10 -29 10 -115q0 -35 -45 -35 q-227 0 -679.5 1t-678.5 1q-66 0 -65 35q0 61 8 89t29 75q8 23 15 69.5t11 61.5q12 57 55.5 116.5t93.5 110.5t99 107.5t82 132.5t33 160q0 33 -4 98q-113 -35 -113 -90q0 -23 20.5 -65t20.5 -60q0 -14 -31 -41q-143 -111 -340 -111q-66 0 -86 15.5t-20 76.5q0 494 860 494 t860 -492zM1827 788v17q0 461 -819 461q-461 0 -666 -176q-123 -104 -123 -234q0 -20 8 -61q88 10 218 39.5t130 58.5q0 23 -15 65.5t-15 65.5q0 70 68.5 101.5t152.5 35.5q10 -57 10 -106q0 -129 -51 -239.5t-114.5 -176.5t-127 -146.5t-80.5 -150.5l-24 -111 q-27 -100 -27 -118h1346q-4 31 -29 106q-8 18 -12 41t-7 51.5t-5 42.5q-10 61 -52.5 121t-93.5 113t-100 114.5t-83 151.5t-34 199q0 16 10 114q227 -39 228 -141q0 -14 -13.5 -61t-21.5 -64q-2 -39 65.5 -62.5t168 -36t108.5 -14.5zM1239 956q-158 -35 -223 -34 q-72 0 -203 41v198q109 -25 191 -24q80 0 235 24v-205zM1182 997v101q-115 -16 -174 -17q-49 0 -140 17v-97q90 -14 156 -14q25 0 158 10zM1374 508q0 -145 -100 -246.5t-246 -101.5q-147 0 -248.5 98t-101.5 246q0 168 89 261t257 93q152 0 251 -100t99 -250zM1307 510 q0 291 -273 291q-127 0 -209 -82t-82 -209q0 -285 287 -285q277 0 277 285z" />
<glyph unicode="&#x261c;" d="M1862 418h-185v63q-63 -10 -131 -51q-86 -51 -189.5 -73.5t-196.5 -19.5t-206 1q-39 0 -67.5 3t-63.5 13.5t-53 36t-18 64.5q0 43 41 75q-72 23 -72 84q0 53 35 82q-70 41 -70 103q0 66 74 102l-354 8q-195 4 -195 121q0 115 195 115l653 8h35q262 0 350 -51 q55 -37 109.5 -63.5t123.5 -34.5v79h185v-665zM1810 489v523h-81v-523h81zM1677 539v409q-78 4 -141 36t-125 73q-68 39 -244 39h-139q-150 -115 -149 -174q0 -35 45 -35q25 0 70.5 32.5t76.5 32.5q43 0 164 -78.5t203 -89.5q47 -4 47 -34q0 -27 -47 -27q-74 0 -145.5 42 t-125 85t-80.5 43q-6 0 -26 -10q57 -20 57 -76q0 -25 -16 -62l-17 -20q78 -29 78 -94q0 -55 -39 -80q72 -29 72 -84q0 -45 -29 -72q205 4 365 92q71 40 145 52zM1067 801q0 43 -66 43h-192q-72 0 -72 -47t72 -47h192q66 0 66 51zM944 1096l-575 -6q-109 0 -109 -60 q0 -20 8 -33.5t20.5 -18.5t29 -8t33 -3h30.5l461 -9q28 64 102 138zM1110 629q0 49 -66 49h-202q-70 0 -70 -53q0 -23 19.5 -37.5t44.5 -14.5h208q66 1 66 56zM1147 453q0 23 -18.5 41t-41.5 18h-219q-63 0 -63 -53q0 -59 67 -60h220q18 0 36.5 17t18.5 37z" />
<glyph unicode="&#x261e;" d="M1837 1030q0 -115 -197 -121l-354 -8q74 -37 74 -102q0 -63 -70 -103q37 -33 37 -82q0 -66 -72 -84q41 -33 41 -75q0 -39 -18 -64.5t-53 -36t-63.5 -13.5t-67.5 -3q-74 -2 -154 -1t-150.5 7t-146.5 27.5t-141 58.5q-68 41 -131 51v-63h-187v665h187v-79q80 12 124 33.5 t107 66.5q82 49 330 49h57l651 -8q197 0 197 -115zM1786 1030q0 59 -109 60l-575 6q82 -82 104 -138l459 9q121 0 121 63zM1311 797q0 47 -72 47h-205q-53 0 -53 -43q0 -51 63 -51h195q72 0 72 47zM1274 625q0 53 -68 53h-202q-68 0 -68 -53q0 -51 68 -52h208q62 1 62 52z M1243 457q0 25 -20.5 40t-44.5 15h-217q-23 0 -41.5 -15.5t-18.5 -37.5q0 -20 17.5 -40t37.5 -20h220q67 1 67 58zM1167 922q0 55 -149 174h-203q-109 0 -232.5 -70t-211.5 -78v-409q74 -12 145 -52q162 -92 363 -92q-29 35 -29 72q0 53 72 84q-37 33 -37 82q0 37 18.5 55.5 t57.5 36.5q-33 41 -33 78q0 55 57 80q-14 10 -24 10q-25 0 -64 -26.5t-77 -58.5t-96 -58.5t-116 -26.5q-45 0 -45 27q0 31 47 34q82 10 203 89t164 79q31 0 78 -32.5t75 -32.5q37 0 37 35zM317 489v523h-84v-523h84z" />
<glyph unicode="&#x2640;" d="M1483 287h-406v-379h-112v379h-402v100h402v277q-391 59 -392 446q0 184 131.5 316.5t315.5 132.5q186 0 319.5 -131.5t133.5 -317.5q0 -387 -396 -446v-277h406v-100zM1339 1108q0 317 -317 317q-141 0 -228 -88t-87 -229q0 -317 315 -317q317 0 317 317z" />
<glyph unicode="&#x2642;" d="M1475 354q0 -186 -133.5 -316t-319.5 -130t-317.5 130t-131.5 316q0 172 111 295t283 152v434q-203 -115 -310 -115q-39 0 -39 33q0 16 27 35q135 96 205 162.5t135 183.5q18 33 34.5 33t33.5 -33q47 -88 112 -160q39 -43 126 -108.5t104 -77.5q25 -20 24 -37 q0 -31 -51 -31q-96 0 -291 115v-434q172 -29 285 -152t113 -295zM1339 356q0 131 -93 223.5t-224 92.5t-222 -93.5t-91 -224.5q0 -133 91 -224t222 -91q133 0 225 92t92 225z" />
<glyph unicode="&#x2660;" d="M1743 471q0 -330 -318 -330q-119 0 -231 58q18 -125 113 -297q16 -33 16 -43q0 -63 -301 -64q-299 0 -299 66q0 12 14 41q98 184 115 297q-113 -57 -231 -58q-317 0 -318 328q0 268 537 930q45 49 99 119.5t83 130.5q20 -27 82.5 -116t99.5 -134q98 -123 159.5 -204 t165 -231.5t159 -276.5t55.5 -216z" />
<glyph unicode="&#x2661;" d="M1833 1079q0 -569 -809 -1169l-10 6q-319 193 -560 512.5t-241 650.5q0 461 426 461q109 0 212 -45t173 -125q0 2 2 4l4 4q178 162 379 162q424 0 424 -461zM1741 1083q0 375 -340 375q-78 0 -151.5 -31.5t-115.5 -68.5t-75 -69t-41 -32q-10 0 -41 32t-69 69t-111.5 68.5 t-159.5 31.5q-340 0 -340 -375q0 -328 202.5 -601t514.5 -462l10 -6q115 84 208 165t191.5 188.5t165 215t109.5 237.5t43 263z" />
<glyph unicode="&#x2663;" d="M1921 555q0 -186 -121 -323.5t-303 -137.5q-98 0 -191.5 47t-142.5 127q2 -70 22.5 -138.5t40 -107t66.5 -122.5l13 -25q-4 -61 -281 -61q-279 0 -283 61l13 25q33 68 60.5 120t47 115.5t21.5 132.5q-49 -80 -142.5 -127t-191.5 -47q-186 0 -303 136.5t-117 324.5 q0 201 115.5 302t320.5 101q31 0 150 -24q-125 188 -125 334q0 397 434 397q432 0 432 -399q0 -88 -31.5 -162t-93.5 -170q74 25 154 24q201 0 318.5 -103t117.5 -300z" />
<glyph unicode="&#x2664;" d="M1743 471q0 -330 -318 -330q-119 0 -231 58q18 -125 113 -297q16 -33 16 -43q0 -63 -301 -64q-299 0 -299 66q0 12 14 41q98 184 115 297q-113 -57 -231 -58q-317 0 -318 328q0 96 60.5 230.5t144.5 256t176 245.5t154 198q35 45 96 130t86 120q16 -20 80.5 -111.5 t103.5 -138.5q100 -127 159.5 -205t165 -229.5t160 -277.5t54.5 -216zM1651 473q0 88 -57.5 215t-138.5 243t-167 233.5t-143 187.5q-18 23 -59.5 80t-65.5 86l-123 -166q-51 -66 -115.5 -144t-134 -178t-128 -193.5t-96.5 -191.5t-38 -172q0 -250 240 -250q59 0 155.5 38 t108.5 38q47 0 47 -74q0 -55 -17.5 -119.5t-33 -97.5t-51.5 -110q2 -20 133 -21q236 0 243 21q-102 209 -102 329q0 72 47 72q8 0 102.5 -38t155.5 -38q238 0 238 250z" />
<glyph unicode="&#x2665;" d="M1833 1079q0 -569 -809 -1169l-10 6q-319 193 -560 512.5t-241 650.5q0 461 426 461q109 0 212 -45t173 -125q0 2 2 4l4 4q178 162 379 162q424 0 424 -461z" />
<glyph unicode="&#x2667;" d="M1921 555q0 -186 -121 -323.5t-303 -137.5q-98 0 -191.5 47t-142.5 127q2 -70 22.5 -138.5t40 -107t66.5 -122.5l13 -25q-4 -61 -281 -61q-279 0 -283 61l13 25q33 68 60.5 120t47 115.5t21.5 132.5q-49 -80 -142.5 -127t-191.5 -47q-186 0 -303 136.5t-117 324.5 q0 201 115.5 302t320.5 101q31 0 150 -24q-125 188 -125 334q0 397 434 397q432 0 432 -399q0 -88 -31.5 -162t-93.5 -170q74 25 154 24q201 0 318.5 -103t117.5 -300zM1837 541q0 336 -348 336q-76 0 -155 -32t-105 -38q-39 4 -39 35q0 14 48 76.5t97 155.5t49 181 q0 326 -360 326q-362 0 -362 -324q0 -82 48 -175t97 -159.5t49 -82.5q0 -35 -39 -35q-8 0 -104.5 36t-155.5 36q-346 0 -346 -336q0 -147 95 -256t241 -109q78 0 146.5 36t105.5 78t67.5 77.5t42.5 35.5q41 0 41 -73q0 -225 -100 -418q76 -16 174 -16q57 0 172 16 q-100 195 -100 412q0 80 41 79q12 0 43.5 -35.5t67.5 -77.5t104.5 -78t148.5 -36q141 0 238.5 111t97.5 254z" />
<glyph unicode="&#x2668;" d="M1438 678q0 -285 -207 -416q63 135 63 324q0 82 -54 237.5t-54 237.5q0 285 196 401q-57 -133 -57 -243q0 -94 56.5 -271.5t56.5 -269.5zM1130 655q0 -319 -258 -462q94 172 95 356q0 96 -53.5 279.5t-53.5 279.5q0 285 238 494q-80 -156 -80 -326q0 -109 56 -313 t56 -308zM807 666q0 -258 -234 -422q70 172 70 305q0 86 -40 251t-40 251q0 229 211 403q-57 -129 -57 -295q0 -86 45 -247.5t45 -245.5zM1886 281q0 -168 -262 -293q-248 -119 -604 -119q-102 0 -234.5 19.5t-280 61.5t-246.5 125t-99 193q0 104 116 203q150 129 246 129 q31 0 35 -18q-6 -16 -65.5 -54.5t-113.5 -95.5t-54 -123q0 -240 694 -239q74 0 178 11t232 35.5t216.5 78t88.5 124.5q0 61 -60.5 119t-121 96.5t-60.5 53.5q0 10 20 10q117 0 246 -102t129 -215z" />
<glyph unicode="&#x2669;" d="M1206 281q0 -424 -391 -424q-178 0 -178 159q0 121 97 207t218 86q72 0 142 -28v1333h112v-1333z" />
<glyph unicode="&#x266a;" d="M1513 657q0 -244 -149 -424h-74q90 209 90 388q0 147 -74.5 290.5t-205.5 161.5v-792q0 -424 -389 -424q-182 0 -183 159q0 123 96.5 208t221.5 85q72 0 141 -28v1333h113v-158q51 -57 100 -118.5t95 -120t86 -125t70 -133t46 -144.5t16 -158z" />
<glyph unicode="&#x266c;" d="M1800 385q0 -424 -391 -424q-178 0 -178 154q0 127 93 214t222 87q74 0 142 -31v666l-873 -238v-573q0 -424 -389 -424q-182 0 -182 153q0 125 96 212t221 87q66 0 144 -28v1134l1095 281v-1270zM1688 1247v180l-873 -233v-182z" />
<glyph unicode="&#x266d;" d="M1444 696q0 -455 -660 -780h-170v1632h164v-667q143 170 338 170q328 -1 328 -355zM1251 653q0 254 -217 254q-129 0 -256 -176v-713q473 254 473 635z" />
<glyph unicode="&#x3000;" />
<glyph unicode="&#x3001;" d="M612 -172q0 -80 -65 -80q-49 0 -94 84q-39 72 -57.5 105.5t-58.5 84t-85 82.5q-18 14 -35.5 31t-15.5 19q2 8 10 8q102 0 251.5 -118t149.5 -216z" />
<glyph unicode="&#x3002;" d="M530 -10q0 -168 -167.5 -168t-167.5 168q0 166 167 166q72 0 120 -47t48 -119zM473 -10q0 111 -111 110q-47 0 -79.5 -31.5t-32.5 -78.5q0 -113 112 -113q111 0 111 113z" />
<glyph unicode="&#x3003;" d="M1411 1200q0 -14 -17.5 -67.5t-19.5 -67.5q-25 -141 -39 -214t-48 -187.5t-77 -204.5q-117 -236 -157 -236q-8 0 -9 6q0 14 5.5 30.5t15.5 38t12 30.5q137 354 137 741q0 49 -8 152h174q31 -1 31 -21zM1006 1200q0 -6 -9 -26q-14 -33 -23 -74t-17.5 -100.5t-12.5 -77.5 q-47 -264 -139 -465q-104 -231 -164 -232q-2 0 -2 4q0 10 31 97q139 369 139 757q0 47 -8 138h176q29 -1 29 -21z" />
<glyph unicode="&#x3008;" horiz-adv-x="1024" d="M756 -133l-62 -37l-426 903l426 905l62 -36l-406 -869z" />
<glyph unicode="&#x3009;" horiz-adv-x="1024" d="M756 733l-426 -903l-62 37l406 866l-406 869l62 36z" />
<glyph unicode="&#x300a;" horiz-adv-x="1024" d="M909 -133l-61 -37l-504 903l504 905l61 -36l-483 -869zM709 -152l-64 -34l-512 919l512 922l64 -35l-494 -887z" />
<glyph unicode="&#x300b;" horiz-adv-x="1024" d="M899 733l-512 -919l-63 34l493 885l-493 887l63 35zM688 733l-504 -903l-61 37l483 866l-483 869l61 36z" />
<glyph unicode="&#x300c;" horiz-adv-x="1024" d="M825 1589h-559v-956h-69v1028h628v-72z" />
<glyph unicode="&#x300d;" horiz-adv-x="1024" d="M825 -186h-628v71h557v949h71v-1020z" />
<glyph unicode="&#x300e;" horiz-adv-x="1024" d="M795 1432h-332v-768h-234v995h566v-227zM735 1493v104h-446v-872h114v768h332z" />
<glyph unicode="&#x300f;" horiz-adv-x="1024" d="M795 -186h-566v225h332v768h234v-993zM735 -127v872h-114v-765h-332v-107h446z" />
<glyph unicode="&#x3010;" horiz-adv-x="1024" d="M766 -231h-508v1931h508q-287 -422 -287 -973q0 -516 287 -958z" />
<glyph unicode="&#x3011;" horiz-adv-x="1024" d="M766 -231h-508q289 438 289 958q0 543 -289 973h508v-1931z" />
<glyph unicode="&#x3013;" d="M1741 881h-1436v112h1436v-112zM1741 469h-1436v113h1436v-113z" />
<glyph unicode="&#x3014;" horiz-adv-x="1024" d="M772 -121l-35 -65l-487 260v1319l487 262l35 -68l-448 -246v-1216z" />
<glyph unicode="&#x3015;" horiz-adv-x="1024" d="M772 74l-487 -260l-35 65l448 246v1216l-448 246l35 68l487 -262v-1319z" />
<glyph unicode="&#x3131;" d="M1620 225h-127v877h-1141v112h1268v-989z" />
<glyph unicode="&#x3132;" d="M1718 225h-129v877h-502v112h631v-989zM956 225h-129v877h-553v112h682v-989z" />
<glyph unicode="&#x3133;" d="M1794 406l-111 -87q-123 117 -180 194t-127 224q-57 -127 -121.5 -214t-179.5 -204l-127 74q147 137 237.5 258t114.5 273q10 66 11 198h141q0 -264 67.5 -404t274.5 -312zM901 319h-143v656h-527v131h670v-787z" />
<glyph unicode="&#x3134;" d="M1665 250h-1251v964h96q41 0 47 -8v-4q2 -10 -6 -25.5t-8 -23.5v-793h1122v-110z" />
<glyph unicode="&#x3135;" d="M1784 395l-121 -96q-92 88 -150.5 170t-128.5 213q-84 -145 -129 -206.5t-157 -174.5l-121 100q272 209 315 467l19 109h-269v131h670v-131h-264q25 -205 92.5 -313.5t243.5 -268.5zM958 340q-342 -20 -632 -23v801h143v-665h149q82 0 326 18z" />
<glyph unicode="&#x3136;" d="M1579 1004h-496v135h496v-135zM1714 811h-768v133h768v-133zM1647 516q0 -111 -98.5 -176.5t-215 -65.5t-215 66t-98.5 176q0 113 97 178.5t216 65.5t216.5 -65.5t97.5 -178.5zM1501 518q0 55 -55 88t-115 33q-57 0 -112.5 -34t-55.5 -87q0 -57 53.5 -90t114.5 -33 q63 0 116.5 32t53.5 91zM958 340q-258 -18 -571 -23v813h143v-677h129q74 0 285 18z" />
<glyph unicode="&#x3137;" d="M1612 250h-1235v964h1194v-112h-1067v-742h1108v-110z" />
<glyph unicode="&#x3138;" d="M1808 250h-723v964h676v-112h-547v-742h594v-110zM1022 309q-356 -55 -717 -61v966h641v-112h-512v-733q279 0 588 59v-119z" />
<glyph unicode="&#x3139;" d="M1659 250h-1239v569h1071v283h-1071v112h1198v-505h-1069v-349h1110v-110z" />
<glyph unicode="&#x313a;" d="M1741 322h-144v669h-507v133h651v-802zM1010 348q-328 -27 -529 -26h-176v464h535v205h-527v133h670v-471h-532v-198h165q55 0 119 4t141.5 11t118.5 9z" />
<glyph unicode="&#x313b;" d="M1749 322h-666v802h666v-802zM1608 455v536h-379v-536h379zM987 348q-186 -27 -563 -26h-123v464h530v205h-526v133h670v-471h-529v-198h154q76 0 375 24z" />
<glyph unicode="&#x313c;" d="M1724 322h-659v802h143v-237h371v237h145v-802zM1579 455v297h-371v-297h371zM989 348q-303 -31 -543 -31h-145v467h514v197h-510v127h653v-455h-512v-198h162q74 0 369 24z" />
<glyph unicode="&#x313d;" d="M1802 395l-121 -88q-125 125 -183 205t-122 225q-61 -139 -119.5 -222t-175.5 -206l-127 86q309 305 344 533q6 39 7 196h143q0 -162 8 -206q29 -160 110.5 -273t235.5 -250zM913 348q-186 -27 -565 -26h-104v464h512v205h-508v133h651v-471h-512v-198h162q94 0 350 22z " />
<glyph unicode="&#x313e;" d="M1733 322h-660v802h656v-133h-508v-205h467v-133h-467v-198h512v-133zM985 348q-186 -27 -567 -26h-103v464h512v205h-508v133h654v-471h-512v-198h162q29 0 350 22z" />
<glyph unicode="&#x313f;" d="M1720 991h-661v133h661v-133zM1747 322h-719v133h137l-53 454h145l54 -454h164l30 454h150l-41 -454h133v-133zM975 348q-223 -27 -567 -26h-107v464h514v205h-510v133h653v-471h-512v-198h170q33 0 342 22z" />
<glyph unicode="&#x3140;" d="M1579 1004h-496v135h496v-135zM1712 811h-766v133h766v-133zM1645 516q0 -109 -94.5 -175.5t-207.5 -66.5q-121 0 -221 63.5t-100 178.5q0 113 97.5 178.5t213.5 65.5q121 0 216.5 -64.5t95.5 -179.5zM1501 518q0 55 -54 88t-114 33q-57 0 -112.5 -34t-55.5 -87 q0 -57 53.5 -90t114.5 -33q63 0 115.5 32t52.5 91zM973 342q-381 -25 -567 -25h-84v467h464v197h-460v127h604v-455h-463v-198h160q29 0 331 22z" />
<glyph unicode="&#x3141;" d="M1616 250h-127v53h-954v-53h-129v964h1210v-964zM1489 414v688h-954v-688h954z" />
<glyph unicode="&#x3142;" d="M1628 1198q0 -8 -8 -24.5t-8 -28.5v-895h-127v57h-930v-57h-131v964h106q41 0 48 -6q0 -10 -11.5 -25.5t-11.5 -29.5v-254h930v315h82q61 0 61 -16zM1485 418v370h-930v-370h930z" />
<glyph unicode="&#x3143;" d="M1755 1198q0 -10 -7 -26.5t-7 -26.5v-916h-129v58h-416v-58h-129v985h109q37 0 43 -6q0 -10 -11.5 -25.5t-11.5 -29.5v-256h416v317h86q57 0 57 -16zM1612 395v393h-416v-393h416zM1010 1198q0 -8 -8.5 -25.5t-8.5 -27.5v-916h-127v58h-422v-58h-129v985h109q37 0 43 -6 q0 -10 -11.5 -26.5t-11.5 -28.5v-256h422v317h86q58 0 58 -16zM866 395v393h-422v-393h422z" />
<glyph unicode="&#x3144;" d="M1812 383l-114 -82q-205 209 -303 432q-37 -86 -94.5 -167t-100.5 -127t-135 -138l-109 94q53 49 112.5 111.5t109 122t88.5 134.5t51 150q8 47 8 213h145q0 -152 9 -204q25 -156 106.5 -277t226.5 -262zM918 326h-672v796h143v-276h385v278h144v-798zM774 461v254h-385 v-254h385z" />
<glyph unicode="&#x3145;" d="M1714 348l-61 -123q-442 199 -594 621q-100 -223 -286.5 -393t-414.5 -228l-61 119q197 29 374 192.5t269 364.5q31 68 44 125t15 94t2 131l111 -10q43 0 43 -8q0 -12 -9 -26.5t-11 -18.5q-4 -10 -5 -72q0 -240 176.5 -471t407.5 -297z" />
<glyph unicode="&#x3146;" d="M1872 311l-84 -100q-133 94 -249 256t-140 311q-84 -328 -412 -557l-90 111q217 113 331.5 330t114.5 475v118q156 0 156 -30q0 -8 -15.5 -40t-15.5 -63q0 -268 95.5 -459.5t308.5 -351.5zM973 500l-90 -99q-166 125 -242 377q-33 -164 -127 -306t-233 -243l-97 103 q119 66 200 168t120 231t55 250t16 264q4 0 33 -1t51.5 -3t44 -7t21.5 -13.5t-12.5 -37t-12.5 -53.5q0 -207 61.5 -361t211.5 -269z" />
<glyph unicode="&#x3147;" d="M1606 723q0 -236 -169 -373t-409 -137q-242 0 -409.5 136t-167.5 374q0 240 165.5 376t411.5 136q244 0 411 -136t167 -376zM1479 721q0 186 -131 296.5t-320 110.5q-190 0 -320 -110.5t-130 -296.5q0 -188 129 -295t321 -107q190 0 320.5 108t130.5 294z" />
<glyph unicode="&#x3148;" d="M1774 324l-99 -97q-190 72 -374.5 235t-262.5 339q-86 -176 -279.5 -338t-387.5 -232l-97 97q147 47 305 156.5t276 270t118 312.5v35h-635v112h1391v-112h-629v-35q0 -117 64.5 -238.5t166 -219t217 -172t226.5 -113.5z" />
<glyph unicode="&#x3149;" d="M1868 313l-88 -86q-305 233 -355 471q-51 -152 -147 -279.5t-227 -201.5l-90 92q186 92 290.5 288t104.5 413v92h-283v112h739v-112h-337v-82q0 -203 110.5 -403t282.5 -304zM983 1102h-326v-60q0 -356 324 -630l-90 -90q-233 197 -281 401q-41 -131 -139 -275.5 t-205 -216.5l-90 91q160 92 263.5 304t103.5 408v68h-299v112h739v-112z" />
<glyph unicode="&#x314a;" d="M1360 1237h-649v96h649v-96zM1788 324l-96 -97q-203 47 -387.5 174t-270.5 299q-78 -162 -279.5 -302t-389.5 -177l-99 98q96 14 215 66.5t229.5 128.5t185.5 178.5t75 204.5v33h-635v104h1395v-104h-633v-33q0 -106 70.5 -207.5t180 -173.5t223.5 -120.5t216 -71.5z" />
<glyph unicode="&#x314b;" d="M1620 250h-127v502q-487 -98 -1006 -146q-16 0 -24 -8q-4 -2 -18.5 -13.5t-20.5 -11.5q-14 0 -27.5 30t-19.5 59.5t-10 46.5h24q455 0 1102 131v262h-1128v112h1255v-964z" />
<glyph unicode="&#x314c;" d="M1655 250h-1249v964h1228v-112h-1099v-291h1069v-111h-1069v-340h1120v-110z" />
<glyph unicode="&#x314d;" d="M1651 1102h-1260v112h1260v-112zM1704 250h-1372v110h391l-111 644q104 6 109 6q23 0 29 -6q4 -2 1 -26t-3 -26l2 -12l94 -580h360l117 648l96 -19q41 -10 41 -20.5t-10 -25.5t-12 -23l-113 -560h381v-110z" />
<glyph unicode="&#x314e;" d="M1270 1227h-531v92h531v-92zM1714 930h-1374v100h1374v-100zM1516 451q0 -115 -87.5 -192t-194 -103.5t-217 -26.5t-216 26.5t-192.5 103.5t-87 192q0 88 48 154.5t127 101t160 51t161 16.5t162 -16.5t159.5 -52t127 -101t49.5 -153.5zM1395 451q0 63 -38 111t-99.5 71.5 t-121 35t-118.5 11.5q-57 0 -117.5 -11.5t-120 -36t-97.5 -71.5t-38 -110q0 -80 68.5 -134.5t147.5 -73t157 -18.5t157.5 18.5t149.5 73t70 134.5z" />
<glyph unicode="&#x314f;" d="M1380 641h-327v-791h-144v1733h144v-809h327v-133z" />
<glyph unicode="&#x3150;" d="M1305 -152h-146v805h-258v-680h-143v1583h143v-768h258v805h146v-1745z" />
<glyph unicode="&#x3151;" d="M1372 383h-319v-535h-144v1733h144v-561h319v-131h-319v-375h319v-131z" />
<glyph unicode="&#x3152;" d="M1300 -156h-143v633h-256v-495h-143v1564h143v-491h256v530h143v-1741zM1157 612v308h-256v-308h256z" />
<glyph unicode="&#x3153;" d="M1182 -152h-142v867h-364v131h364v737h142v-1735z" />
<glyph unicode="&#x3154;" d="M1407 -127h-145v1722h145v-1722zM1063 -6h-145v770h-289v133h289v635h145v-1538z" />
<glyph unicode="&#x3155;" d="M1184 -152h-144v650h-364v135h364v307h-364v133h364v510h144v-1735z" />
<glyph unicode="&#x3156;" d="M1407 -127h-145v1741h145v-1741zM1063 -2h-145v543h-289v131h289v311h-289v133h289v463h145v-1581z" />
<glyph unicode="&#x3157;" d="M1831 43h-1614v133h737v379h142v-379h735v-133z" />
<glyph unicode="&#x3158;" d="M1907 610h-289v-755h-143v1736h143v-850h289v-131zM1391 274l-1194 -104l-52 141l547 31v385h144v-375l542 43z" />
<glyph unicode="&#x3159;" d="M1800 -139h-143v807h-227v-744h-142v1661h142v-782h227v823h143v-1765zM1194 272l-961 -106l-30 135l397 27v434h141v-418l441 47z" />
<glyph unicode="&#x315a;" d="M1755 -162h-141v1749h137zM1524 279l-1233 -109l-51 141l534 31v377h141v-365l596 52z" />
<glyph unicode="&#x315b;" d="M1831 43h-1612v131h475v381h144v-381h383v381h143v-381h467v-131z" />
<glyph unicode="&#x315c;" d="M1837 549h-739v-692h-144v692h-729v131h1612v-131z" />
<glyph unicode="&#x315d;" d="M1741 -145h-146v407h-430v133h430v1196h146v-1736zM1475 614l-576 -30v-693h-143v682l-541 -30l-33 141l1278 59z" />
<glyph unicode="&#x315e;" d="M1757 -139h-143v1765h143v-1765zM1434 -76h-144v400h-372v135h372v1126h144v-1661zM1190 676l-434 -14v-678h-144v669l-397 -12l-29 137l996 25z" />
<glyph unicode="&#x315f;" d="M1698 -145h-142v1736h142v-1736zM1475 616l-615 -32v-693h-143v682l-541 -30l-35 141l1319 61z" />
<glyph unicode="&#x3160;" d="M1831 549h-440v-692h-146v692h-467v-692h-143v692h-418v131h1614v-131z" />
<glyph unicode="&#x3161;" d="M1831 109h-1614v133h1614v-133z" />
<glyph unicode="&#x3162;" d="M1755 -162h-141v1749h141v-1749zM1524 315l-1235 -106l-51 143l1271 92z" />
<glyph unicode="&#x3163;" d="M1085 -152h-143v1735h143v-1735z" />
<glyph unicode="&#x318d;" d="M1118 836q0 -102 -102.5 -102.5t-102.5 102t103 102.5q43 0 72.5 -29.5t29.5 -72.5z" />
<glyph unicode="&#x318e;" d="M1235 -133h-145v1700h145v-1700zM883 836q0 -102 -102.5 -102.5t-102.5 102t102 102.5q43 0 73 -29.5t30 -72.5z" />
<glyph unicode="&#x3200;" d="M1966 561q0 -340 -215 -665q-127 -190 -168 -191q-16 0 -16 14l59 101q59 102 70 121q147 315 147 628q0 436 -235 789q-25 33 -41 65q0 14 12 15q23 0 80 -66q145 -170 226 -382t81 -429zM1499 993q-8 -307 -28.5 -530t-71.5 -486l-144 17l27 135q51 258 78 731h-909 v133h1048zM481 -281q0 -14 -18 -14q-43 0 -166 191q-215 326 -215 686q0 203 85 415.5t222 374.5q57 66 80 66q12 0 12 -15q0 -4 -8 -12q-268 -410 -268 -842q0 -322 147 -628q47 -94 88 -156q2 -2 21.5 -33t19.5 -33z" />
<glyph unicode="&#x3201;" d="M1966 561q0 -340 -215 -665q-127 -190 -168 -191q-16 0 -16 14l59 101q59 102 70 121q147 315 147 628q0 436 -235 789q-25 33 -41 65q0 14 12 15q23 0 80 -66q145 -170 226 -382t81 -429zM1614 137q-528 -53 -850 -53h-209v960h143v-825h127q313 0 774 47zM481 -281 q0 -14 -18 -14q-43 0 -166 191q-215 326 -215 686q0 203 85 415.5t222 374.5q57 66 80 66q12 0 12 -15q0 -4 -8 -12q-268 -410 -268 -842q0 -322 147 -628q47 -94 88 -156q2 -2 21.5 -33t19.5 -33z" />
<glyph unicode="&#x3202;" d="M1966 561q0 -340 -215 -665q-127 -190 -168 -191q-16 0 -16 14l59 101q59 102 70 121q147 315 147 628q0 436 -235 789q-25 33 -41 65q0 14 12 15q23 0 80 -66q145 -170 226 -382t81 -429zM1575 137q-528 -53 -852 -53h-209v952h1010v-133h-867v-684h134q311 0 768 47z M481 -281q0 -14 -18 -14q-43 0 -166 191q-215 326 -215 686q0 203 85 415.5t222 374.5q57 66 80 66q12 0 12 -15q0 -4 -8 -12q-268 -410 -268 -842q0 -322 147 -628q47 -94 88 -156q2 -2 21.5 -33t19.5 -33z" />
<glyph unicode="&#x3203;" d="M1966 561q0 -340 -215 -665q-127 -190 -168 -191q-16 0 -16 14l59 101q59 102 70 121q147 315 147 628q0 436 -235 789q-25 33 -41 65q0 14 12 15q23 0 80 -66q145 -170 226 -382t81 -429zM1565 92q-403 -70 -858 -69h-166v626h819v309h-819v132h962v-574h-819v-362h86 q369 0 768 69zM481 -281q0 -14 -18 -14q-43 0 -166 191q-215 326 -215 686q0 203 85 415.5t222 374.5q57 66 80 66q12 0 12 -15q0 -4 -8 -12q-268 -410 -268 -842q0 -322 147 -628q47 -94 88 -156q2 -2 21.5 -33t19.5 -33z" />
<glyph unicode="&#x3204;" d="M1966 561q0 -340 -215 -665q-127 -190 -168 -191q-16 0 -16 14l59 101q59 102 70 121q147 315 147 628q0 436 -235 789q-25 33 -41 65q0 14 12 15q23 0 80 -66q145 -170 226 -382t81 -429zM1503 164h-962v788h962v-788zM1360 299v520h-676v-520h676zM481 -281 q0 -14 -18 -14q-43 0 -166 191q-215 326 -215 686q0 203 85 415.5t222 374.5q57 66 80 66q12 0 12 -15q0 -4 -8 -12q-268 -410 -268 -842q0 -322 147 -628q47 -94 88 -156q2 -2 21.5 -33t19.5 -33z" />
<glyph unicode="&#x3205;" d="M1966 561q0 -340 -215 -665q-127 -190 -168 -191q-16 0 -16 14l59 101q59 102 70 121q147 315 147 628q0 436 -235 789q-25 33 -41 65q0 14 12 15q23 0 80 -66q145 -170 226 -382t81 -429zM1470 92h-897v950h144v-337h608v342h145v-955zM1325 225v344h-608v-344h608z M481 -281q0 -14 -18 -14q-43 0 -166 191q-215 326 -215 686q0 203 85 415.5t222 374.5q57 66 80 66q12 0 12 -15q0 -4 -8 -12q-268 -410 -268 -842q0 -322 147 -628q47 -94 88 -156q2 -2 21.5 -33t19.5 -33z" />
<glyph unicode="&#x3206;" d="M1966 561q0 -340 -215 -665q-127 -190 -168 -191q-16 0 -16 14l59 101q59 102 70 121q147 315 147 628q0 436 -235 789q-25 33 -41 65q0 14 12 15q23 0 80 -66q145 -170 226 -382t81 -429zM1530 166l-129 -82q-141 141 -221 259t-156 300q-74 -176 -169 -295t-263 -270 l-125 100q193 154 308.5 307.5t154.5 354.5q16 84 16 282h152q0 -332 90 -524t342 -432zM481 -281q0 -14 -18 -14q-43 0 -166 191q-215 326 -215 686q0 203 85 415.5t222 374.5q57 66 80 66q12 0 12 -15q0 -4 -8 -12q-268 -410 -268 -842q0 -322 147 -628q47 -94 88 -156 q2 -2 21.5 -33t19.5 -33z" />
<glyph unicode="&#x3207;" d="M1966 561q0 -340 -215 -665q-127 -190 -168 -191q-16 0 -16 14l59 101q59 102 70 121q147 315 147 628q0 436 -235 789q-25 33 -41 65q0 14 12 15q23 0 80 -66q145 -170 226 -382t81 -429zM1460 569q0 -188 -121.5 -338.5t-308 -150.5t-308.5 150.5t-122 338.5 q0 193 121 342.5t309.5 149.5t309 -149.5t120.5 -342.5zM1317 569q0 131 -79 235.5t-208 104.5t-208 -104.5t-79 -235.5q0 -129 81 -234.5t206 -105.5t206 105.5t81 234.5zM481 -281q0 -14 -18 -14q-43 0 -166 191q-215 326 -215 686q0 203 85 415.5t222 374.5q57 66 80 66 q12 0 12 -15q0 -4 -8 -12q-268 -410 -268 -842q0 -322 147 -628q47 -94 88 -156q2 -2 21.5 -33t19.5 -33z" />
<glyph unicode="&#x3208;" d="M1966 561q0 -340 -215 -665q-127 -190 -168 -191q-16 0 -16 14l59 101q59 102 70 121q147 315 147 628q0 436 -235 789q-25 33 -41 65q0 14 12 15q23 0 80 -66q145 -170 226 -382t81 -429zM1538 117l-149 -76q-133 131 -211 252t-146 297q-82 -180 -166 -293t-235 -256 l-129 88q211 178 322.5 355.5t125.5 418.5h-385v131h934v-131h-395q43 -467 356 -723zM481 -281q0 -14 -18 -14q-43 0 -166 191q-215 326 -215 686q0 203 85 415.5t222 374.5q57 66 80 66q12 0 12 -15q0 -4 -8 -12q-268 -410 -268 -842q0 -322 147 -628q47 -94 88 -156 q2 -2 21.5 -33t19.5 -33z" />
<glyph unicode="&#x3209;" d="M1966 561q0 -340 -215 -665q-127 -190 -168 -191q-16 0 -16 14l59 101q59 102 70 121q147 315 147 628q0 436 -235 789q-25 33 -41 65q0 14 12 15q23 0 80 -66q145 -170 226 -382t81 -429zM1266 995h-488v135h488v-135zM1513 119l-124 -94q-145 145 -207 223t-156 244 q-92 -162 -181 -260.5t-243 -208.5l-98 98q190 127 295.5 265t144.5 343h-389v131h934v-131h-391q14 -176 126.5 -324.5t288.5 -285.5zM481 -281q0 -14 -18 -14q-43 0 -166 191q-215 326 -215 686q0 203 85 415.5t222 374.5q57 66 80 66q12 0 12 -15q0 -4 -8 -12 q-268 -410 -268 -842q0 -322 147 -628q47 -94 88 -156q2 -2 21.5 -33t19.5 -33z" />
<glyph unicode="&#x320a;" d="M1966 561q0 -340 -215 -665q-127 -190 -168 -191q-16 0 -16 14l59 101q59 102 70 121q147 315 147 628q0 436 -235 789q-25 33 -41 65q0 14 12 15q23 0 80 -66q145 -170 226 -382t81 -429zM1520 819q0 -510 -99 -831l-139 32q47 172 76 431l-864 -56l-39 150l911 37 l12 301h-876v131h1018v-195zM481 -281q0 -14 -18 -14q-43 0 -166 191q-215 326 -215 686q0 203 85 415.5t222 374.5q57 66 80 66q12 0 12 -15q0 -4 -8 -12q-268 -410 -268 -842q0 -322 147 -628q47 -94 88 -156q2 -2 21.5 -33t19.5 -33z" />
<glyph unicode="&#x320b;" d="M1966 561q0 -340 -215 -665q-127 -190 -168 -191q-16 0 -16 14l59 101q59 102 70 121q147 315 147 628q0 436 -235 789q-25 33 -41 65q0 14 12 15q23 0 80 -66q145 -170 226 -382t81 -429zM1579 106q-375 -61 -872 -61h-175v1051h967v-131h-823v-322h764v-135h-764v-332 h74q373 0 800 60zM481 -281q0 -14 -18 -14q-43 0 -166 191q-215 326 -215 686q0 203 85 415.5t222 374.5q57 66 80 66q12 0 12 -15q0 -4 -8 -12q-268 -410 -268 -842q0 -322 147 -628q47 -94 88 -156q2 -2 21.5 -33t19.5 -33z" />
<glyph unicode="&#x320c;" d="M1966 561q0 -340 -215 -665q-127 -190 -168 -191q-16 0 -16 14l59 101q59 102 70 121q147 315 147 628q0 436 -235 789q-25 33 -41 65q0 14 12 15q23 0 80 -66q145 -170 226 -382t81 -429zM1534 858h-1020v131h1020v-131zM1597 141h-1146v135h268l-51 478h157l43 -478 h320l43 490h141l-37 -490h262v-135zM481 -281q0 -14 -18 -14q-43 0 -166 191q-215 326 -215 686q0 203 85 415.5t222 374.5q57 66 80 66q12 0 12 -15q0 -4 -8 -12q-268 -410 -268 -842q0 -322 147 -628q47 -94 88 -156q2 -2 21.5 -33t19.5 -33z" />
<glyph unicode="&#x320d;" d="M1966 561q0 -340 -215 -665q-127 -190 -168 -191q-16 0 -16 14l59 101q59 102 70 121q147 315 147 628q0 436 -235 789q-25 33 -41 65q0 14 12 15q23 0 80 -66q145 -170 226 -382t81 -429zM1268 971h-492v131h492v-131zM1534 717h-1016v131h1016v-131zM1438 309 q0 -147 -128 -234t-282 -87t-282 87t-128 234q0 145 129.5 234.5t281 89.5t280.5 -89.5t129 -234.5zM1294 309q0 90 -85 139.5t-181 49.5t-181 -49.5t-85 -139.5q0 -88 86 -137t180 -49t180 49t86 137zM481 -281q0 -14 -18 -14q-43 0 -166 191q-215 326 -215 686 q0 203 85 415.5t222 374.5q57 66 80 66q12 0 12 -15q0 -4 -8 -12q-268 -410 -268 -842q0 -322 147 -628q47 -94 88 -156q2 -2 21.5 -33t19.5 -33z" />
<glyph unicode="&#x320e;" d="M1966 561q0 -340 -215 -665q-127 -190 -168 -191q-16 0 -16 14l59 101q59 102 70 121q147 315 147 628q0 436 -235 789q-25 33 -41 65q0 14 12 15q23 0 80 -66q145 -170 226 -382t81 -429zM1751 477h-266v-612h-113v1415h113v-692h266v-111zM1053 1073 q-23 -383 -171.5 -598t-496.5 -393l-88 92l96 43q211 98 359.5 273.5t167.5 390.5l8 92h-561v100h686zM481 -281q0 -14 -18 -14q-43 0 -166 191q-215 326 -215 686q0 203 85 415.5t222 374.5q57 66 80 66q12 0 12 -15q0 -4 -8 -12q-268 -410 -268 -842q0 -322 147 -628 q47 -94 88 -156q2 -2 21.5 -33t19.5 -33z" />
<glyph unicode="&#x320f;" d="M1966 561q0 -340 -215 -665q-127 -190 -168 -191q-16 0 -16 14l59 101q59 102 70 121q147 315 147 628q0 436 -235 789q-25 33 -41 65q0 14 12 15q23 0 80 -66q145 -170 226 -382t81 -429zM1751 477h-266v-612h-113v1415h113v-692h266v-111zM1237 309q-403 -72 -727 -71 h-117v837h113v-729h49q326 0 659 66zM481 -281q0 -14 -18 -14q-43 0 -166 191q-215 326 -215 686q0 203 85 415.5t222 374.5q57 66 80 66q12 0 12 -15q0 -4 -8 -12q-268 -410 -268 -842q0 -322 147 -628q47 -94 88 -156q2 -2 21.5 -33t19.5 -33z" />
<glyph unicode="&#x3210;" d="M1966 561q0 -340 -215 -665q-127 -190 -168 -191q-16 0 -16 14l59 101q59 102 70 121q147 315 147 628q0 436 -235 789q-25 33 -41 65q0 14 12 15q23 0 80 -66q145 -170 226 -382t81 -429zM1751 477h-266v-612h-113v1415h113v-692h266v-111zM1243 270q-367 -70 -711 -69 h-151v850h745v-115h-622v-625h71q307 0 656 72zM481 -281q0 -14 -18 -14q-43 0 -166 191q-215 326 -215 686q0 203 85 415.5t222 374.5q57 66 80 66q12 0 12 -15q0 -4 -8 -12q-268 -410 -268 -842q0 -322 147 -628q47 -94 88 -156q2 -2 21.5 -33t19.5 -33z" />
<glyph unicode="&#x3211;" d="M1966 561q0 -340 -215 -665q-127 -190 -168 -191q-16 0 -16 14l59 101q59 102 70 121q147 315 147 628q0 436 -235 789q-25 33 -41 65q0 14 12 15q23 0 80 -66q145 -170 226 -382t81 -429zM1751 477h-266v-612h-113v1415h113v-692h266v-111zM1229 186q-381 -57 -692 -57 h-142v545h578v305h-578v100h701v-518h-578v-323h70q295 0 620 57zM481 -281q0 -14 -18 -14q-43 0 -166 191q-215 326 -215 686q0 203 85 415.5t222 374.5q57 66 80 66q12 0 12 -15q0 -4 -8 -12q-268 -410 -268 -842q0 -322 147 -628q47 -94 88 -156q2 -2 21.5 -33t19.5 -33z " />
<glyph unicode="&#x3212;" d="M1966 561q0 -340 -215 -665q-127 -190 -168 -191q-16 0 -16 14l59 101q59 102 70 121q147 315 147 628q0 436 -235 789q-25 33 -41 65q0 14 12 15q23 0 80 -66q145 -170 226 -382t81 -429zM1751 477h-266v-612h-113v1415h113v-692h266v-111zM1075 215h-688v840h688v-840z M963 315v635h-453v-635h453zM481 -281q0 -14 -18 -14q-43 0 -166 191q-215 326 -215 686q0 203 85 415.5t222 374.5q57 66 80 66q12 0 12 -15q0 -4 -8 -12q-268 -410 -268 -842q0 -322 147 -628q47 -94 88 -156q2 -2 21.5 -33t19.5 -33z" />
<glyph unicode="&#x3213;" d="M1966 561q0 -340 -215 -665q-127 -190 -168 -191q-16 0 -16 14l59 101q59 102 70 121q147 315 147 628q0 436 -235 789q-25 33 -41 65q0 14 12 15q23 0 80 -66q145 -170 226 -382t81 -429zM1751 477h-266v-612h-113v1415h113v-692h266v-111zM1071 172h-696v903h112v-334 h461v334h123v-903zM948 276v365h-461v-365h461zM481 -281q0 -14 -18 -14q-43 0 -166 191q-215 326 -215 686q0 203 85 415.5t222 374.5q57 66 80 66q12 0 12 -15q0 -4 -8 -12q-268 -410 -268 -842q0 -322 147 -628q47 -94 88 -156q2 -2 21.5 -33t19.5 -33z" />
<glyph unicode="&#x3214;" d="M1966 561q0 -340 -215 -665q-127 -190 -168 -191q-16 0 -16 14l59 101q59 102 70 121q147 315 147 628q0 436 -235 789q-25 33 -41 65q0 14 12 15q23 0 80 -66q145 -170 226 -382t81 -429zM1751 477h-266v-612h-113v1415h113v-692h266v-111zM1196 217l-82 -82 q-135 119 -207.5 209t-150.5 242q-94 -176 -163 -263t-216 -221l-101 70q14 10 41 32.5t41 33.5q125 106 218.5 261.5t117.5 307.5q14 90 15 311h110q0 -184 9.5 -287.5t46 -217t113.5 -204t208 -192.5zM481 -281q0 -14 -18 -14q-43 0 -166 191q-215 326 -215 686 q0 203 85 415.5t222 374.5q57 66 80 66q12 0 12 -15q0 -4 -8 -12q-268 -410 -268 -842q0 -322 147 -628q47 -94 88 -156q2 -2 21.5 -33t19.5 -33z" />
<glyph unicode="&#x3215;" d="M1966 561q0 -340 -215 -665q-127 -190 -168 -191q-16 0 -16 14l59 101q59 102 70 121q147 315 147 628q0 436 -235 789q-25 33 -41 65q0 14 12 15q23 0 80 -66q145 -170 226 -382t81 -429zM1751 510h-264v-645h-113v1413h113v-657h264v-111zM1116 641 q0 -182 -104.5 -331.5t-278.5 -149.5q-172 0 -277.5 150.5t-105.5 330.5q0 113 43 219.5t134 182t206 75.5q174 0 278.5 -148.5t104.5 -328.5zM1004 643q0 137 -71 252t-200 115q-127 0 -198.5 -117t-71.5 -250t72.5 -251t197.5 -118q129 0 200 116t71 253zM481 -281 q0 -14 -18 -14q-43 0 -166 191q-215 326 -215 686q0 203 85 415.5t222 374.5q57 66 80 66q12 0 12 -15q0 -4 -8 -12q-268 -410 -268 -842q0 -322 147 -628q47 -94 88 -156q2 -2 21.5 -33t19.5 -33z" />
<glyph unicode="&#x3216;" d="M1966 561q0 -340 -215 -665q-127 -190 -168 -191q-16 0 -16 14l59 101q59 102 70 121q147 315 147 628q0 436 -235 789q-25 33 -41 65q0 14 12 15q23 0 80 -66q145 -170 226 -382t81 -429zM1751 508h-264v-643h-113v1413h113v-655h264v-115zM1257 221l-83 -82 q-135 102 -217.5 199.5t-157.5 245.5q-92 -166 -182.5 -262.5t-256.5 -206.5l-92 82q20 14 62 39q166 109 279.5 266t121.5 334l6 137h-358v100h831v-100h-344q0 -195 37 -319t115.5 -217t238.5 -216zM481 -281q0 -14 -18 -14q-43 0 -166 191q-215 326 -215 686 q0 203 85 415.5t222 374.5q57 66 80 66q12 0 12 -15q0 -4 -8 -12q-268 -410 -268 -842q0 -322 147 -628q47 -94 88 -156q2 -2 21.5 -33t19.5 -33z" />
<glyph unicode="&#x3217;" d="M1966 561q0 -340 -215 -665q-127 -190 -168 -191q-16 0 -16 14l59 101q59 102 70 121q147 315 147 628q0 436 -235 789q-25 33 -41 65q0 14 12 15q23 0 80 -66q145 -170 226 -382t81 -429zM1751 508h-264v-643h-113v1413h113v-655h264v-115zM995 1065h-405v100h405v-100z M1206 233l-76 -92q-125 82 -197.5 162t-141.5 213q-82 -135 -169 -218t-231 -171l-90 86q123 55 236.5 157.5t156.5 215.5q18 47 25.5 112.5t9.5 116.5h-346v100h799v-100h-332q18 -225 90.5 -343t265.5 -239zM481 -281q0 -14 -18 -14q-43 0 -166 191q-215 326 -215 686 q0 203 85 415.5t222 374.5q57 66 80 66q12 0 12 -15q0 -4 -8 -12q-268 -410 -268 -842q0 -322 147 -628q47 -94 88 -156q2 -2 21.5 -33t19.5 -33z" />
<glyph unicode="&#x3218;" d="M1966 561q0 -340 -215 -665q-127 -190 -168 -191q-16 0 -16 14l59 101q59 102 70 121q147 315 147 628q0 436 -235 789q-25 33 -41 65q0 14 12 15q23 0 80 -66q145 -170 226 -382t81 -429zM1751 477h-266v-612h-113v1415h113v-692h266v-111zM1079 1073q-2 -18 -2 -56v-56 q-25 -621 -510 -826l-149 -63l-74 98q221 61 360.5 175t213.5 314l-545 -34l-39 123l608 20q14 90 21 203h-590v102h706zM481 -281q0 -14 -18 -14q-43 0 -166 191q-215 326 -215 686q0 203 85 415.5t222 374.5q57 66 80 66q12 0 12 -15q0 -4 -8 -12q-268 -410 -268 -842 q0 -322 147 -628q47 -94 88 -156q2 -2 21.5 -33t19.5 -33z" />
<glyph unicode="&#x3219;" d="M1966 561q0 -340 -215 -665q-127 -190 -168 -191q-16 0 -16 14l59 101q59 102 70 121q147 315 147 628q0 436 -235 789q-25 33 -41 65q0 14 12 15q23 0 80 -66q145 -170 226 -382t81 -429zM1751 508h-264v-643h-113v1413h113v-655h264v-115zM1284 258q-41 -8 -61 -14 q-287 -72 -688 -72h-148v885h782v-105h-659v-276h612v-109h-612v-280h59q332 0 693 80zM481 -281q0 -14 -18 -14q-43 0 -166 191q-215 326 -215 686q0 203 85 415.5t222 374.5q57 66 80 66q12 0 12 -15q0 -4 -8 -12q-268 -410 -268 -842q0 -322 147 -628q47 -94 88 -156 q2 -2 21.5 -33t19.5 -33z" />
<glyph unicode="&#x321a;" d="M1966 561q0 -340 -215 -665q-127 -190 -168 -191q-16 0 -16 14l59 101q59 102 70 121q147 315 147 628q0 436 -235 789q-25 33 -41 65q0 14 12 15q23 0 80 -66q145 -170 226 -382t81 -429zM1751 477h-266v-612h-113v1415h113v-692h266v-111zM1221 975h-861v100h861v-100z M1294 258l-952 -55l-39 112l277 7l-84 587h139l63 -581l226 12l51 569h135l-66 -561l240 14zM481 -281q0 -14 -18 -14q-43 0 -166 191q-215 326 -215 686q0 203 85 415.5t222 374.5q57 66 80 66q12 0 12 -15q0 -4 -8 -12q-268 -410 -268 -842q0 -322 147 -628 q47 -94 88 -156q2 -2 21.5 -33t19.5 -33z" />
<glyph unicode="&#x321b;" d="M1966 561q0 -340 -215 -665q-127 -190 -168 -191q-16 0 -16 14l59 101q59 102 70 121q147 315 147 628q0 436 -235 789q-25 33 -41 65q0 14 12 15q23 0 80 -66q145 -170 226 -382t81 -429zM1786 524h-266v-645h-113v1417h113v-657h266v-115zM1032 1059h-444v100h444v-100 zM1255 842h-909v102h909v-102zM1165 428q0 -141 -107.5 -229t-250.5 -88t-250.5 88t-107.5 229q0 139 108.5 228t249.5 89t249.5 -89t108.5 -228zM1047 424q0 92 -73 151.5t-167 59.5t-167 -59.5t-73 -151.5q0 -90 74 -148.5t166 -58.5t166 58.5t74 148.5zM481 -281 q0 -14 -18 -14q-43 0 -166 191q-215 326 -215 686q0 203 85 415.5t222 374.5q57 66 80 66q12 0 12 -15q0 -4 -8 -12q-268 -410 -268 -842q0 -322 147 -628q47 -94 88 -156q2 -2 21.5 -33t19.5 -33z" />
<glyph unicode="&#x321c;" d="M1966 559q0 -248 -133 -518q-174 -338 -250 -338q-16 0 -16 16q0 14 39 66q236 371 235 784q0 418 -235 789q-39 51 -39 65.5t18 14.5q39 0 164 -195q217 -334 217 -684zM1640 692q-49 -43 -79 -106q-395 115 -529 360q-94 -139 -221 -219t-319 -145q-45 66 -84 102 q430 127 561 406h-514v112h1122v-112h-483q66 -174 196.5 -257.5t349.5 -140.5zM1720 352h-635v-585h-120v585h-623v113h1378v-113zM479 -281q0 -16 -16 -16q-37 0 -166 193q-217 330 -217 684q0 330 217 663q125 195 164 195q18 0 18 -14.5t-39 -65.5 q-236 -371 -235.5 -788.5t235.5 -784.5q39 -52 39 -66z" />
<glyph unicode="&#x3260;" d="M1923 590q0 -244 -121 -451t-327.5 -327.5t-450.5 -120.5q-371 0 -636 264t-265 635q0 373 264 638t637 265q221 0 451 -123q207 -109 327.5 -324.5t120.5 -455.5zM1841 590q0 342 -237.5 581.5t-579.5 239.5t-580.5 -239.5t-238.5 -581.5q0 -340 238.5 -578.5 t580.5 -238.5t579.5 237.5t237.5 579.5zM1499 1024q-8 -344 -31 -551q-8 -86 -69 -465l-146 17q88 446 105 868h-907v131h1048z" />
<glyph unicode="&#x3261;" d="M1923 590q0 -244 -121 -451t-327.5 -327.5t-450.5 -120.5q-371 0 -636 264t-265 635q0 373 264 638t637 265q221 0 451 -123q207 -109 327.5 -324.5t120.5 -455.5zM1841 590q0 342 -237.5 581.5t-579.5 239.5t-580.5 -239.5t-238.5 -581.5q0 -340 238.5 -578.5 t580.5 -238.5t579.5 237.5t237.5 579.5zM1614 168q-528 -53 -850 -53h-209v962h143v-829h97q307 0 802 49z" />
<glyph unicode="&#x3262;" d="M1923 590q0 -244 -121 -451t-327.5 -327.5t-450.5 -120.5q-371 0 -636 264t-265 635q0 373 264 638t637 265q221 0 451 -123q207 -109 327.5 -324.5t120.5 -455.5zM1841 590q0 342 -237.5 581.5t-579.5 239.5t-580.5 -239.5t-238.5 -581.5q0 -340 238.5 -578.5 t580.5 -238.5t579.5 237.5t237.5 579.5zM1575 158q-528 -53 -852 -54h-209v953h1010v-133h-867v-684h125q313 0 777 47z" />
<glyph unicode="&#x3263;" d="M1923 590q0 -244 -121 -451t-327.5 -327.5t-450.5 -120.5q-371 0 -636 264t-265 635q0 373 264 638t637 265q221 0 451 -123q207 -109 327.5 -324.5t120.5 -455.5zM1841 590q0 342 -237.5 581.5t-579.5 239.5t-580.5 -239.5t-238.5 -581.5q0 -340 238.5 -578.5 t580.5 -238.5t579.5 237.5t237.5 579.5zM1565 113q-403 -70 -858 -70h-166v627h819v309h-819v131h962v-573h-819v-363h86q369 0 768 70z" />
<glyph unicode="&#x3264;" d="M1923 590q0 -244 -121 -451t-327.5 -327.5t-450.5 -120.5q-371 0 -636 264t-265 635q0 373 264 638t637 265q221 0 451 -123q207 -109 327.5 -324.5t120.5 -455.5zM1841 590q0 342 -237.5 581.5t-579.5 239.5t-580.5 -239.5t-238.5 -581.5q0 -340 238.5 -578.5 t580.5 -238.5t579.5 237.5t237.5 579.5zM1503 184h-962v789h962v-789zM1360 319v521h-676v-521h676z" />
<glyph unicode="&#x3265;" d="M1923 590q0 -244 -121 -451t-327.5 -327.5t-450.5 -120.5q-371 0 -636 264t-265 635q0 373 264 638t637 265q221 0 451 -123q207 -109 327.5 -324.5t120.5 -455.5zM1841 590q0 342 -237.5 581.5t-579.5 239.5t-580.5 -239.5t-238.5 -581.5q0 -340 238.5 -578.5 t580.5 -238.5t579.5 237.5t237.5 579.5zM1470 113h-897v950h144v-338h608v342h145v-954zM1325 246v344h-608v-344h608z" />
<glyph unicode="&#x3266;" d="M1923 590q0 -244 -121 -451t-327.5 -327.5t-450.5 -120.5q-371 0 -636 264t-265 635q0 373 264 638t637 265q221 0 451 -123q207 -109 327.5 -324.5t120.5 -455.5zM1841 590q0 342 -237.5 581.5t-579.5 239.5t-580.5 -239.5t-238.5 -581.5q0 -340 238.5 -578.5 t580.5 -238.5t579.5 237.5t237.5 579.5zM1530 186l-129 -82q-141 141 -221 259t-156 301q-74 -176 -169 -295t-263 -271l-125 101q193 154 308.5 307t154.5 354q16 84 16 283h152q0 -332 90 -524.5t342 -432.5z" />
<glyph unicode="&#x3267;" d="M1923 590q0 -244 -121 -451t-327.5 -327.5t-450.5 -120.5q-371 0 -636 264t-265 635q0 373 264 638t637 265q221 0 451 -123q207 -109 327.5 -324.5t120.5 -455.5zM1841 590q0 342 -237.5 581.5t-579.5 239.5t-580.5 -239.5t-238.5 -581.5q0 -340 238.5 -578.5 t580.5 -238.5t579.5 237.5t237.5 579.5zM1460 590q0 -188 -121.5 -339t-308 -151t-308.5 150.5t-122 339.5q0 193 121 342t309.5 149t309 -149t120.5 -342zM1317 590q0 131 -79 235.5t-208 104.5t-208 -104.5t-79 -235.5q0 -129 81 -234.5t206 -105.5t206 105.5t81 234.5z " />
<glyph unicode="&#x3268;" d="M1923 590q0 -244 -121 -451t-327.5 -327.5t-450.5 -120.5q-371 0 -636 264t-265 635q0 373 264 638t637 265q221 0 451 -123q207 -109 327.5 -324.5t120.5 -455.5zM1841 590q0 342 -237.5 581.5t-579.5 239.5t-580.5 -239.5t-238.5 -581.5q0 -340 238.5 -578.5 t580.5 -238.5t579.5 237.5t237.5 579.5zM1538 137l-149 -76q-133 131 -211 252t-146 297q-82 -180 -166 -292.5t-235 -256.5l-129 89q211 178 322.5 355t125.5 419h-385v131h934v-131h-395q43 -467 356 -723z" />
<glyph unicode="&#x3269;" d="M1923 590q0 -244 -121 -451t-327.5 -327.5t-450.5 -120.5q-371 0 -636 264t-265 635q0 373 264 638t637 265q221 0 451 -123q207 -109 327.5 -324.5t120.5 -455.5zM1841 590q0 342 -237.5 581.5t-579.5 239.5t-580.5 -239.5t-238.5 -581.5q0 -340 238.5 -578.5 t580.5 -238.5t579.5 237.5t237.5 579.5zM1266 1016h-488v135h488v-135zM1513 139l-124 -94q-145 145 -207 223t-156 244q-92 -162 -181 -260t-243 -209l-98 98q190 127 295.5 265.5t144.5 343.5h-389v131h934v-131h-391q14 -176 126.5 -325t288.5 -286z" />
<glyph unicode="&#x326a;" d="M1923 590q0 -244 -121 -451t-327.5 -327.5t-450.5 -120.5q-371 0 -636 264t-265 635q0 373 264 638t637 265q221 0 451 -123q207 -109 327.5 -324.5t120.5 -455.5zM1841 590q0 342 -237.5 581.5t-579.5 239.5t-580.5 -239.5t-238.5 -581.5q0 -340 238.5 -578.5 t580.5 -238.5t579.5 237.5t237.5 579.5zM1520 840q0 -510 -99 -832l-139 33q47 172 76 430l-864 -55l-39 149l911 37l12 301h-876v131h1018v-194z" />
<glyph unicode="&#x326b;" d="M1923 590q0 -244 -121 -451t-327.5 -327.5t-450.5 -120.5q-371 0 -636 264t-265 635q0 373 264 638t637 265q221 0 451 -123q207 -109 327.5 -324.5t120.5 -455.5zM1841 590q0 342 -237.5 581.5t-579.5 239.5t-580.5 -239.5t-238.5 -581.5q0 -340 238.5 -578.5 t580.5 -238.5t579.5 237.5t237.5 579.5zM1579 127q-375 -61 -870 -61h-174v1050h962v-131h-819v-321h762v-136h-762v-331h74q371 0 798 59z" />
<glyph unicode="&#x326c;" d="M1923 590q0 -244 -121 -451t-327.5 -327.5t-450.5 -120.5q-371 0 -636 264t-265 635q0 373 264 638t637 265q221 0 451 -123q207 -109 327.5 -324.5t120.5 -455.5zM1841 590q0 342 -237.5 581.5t-579.5 239.5t-580.5 -239.5t-238.5 -581.5q0 -340 238.5 -578.5 t580.5 -238.5t579.5 237.5t237.5 579.5zM1534 858h-1020v131h1020v-131zM1597 162h-1146v135h268l-53 477h159l43 -477h320l43 477h145l-41 -477h262v-135z" />
<glyph unicode="&#x326d;" d="M1923 590q0 -244 -121 -451t-327.5 -327.5t-450.5 -120.5q-371 0 -636 264t-265 635q0 373 264 638t637 265q221 0 451 -123q207 -109 327.5 -324.5t120.5 -455.5zM1841 590q0 342 -237.5 581.5t-579.5 239.5t-580.5 -239.5t-238.5 -581.5q0 -340 238.5 -578.5 t580.5 -238.5t579.5 237.5t237.5 579.5zM1268 991h-490v129h490v-129zM1534 737h-1018v131h1018v-131zM1438 330q0 -147 -128 -234.5t-282 -87.5t-282 87t-128 234.5t128 235.5t282 88q152 0 281 -89t129 -234zM1294 330q0 90 -85 139t-181 49t-181 -49t-85 -139 q0 -88 86 -137.5t180 -49.5t180 49.5t86 137.5z" />
<glyph unicode="&#x326e;" d="M1925 590q0 -371 -265 -635t-636 -264t-636 264t-265 635q0 373 264 638t637 265q221 0 451 -123q205 -109 327.5 -325.5t122.5 -454.5zM1843 590q0 342 -239.5 581.5t-579.5 239.5q-342 0 -580.5 -239.5t-238.5 -581.5q0 -340 238.5 -578.5t580.5 -238.5t580.5 238.5 t238.5 578.5zM1720 506h-256v-588h-112v1354h112v-664h256v-102zM1049 1083l-7 -102q-23 -270 -166 -485t-387 -328l-79 -37l-84 88q14 6 44.5 18.5t47.5 20.5q201 90 343 260t161 375l8 88h-539v102h658z" />
<glyph unicode="&#x326f;" d="M1925 590q0 -371 -265 -635t-636 -264t-636 264t-265 635q0 373 264 638t637 265q221 0 451 -123q205 -109 327.5 -325.5t122.5 -454.5zM1843 590q0 342 -239.5 581.5t-579.5 239.5q-342 0 -580.5 -239.5t-238.5 -581.5q0 -340 238.5 -578.5t580.5 -238.5t580.5 238.5 t238.5 578.5zM1720 506h-256v-588h-112v1354h112v-664h256v-102zM1229 346q-340 -68 -694 -67h-117v802h110v-698h47q322 0 633 63z" />
<glyph unicode="&#x3270;" d="M1925 590q0 -371 -265 -635t-636 -264t-636 264t-265 635q0 373 264 638t637 265q221 0 451 -123q205 -109 327.5 -325.5t122.5 -454.5zM1843 590q0 342 -239.5 581.5t-579.5 239.5q-342 0 -580.5 -239.5t-238.5 -581.5q0 -340 238.5 -578.5t580.5 -238.5t580.5 238.5 t238.5 578.5zM1720 506h-256v-588h-112v1354h112v-664h256v-102zM1235 307q-350 -66 -688 -65h-141v807h714v-105h-602v-598h72q297 0 629 68z" />
<glyph unicode="&#x3271;" d="M1923 590q0 -244 -121 -451t-327.5 -327.5t-450.5 -120.5q-371 0 -636 264t-265 635q0 373 264 638t637 265q221 0 451 -123q207 -109 327.5 -324.5t120.5 -455.5zM1841 590q0 342 -237.5 581.5t-579.5 239.5t-580.5 -239.5t-238.5 -581.5q0 -340 238.5 -578.5 t580.5 -238.5q340 0 578.5 238.5t238.5 578.5zM1720 506h-256v-588h-112v1354h112v-664h256v-102zM1214 229q-369 -57 -665 -57h-131v518h555v295h-555v102h667v-501h-553v-310h66q272 0 596 54z" />
<glyph unicode="&#x3272;" d="M1923 590q0 -244 -121 -451t-327.5 -327.5t-450.5 -120.5q-371 0 -636 264t-265 635q0 373 264 638t637 265q221 0 451 -123q207 -109 327.5 -324.5t120.5 -455.5zM1841 590q0 342 -237.5 581.5t-579.5 239.5t-580.5 -239.5t-238.5 -581.5q0 -340 238.5 -578.5 t580.5 -238.5q340 0 578.5 238.5t238.5 578.5zM1720 506h-254v-588h-112v1354h112v-664h254v-102zM1071 254h-655v811h655v-811zM958 356v605h-430v-605h430z" />
<glyph unicode="&#x3273;" d="M1923 590q0 -244 -121 -451t-327.5 -327.5t-450.5 -120.5q-371 0 -636 264t-265 635q0 373 264 638t637 265q221 0 451 -123q207 -109 327.5 -324.5t120.5 -455.5zM1841 590q0 342 -237.5 581.5t-579.5 239.5t-580.5 -239.5t-238.5 -581.5q0 -340 238.5 -578.5 t580.5 -238.5q340 0 578.5 238.5t238.5 578.5zM1720 506h-254v-588h-112v1354h112v-664h254v-102zM1065 217h-666v868h113v-321h440v321h113v-868zM952 319v345h-440v-345h440z" />
<glyph unicode="&#x3274;" d="M1923 590q0 -244 -121 -451t-327.5 -327.5t-450.5 -120.5q-371 0 -636 264t-265 635q0 373 264 638t637 265q221 0 451 -123q207 -109 327.5 -324.5t120.5 -455.5zM1841 590q0 342 -237.5 581.5t-579.5 239.5t-580.5 -239.5t-238.5 -581.5q0 -340 238.5 -578.5 t580.5 -238.5q340 0 578.5 238.5t238.5 578.5zM1720 506h-254v-588h-112v1354h112v-664h254v-102zM1188 256l-78 -78q-131 115 -200.5 200t-141.5 230q-76 -139 -107.5 -190t-93 -119t-166.5 -149l-94 65q174 152 272.5 289t122.5 321q10 70 11 295h112q0 -182 9.5 -280.5 t48.5 -201.5t107.5 -184t197.5 -198z" />
<glyph unicode="&#x3275;" d="M1925 590q0 -371 -265 -635t-636 -264t-636 264t-265 635q0 373 264 638t637 265q221 0 451 -123q205 -109 327.5 -325.5t122.5 -454.5zM1843 590q0 342 -239.5 581.5t-579.5 239.5q-342 0 -580.5 -239.5t-238.5 -581.5q0 -340 238.5 -578.5t580.5 -238.5t580.5 238.5 t238.5 578.5zM1720 537h-254v-619h-112v1350h112v-627h254v-104zM1112 666q0 -174 -100.5 -318.5t-266 -144.5t-266 144.5t-100.5 318.5q0 172 100.5 314t266 142t266 -142t100.5 -314zM999 666q0 129 -66.5 241.5t-187.5 112.5q-119 0 -186 -113.5t-67 -240.5 q0 -129 67.5 -242t185.5 -113q121 0 187.5 112t66.5 243z" />
<glyph unicode="&#x3276;" d="M1925 590q0 -371 -265 -635t-636 -264t-636 264t-265 635q0 373 264 638t637 265q221 0 451 -123q205 -109 327.5 -325.5t122.5 -454.5zM1843 590q0 342 -239.5 581.5t-579.5 239.5q-342 0 -580.5 -239.5t-238.5 -581.5q0 -340 238.5 -578.5t580.5 -238.5t580.5 238.5 t238.5 578.5zM1720 537h-252v-619h-112v1350h112v-627h252v-104zM1247 260l-82 -78q-135 106 -209.5 194.5t-146.5 233.5q-88 -162 -175 -254t-247 -198l-88 80q172 86 304 258t140 354l7 131h-342v102h794v-102h-330q0 -268 77 -410.5t298 -310.5z" />
<glyph unicode="&#x3277;" d="M1925 590q0 -371 -265 -635t-636 -264t-636 264t-265 635q0 373 264 638t637 265q221 0 451 -123q205 -109 327.5 -325.5t122.5 -454.5zM1843 590q0 342 -239.5 581.5t-579.5 239.5q-342 0 -580.5 -239.5t-238.5 -581.5q0 -340 238.5 -578.5t580.5 -238.5t580.5 238.5 t238.5 578.5zM1720 537h-254v-619h-112v1350h112v-627h254v-104zM995 1069h-385v102h385v-102zM1196 274l-72 -88q-121 78 -190.5 155t-134.5 204q-72 -125 -156 -203t-227 -172l-86 82q82 49 138 88t119.5 98.5t99.5 130t44 152.5l10 110h-333v101h766v-101h-318 q8 -203 85 -324.5t255 -232.5z" />
<glyph unicode="&#x3278;" d="M1925 590q0 -371 -265 -635t-636 -264t-636 264t-265 635q0 373 264 638t637 265q221 0 451 -123q205 -109 327.5 -325.5t122.5 -454.5zM1843 590q0 342 -239.5 581.5t-579.5 239.5q-342 0 -580.5 -239.5t-238.5 -581.5q0 -340 238.5 -578.5t580.5 -238.5t580.5 238.5 t238.5 578.5zM1720 506h-256v-588h-112v1354h112v-664h256v-102zM1075 1081q-2 -88 -10 -205.5t-35 -201.5q-49 -164 -169 -299t-275 -197l-146 -57l-69 92q35 14 63 23q184 61 301 164.5t185 279.5l-523 -33l-37 119l582 18q16 133 21 195h-566v102h678z" />
<glyph unicode="&#x3279;" d="M1925 590q0 -371 -265 -635t-636 -264t-636 264t-265 635q0 373 264 638t637 265q221 0 451 -123q205 -109 327.5 -325.5t122.5 -454.5zM1843 590q0 342 -239.5 581.5t-579.5 239.5q-342 0 -580.5 -239.5t-238.5 -581.5q0 -340 238.5 -578.5t580.5 -238.5t580.5 238.5 t238.5 578.5zM1720 537h-254v-619h-112v1350h112v-627h254v-104zM1272 299q-285 -82 -723 -82h-137v848h749v-100h-635v-269h590v-102h-590v-270h56q332 0 667 79z" />
<glyph unicode="&#x327a;" d="M1925 590q0 -371 -265 -635t-636 -264t-636 264t-265 635q0 373 264 638t637 265q221 0 451 -123q205 -109 327.5 -325.5t122.5 -454.5zM1843 590q0 342 -239.5 581.5t-579.5 239.5q-342 0 -580.5 -239.5t-238.5 -581.5q0 -340 238.5 -578.5t580.5 -238.5t580.5 238.5 t238.5 578.5zM1720 506h-256v-588h-112v1354h112v-664h256v-102zM1212 981h-823v102h823v-102zM1282 297l-913 -55l-35 110l262 6l-80 564h125l70 -560l215 13l49 547h131l-64 -539l228 12z" />
<glyph unicode="&#x327b;" d="M1925 590q0 -371 -265 -635t-636 -264t-636 264t-265 635q0 373 264 638t637 265q221 0 451 -123q205 -109 327.5 -325.5t122.5 -454.5zM1843 590q0 342 -239.5 581.5t-579.5 239.5q-342 0 -580.5 -239.5t-238.5 -581.5q0 -340 238.5 -578.5t580.5 -238.5t580.5 238.5 t238.5 578.5zM1720 537h-254v-619h-112v1350h112v-627h254v-104zM1032 1065h-426v98h426v-98zM1247 856h-872v102h872v-102zM1159 459q0 -135 -103.5 -219t-240.5 -84q-135 0 -238.5 85t-103.5 218t103.5 219t238.5 86q137 0 240.5 -85t103.5 -220zM1047 457q0 88 -71 144 t-161 56t-159.5 -56t-69.5 -144q0 -86 70.5 -143.5t158.5 -57.5q90 0 161 57.5t71 143.5z" />
<glyph unicode="&#x327f;" d="M1835 887h-166q-61 193 -250.5 311.5t-398.5 118.5q-301 0 -499.5 -182.5t-213.5 -481.5h277v-125h-422q0 8 -1 29t-1 29q0 373 236.5 618.5t609.5 245.5q291 0 505.5 -147.5t323.5 -415.5zM1356 924l-287 -265l268 -401h-180l-188 305l-74 -65v-240h-158v670h158v-238 l256 234h205zM1878 653v-18q0 -274 -126 -495.5t-366 -327.5q-164 -74 -331 -74q-297 0 -516.5 144.5t-327.5 416.5h156q109 -211 268.5 -317.5t388.5 -106.5q299 0 488.5 178t216.5 475h-398v125h547z" />
<glyph unicode="&#x33c2;" d="M1952 157.5q0 -32.5 -22.5 -52t-55.5 -19.5t-55.5 19.5t-22.5 52.5q0 72 78 71q33 0 55.5 -19.5t22.5 -52zM1745 84h-127v612q0 33 -27.5 55.5t-62.5 22.5q-37 0 -60.5 -38t-23.5 -77v-575h-121v594q0 35 -26.5 61.5t-61.5 26.5q-51 0 -82 -51v-631h-129v782h129v-53 q55 45 121 45q68 0 129 -74q66 78 162 78q72 0 126 -51t54 -123v-604zM965 157.5q0 -32.5 -23.5 -52t-56.5 -19.5q-31 0 -53.5 20.5t-22.5 51.5q0 72 76 71q33 0 56.5 -19.5t23.5 -52zM799 90l-11 -10q-176 0 -221 67q-72 -59 -188 -59q-121 0 -202 59.5t-81 176.5 q0 100 89 168.5t192 68.5q51 0 164 -39v142q0 49 -48.5 75.5t-101.5 26.5q-68 0 -103.5 -49t-35.5 -119h-133q0 123 73.5 202t196.5 79q115 0 196 -65.5t81 -178.5v-369q0 -92 133 -92v-84zM541 225v183q0 18 -67.5 30.5t-102.5 12.5q-57 0 -100.5 -39t-43.5 -95 q0 -63 58.5 -95t130.5 -32q66 0 125 35z" />
<glyph unicode="&#x33c7;" d="M1927 145q0 -45 -29.5 -73.5t-74.5 -28.5q-47 0 -76 27.5t-29 74.5q0 49 28 77t77 28q45 0 74.5 -29t29.5 -76zM1782 518.5q0 -192.5 -103.5 -334t-288 -141.5t-285.5 141.5t-101 333.5q0 195 100 337t286.5 142t289 -143t102.5 -335.5zM1645 520q0 86 -24 165t-84 139.5 t-151 60.5q-88 0 -146 -61.5t-80.5 -139.5t-22.5 -164q0 -82 22.5 -160.5t81.5 -141t145 -62.5q127 0 193 113.5t66 250.5zM946 465q0 -170 -109.5 -302t-277.5 -132q-106 0 -187 51t-127 128t-76 182.5t-39 196.5t-9 187q0 86 12 177t44 189.5t79 175.5t125 126t176 49 q156 0 263.5 -106.5t107.5 -262.5l-131 -4q0 102 -73 185.5t-175 83.5q-84 0 -144.5 -71t-90 -178.5t-42 -200.5t-12.5 -173q0 -90 12.5 -182t43 -197.5t98 -171t161.5 -65.5q80 0 158 77v-2q90 96 90 250h113z" />
<glyph unicode="&#x33d8;" d="M1911 157.5q0 -32.5 -23.5 -52t-56.5 -19.5t-53.5 19.5t-20.5 52.5q0 74 74 73q33 0 56.5 -20.5t23.5 -53zM1702 84h-127v614q0 35 -27.5 57.5t-62.5 22.5q-33 0 -56.5 -40t-23.5 -76v-578h-123v594q0 37 -24.5 64.5t-61.5 27.5q-49 0 -88 -53v-633h-125v788h125v-59 q51 49 129 49q61 0 125 -76q70 80 160 80q70 0 125 -52t55 -122v-608zM926 158q0 -33 -23.5 -52.5t-58.5 -19.5q-33 0 -55.5 20.5t-22.5 51.5q0 74 78 73q35 0 58.5 -19t23.5 -54zM737 506q0 -143 -78.5 -255t-216.5 -112q-45 0 -98 29t-84 65v-368h-125v1030h127v-76 q68 84 203 84q102 0 165.5 -65.5t85 -148.5t21.5 -183zM608 514q0 59 -6 102t-24.5 88.5t-58.5 70t-99 24.5q-51 0 -105.5 -36t-54.5 -85v-324q0 -43 50 -72.5t98 -29.5q23 0 47 6h-2q78 20 116.5 93t38.5 163z" />
<glyph unicode="&#xac00;" d="M1315 1155q0 -236 -185 -704q-47 -117 -115.5 -262.5t-105.5 -174.5q-16 -14 -41 -14q-20 0 -35.5 13.5t-15.5 33.5q0 27 19 41l118 225q86 172 159 424t87 441q-45 115 -323 114h-132q-84 0 -177 -21.5t-169.5 -53t-169.5 -64.5q-16 -4 -22 -4q-23 0 -37 14.5t-14 34.5 q0 29 32 51q109 78 316 118t381 40q94 0 183 -18.5t168 -79t79 -154.5zM1862 721q0 -16 -5.5 -24.5t-13.5 -12.5l-20 -10q-162 -74 -281 -160v-166q0 -82 7 -248t7 -250q0 -57 -57 -57q-37 0 -47 51q-16 84 -16 230q0 229 6 686t6 686q0 53 53 53q55 0 55 -92 q0 -256 -12 -764q57 41 141 87t125 46q20 0 36 -16t16 -39z" />
<glyph unicode="&#xac01;" d="M1100 1133q0 -59 -132 -280.5t-149 -289.5q-2 -29 -17.5 -67.5t-49.5 -38.5q-53 0 -54 49q0 74 71 204t142.5 247.5t71.5 164.5q0 90 -86 132t-188 42q-129 0 -232.5 -29.5t-236.5 -92.5q-27 -10 -31 -11q-20 0 -35.5 17.5t-15.5 38.5q0 23 26 45q84 68 225.5 102.5 t272.5 34.5q100 0 187 -19.5t159 -84t72 -164.5zM1690 123q0 -70 -38 -197t-87 -127q-23 0 -39.5 15.5t-16.5 35.5q0 23 13 35l-2 -10q6 20 25.5 73.5t29.5 92.5t10 78q0 53 -17.5 86t-54 47t-69.5 18t-88 4q-350 0 -709 -102q-25 -6 -26 -6q-20 0 -35 15.5t-15 35.5 q0 31 33 49q16 8 111 23q133 25 317.5 52.5t321.5 27.5q82 0 134 -7.5t102 -31t75 -74.5t25 -133zM1874 1061q0 -33 -15.5 -43t-50.5 -10q-170 0 -260 -45q0 -57 1 -171t1 -171q0 -53 -49 -54q-55 0 -55 51l-10 857q0 25 13 41t38 16q45 0 55 -53q8 -59 10 -124t-1 -153 t-3 -125q80 35 256 35q70 0 70 -51z" />
<glyph unicode="&#xac04;" d="M1100 1133q0 -59 -132 -280.5t-149 -289.5q-2 -29 -17.5 -67.5t-49.5 -38.5q-53 0 -54 49q0 74 71 204t142.5 247.5t71.5 164.5q0 90 -86 132t-188 42q-129 0 -232.5 -29.5t-236.5 -92.5q-27 -10 -31 -11q-20 0 -35.5 17.5t-15.5 38.5q0 23 26 45q84 68 225.5 102.5 t272.5 34.5q100 0 187 -19.5t159 -84t72 -164.5zM1712 -61q0 -33 -16.5 -43.5t-53.5 -10.5q-98 0 -232 -20.5t-230 -38.5q-55 -10 -97 -10q-37 -14 -84 -15q-162 0 -263 138.5t-101 306.5q0 139 59 139q57 0 58 -47q0 -18 -3.5 -51t-3.5 -49q0 -96 39 -187.5t117 -118.5 q41 -14 131 -14q102 0 299 36t299 36q27 0 40 -2t27.5 -13t14.5 -36zM1874 1061q0 -33 -15.5 -43t-50.5 -10q-170 0 -260 -45q0 -88 1 -265.5t1 -265.5q0 -115 -57 -115q-18 0 -35.5 14.5t-17.5 33.5q0 41 3 122.5t3 122.5q0 143 -5 432t-5 433q0 25 13 41t38 16 q27 0 39 -12.5t16 -40.5q10 -55 10 -168q0 -39 -2 -117t-2 -117q80 35 256 35q70 0 70 -51z" />
<glyph unicode="&#xac07;" d="M1100 1133q0 -59 -132 -280.5t-149 -289.5q-2 -29 -17.5 -67.5t-49.5 -38.5q-53 0 -54 49q0 74 71 204t142.5 247.5t71.5 164.5q0 90 -86 132t-188 42q-129 0 -232.5 -29.5t-236.5 -92.5q-27 -10 -31 -11q-20 0 -35.5 17.5t-15.5 38.5q0 23 26 45q84 68 225.5 102.5 t272.5 34.5q100 0 187 -19.5t159 -84t72 -164.5zM1708 -82q0 -49 -49 -49q-16 0 -49 2t-49 2q-102 0 -303 -31.5t-304 -31.5q-162 0 -224 110.5t-46 278.5h-8q-68 0 -68 49q0 31 9.5 41t39.5 14q39 6 117 10t115 11q57 10 205.5 40.5t256 46t210.5 15.5q55 0 55 -53 q0 -51 -55 -51q-145 0 -407.5 -54.5t-362.5 -64.5q-4 -49 -5 -72q0 -221 179 -221q51 0 233 29q250 41 416 41q94 -1 94 -62zM1874 1061q0 -33 -15.5 -43t-50.5 -10q-170 0 -260 -45q0 -57 1 -171t1 -171q0 -53 -49 -54q-55 0 -55 51l-10 857q0 25 13 41t38 16q45 0 55 -53 q8 -59 10 -124t-1 -153t-3 -125q80 35 256 35q70 0 70 -51z" />
<glyph unicode="&#xac08;" d="M1100 1133q0 -59 -132 -280.5t-149 -289.5q-2 -29 -17.5 -67.5t-49.5 -38.5q-53 0 -54 49q0 74 71 204t142.5 247.5t71.5 164.5q0 90 -86 132t-188 42q-129 0 -232.5 -29.5t-236.5 -92.5q-27 -10 -31 -11q-20 0 -35.5 17.5t-15.5 38.5q0 23 26 45q84 68 225.5 102.5 t272.5 34.5q100 0 187 -19.5t159 -84t72 -164.5zM1765 -70q0 -49 -57 -49q-25 0 -76 2t-76 2q-100 0 -292.5 -48t-292.5 -48q-74 0 -176.5 37t-102.5 94q0 51 210 114.5t434.5 125t244.5 106.5q-39 59 -141 60q-76 0 -223 -33q-332 -76 -519 -76q-123 0 -123 55q0 57 56 58 q12 0 34.5 -2t34.5 -2q135 0 380 49t315 57q37 4 57 4q82 0 158 -44t76 -122q0 -72 -62 -120q-66 -51 -383 -131t-381 -107q35 -12 109 -12q90 0 248.5 40t228.5 46q68 6 203 6q116 -1 116 -62zM1874 1061q0 -33 -15.5 -43t-50.5 -10q-170 0 -260 -45q0 -57 1 -171t1 -171 q0 -53 -49 -54q-55 0 -55 51l-10 857q0 25 13 41t38 16q45 0 55 -53q8 -59 10 -124t-1 -153t-3 -125q80 35 256 35q70 0 70 -51z" />
<glyph unicode="&#xac09;" d="M1100 1133q0 -59 -132 -280.5t-149 -289.5q-2 -29 -17.5 -67.5t-49.5 -38.5q-53 0 -54 49q0 74 71 204t142.5 247.5t71.5 164.5q0 90 -86 132t-188 42q-129 0 -232.5 -29.5t-236.5 -92.5q-27 -10 -31 -11q-20 0 -35.5 17.5t-15.5 38.5q0 23 26 45q84 68 225.5 102.5 t272.5 34.5q100 0 187 -19.5t159 -84t72 -164.5zM1751 248q0 -145 -139 -434q-18 -39 -49 -39q-53 0 -54 49q0 55 63.5 190.5t63.5 208.5q0 39 -22 92q-51 33 -98 33q-51 0 -112 -34.5t-104 -70.5t-53 -36q-25 0 -41 16.5t-16 42.5q0 29 73.5 83t118.5 75q63 29 117 29 q94 0 173 -57.5t79 -147.5zM776 -203q-238 0 -237 105q0 39 11 72.5t31.5 60t48 51.5t59.5 42t67 34.5t70.5 29t69.5 23.5t65 21q12 4 19 7t11 9t4 20q0 6 -4 19q-57 29 -119 28q-63 0 -182 -49t-131 -49q-23 0 -39 15.5t-16 35.5q0 61 146.5 107.5t228.5 46.5 q90 0 155.5 -37t65.5 -121q0 -66 -61.5 -107.5t-137.5 -61t-149.5 -61.5t-94.5 -104v-4q-4 -37 185 -36q29 0 86 2t88 2q174 0 174 -66q0 -51 -74 -51q-10 0 -72 10q-39 6 -80.5 8t-104.5 0t-83 -2zM1874 1061q0 -33 -15.5 -43t-50.5 -10q-170 0 -260 -45q0 -57 1 -171 t1 -171q0 -53 -49 -54q-55 0 -55 51l-10 857q0 25 13 41t38 16q45 0 55 -53q8 -59 10 -124t-1 -153t-3 -125q80 35 256 35q70 0 70 -51z" />
<glyph unicode="&#xac0a;" d="M1100 1133q0 -59 -132 -280.5t-149 -289.5q-2 -29 -17.5 -67.5t-49.5 -38.5q-53 0 -54 49q0 74 71 204t142.5 247.5t71.5 164.5q0 90 -86 132t-188 42q-129 0 -232.5 -29.5t-236.5 -92.5q-27 -10 -31 -11q-20 0 -35.5 17.5t-15.5 38.5q0 23 26 45q84 68 225.5 102.5 t272.5 34.5q100 0 187 -19.5t159 -84t72 -164.5zM1759 147q0 -113 -35 -256q6 -12 7 -26q0 -45 -56 -51q-68 -10 -202 -11q-37 -2 -122 -1t-114 18q-123 -12 -309 -13q-29 -4 -98.5 -0.5t-141.5 8.5t-127 29.5t-55 63.5q0 59 46 103t113.5 71t135 53.5t118 65.5t56.5 92 q-14 33 -57 33q-78 0 -235 -55.5t-175.5 -55.5t-33.5 18.5t-15 36.5q0 57 174 107.5t256 50.5q74 0 135 -20q57 -53 57 -119q0 -100 -80.5 -158.5t-202.5 -104.5t-167 -87q211 -31 385 -31q35 0 198 10q10 70 11.5 198t5.5 177q12 111 65 110q35 0 44.5 -19t7.5 -56 q164 80 241 80q55 0 92 -21.5t52.5 -63.5t20.5 -81.5t5 -94.5zM1638 287q-37 14 -61 14q-41 0 -132 -43t-112 -49q-4 -164 -14 -299q49 0 145.5 5t145.5 5q51 80 51 230q0 84 -23 137zM1874 1061q0 -33 -15.5 -43t-50.5 -10q-170 0 -260 -45q0 -57 1 -171t1 -171 q0 -53 -49 -54q-55 0 -55 51l-10 857q0 25 13 41t38 16q45 0 55 -53q8 -59 10 -124t-1 -153t-3 -125q80 35 256 35q70 0 70 -51z" />
<glyph unicode="&#xac0b;" d="M1100 1133q0 -59 -132 -280.5t-149 -289.5q-2 -29 -17.5 -67.5t-49.5 -38.5q-53 0 -54 49q0 74 71 204t142.5 247.5t71.5 164.5q0 90 -86 132t-188 42q-129 0 -232.5 -29.5t-236.5 -92.5q-27 -10 -31 -11q-20 0 -35.5 17.5t-15.5 38.5q0 23 26 45q84 68 225.5 102.5 t272.5 34.5q100 0 187 -19.5t159 -84t72 -164.5zM1763 346q0 -82 -51 -235.5t-51 -235.5q-55 -80 -152 -80q-84 0 -145 68q-16 -59 -59 -60q-27 0 -41 37q-18 -27 -84 -26q-14 0 -44 2t-44 2q-39 0 -115 -5.5t-113 -5.5q-31 0 -93 4.5t-93 4.5q-152 0 -168 98 q25 94 103.5 155.5t194.5 116t167 95.5q0 2 1 4t1 4q0 16 -35 16q-72 0 -208 -37t-208 -37q-23 0 -37 14.5t-14 37.5q0 45 94 67q25 6 72 12.5t72 12.5q170 35 209 35q176 0 176 -97q0 -68 -97.5 -136t-221.5 -135t-158 -114q82 -14 213 -14q47 0 137 3t137 3q74 0 133 -8 q-35 162 -35 407q0 78 58 78q47 0 53 -77.5t-2 -112.5q0 -129 14 -211q18 63 78.5 102t128.5 39q41 0 72 -16q8 25 51 229q6 31 16.5 42t38.5 11q49 0 49 -57zM1575 23q-29 8 -43 8q-35 0 -66.5 -16.5t-31.5 -49.5q0 -29 25.5 -46t53.5 -17q25 0 35 8q13 74 27 113z M1874 1061q0 -33 -15.5 -43t-50.5 -10q-170 0 -260 -45q0 -57 1 -171t1 -171q0 -53 -49 -54q-55 0 -55 51l-10 857q0 25 13 41t38 16q45 0 55 -53q8 -59 10 -124t-1 -153t-3 -125q80 35 256 35q70 0 70 -51z" />
<glyph unicode="&#xac10;" d="M1100 1133q0 -59 -132 -280.5t-149 -289.5q-2 -29 -17.5 -67.5t-49.5 -38.5q-53 0 -54 49q0 74 71 204t142.5 247.5t71.5 164.5q0 90 -86 132t-188 42q-129 0 -232.5 -29.5t-236.5 -92.5q-27 -10 -31 -11q-20 0 -35.5 17.5t-15.5 38.5q0 23 26 45q84 68 225.5 102.5 t272.5 34.5q100 0 187 -19.5t159 -84t72 -164.5zM1640 244q0 -29 -18 -90.5t-37.5 -115.5t-48.5 -127t-35 -91q-86 0 -255 2t-253 2h-110q-23 0 -70 -6t-63 -6q-35 0 -52 38q-4 14 -14 70q-8 45 -58.5 190.5t-50.5 231.5q0 55 54 55q61 0 53 -75q94 6 297 56t315 50 q51 0 104.5 -8t111 -26.5t94 -57.5t36.5 -92zM1520 254q-45 74 -174 74q-115 0 -328 -54.5t-318 -58.5q29 -68 95 -295q266 8 637 4q6 47 47 151.5t41 168.5v10zM1874 1061q0 -33 -15.5 -43t-50.5 -10q-170 0 -260 -45q0 -57 1 -171t1 -171q0 -53 -49 -54q-55 0 -55 51 l-10 857q0 25 13 41t38 16q45 0 55 -53q8 -59 10 -124t-1 -153t-3 -125q80 35 256 35q70 0 70 -51z" />
<glyph unicode="&#xac11;" d="M1100 1133q0 -59 -132 -280.5t-149 -289.5q-2 -29 -17.5 -67.5t-49.5 -38.5q-53 0 -54 49q0 74 71 204t142.5 247.5t71.5 164.5q0 90 -86 132t-188 42q-129 0 -232.5 -29.5t-236.5 -92.5q-27 -10 -31 -11q-20 0 -35.5 17.5t-15.5 38.5q0 23 26 45q84 68 225.5 102.5 t272.5 34.5q100 0 187 -19.5t159 -84t72 -164.5zM1751 328q0 -16 -6 -38t-17.5 -49.5t-15.5 -37.5q-43 -123 -63 -211q-2 -8 -14.5 -75t-26.5 -95q-20 -37 -47 -37q-23 0 -39.5 12.5t-16.5 32.5q-2 0 -62.5 3t-94 5t-100 9.5t-107.5 18.5t-87 27.5t-68.5 42t-22.5 58.5 q0 104 111.5 164.5t223.5 60.5q154 0 285 -72q6 41 40 134.5t77 93.5q51 0 51 -47zM870 -141q0 -25 -13 -41.5t-38 -16.5q-43 0 -55 62q-2 14 -8 100q-8 78 -33 187q-4 20 -16.5 63t-18.5 77t-6 64q0 23 17.5 36t39.5 13q35 0 47 -47q84 -272 84 -497zM1548 45 q-109 70 -245 70q-141 0 -228 -92q0 -2 -1 -4.5t-1 -4.5q0 -25 104.5 -44t194.5 -25t150 -8q3 28 26 108zM1874 1061q0 -33 -15.5 -43t-50.5 -10q-170 0 -260 -45q0 -57 1 -171t1 -171q0 -53 -49 -54q-55 0 -55 51l-10 857q0 25 13 41t38 16q45 0 55 -53q8 -59 10 -124 t-1 -153t-3 -125q80 35 256 35q70 0 70 -51z" />
<glyph unicode="&#xac12;" d="M1100 1133q0 -59 -132 -280.5t-149 -289.5q-2 -29 -17.5 -67.5t-49.5 -38.5q-53 0 -54 49q0 74 71 204t142.5 247.5t71.5 164.5q0 90 -86 132t-188 42q-129 0 -232.5 -29.5t-236.5 -92.5q-27 -10 -31 -11q-20 0 -35.5 17.5t-15.5 38.5q0 23 26 45q84 68 225.5 102.5 t272.5 34.5q100 0 187 -19.5t159 -84t72 -164.5zM1837 -100q0 -51 -53 -52q-18 0 -46 36t-56.5 81t-81 91t-109.5 61q-158 -137 -301 -338q-23 -31 -41 -31q-25 0 -42 14.5t-17 36.5q0 6 10 27q63 109 166.5 222.5t182.5 181t214 178.5q18 14 33 14q23 0 39 -15.5t16 -37.5 q0 -20 -36 -58.5t-73.5 -66t-62.5 -47.5q78 -37 145.5 -113t106.5 -160q6 -12 6 -24zM1098 346q0 -406 -76 -518q-23 -37 -92 -37q-82 0 -147.5 54.5t-65.5 134.5q0 59 50 95t114 36q45 0 100 -21q4 61 4 186q0 127 62 127q25 0 38 -16t13 -41zM688 -164q0 -47 -59 -47 q-63 0 -64 193q0 61 2 183t2 181q0 55 52 55q57 0 57 -92q0 -43 -3 -128t-3 -128q0 -35 8 -107.5t8 -109.5zM965 -16q-57 25 -88 24q-53 0 -54 -37q0 -31 34 -52t69 -21h8zM1874 1061q0 -33 -15.5 -43t-50.5 -10q-170 0 -260 -45q0 -57 1 -171t1 -171q0 -53 -49 -54 q-55 0 -55 51l-10 857q0 25 13 41t38 16q45 0 55 -53q8 -59 10 -124t-1 -153t-3 -125q80 35 256 35q70 0 70 -51z" />
<glyph unicode="&#xac13;" d="M1100 1133q0 -59 -132 -280.5t-149 -289.5q-2 -29 -17.5 -67.5t-49.5 -38.5q-53 0 -54 49q0 74 71 204t142.5 247.5t71.5 164.5q0 90 -86 132t-188 42q-129 0 -232.5 -29.5t-236.5 -92.5q-27 -10 -31 -11q-20 0 -35.5 17.5t-15.5 38.5q0 23 26 45q84 68 225.5 102.5 t272.5 34.5q100 0 187 -19.5t159 -84t72 -164.5zM1540 -131q0 -20 -14.5 -35.5t-34.5 -15.5q-31 0 -250 172t-246 188q-55 -55 -160.5 -180t-164.5 -184q-25 -25 -47.5 -25t-36 17.5t-13.5 37.5q0 39 132.5 186.5t281 277.5t187.5 130q23 0 38 -16t15 -37q0 -23 -77 -76 t-79 -55q51 -31 101.5 -69t119 -93t92.5 -76q18 -14 63.5 -45.5t68.5 -52.5q24 -22 24 -49zM1874 1061q0 -33 -15.5 -43t-50.5 -10q-170 0 -260 -45q0 -88 1 -265.5t1 -265.5q0 -115 -57 -115q-18 0 -35.5 14.5t-17.5 33.5q0 41 3 122.5t3 122.5q0 143 -5 432t-5 433 q0 25 13 41t38 16q27 0 39 -12.5t16 -40.5q10 -55 10 -168q0 -39 -2 -117t-2 -117q80 35 256 35q70 0 70 -51z" />
<glyph unicode="&#xac14;" d="M1100 1133q0 -59 -132 -280.5t-149 -289.5q-2 -29 -17.5 -67.5t-49.5 -38.5q-53 0 -54 49q0 74 71 204t142.5 247.5t71.5 164.5q0 90 -86 132t-188 42q-129 0 -232.5 -29.5t-236.5 -92.5q-27 -10 -31 -11q-20 0 -35.5 17.5t-15.5 38.5q0 23 26 45q84 68 225.5 102.5 t272.5 34.5q100 0 187 -19.5t159 -84t72 -164.5zM1733 -80q0 -20 -14.5 -35.5t-35.5 -15.5q-55 0 -160.5 98.5t-152.5 169.5q-18 -18 -77.5 -104t-116 -143.5t-103.5 -57.5q-41 0 -140 68.5t-159 122.5q-115 -160 -139.5 -160t-43 13t-18.5 38q0 57 212 281.5t268 224.5 q20 0 37.5 -15.5t17.5 -35.5q0 -23 -25 -45q-182 -160 -239 -224q29 -29 66.5 -55.5t85.5 -57t73 -46.5q74 61 150.5 165.5t128.5 184.5q102 145 147 145q20 0 34.5 -15t14.5 -36q0 -12 -46 -78.5t-52 -85.5q39 -76 114.5 -141.5t143.5 -112.5q29 -20 29 -47zM1874 1061 q0 -33 -15.5 -43t-50.5 -10q-170 0 -260 -45q0 -57 1 -171t1 -171q0 -53 -49 -54q-55 0 -55 51l-10 857q0 25 13 41t38 16q45 0 55 -53q8 -59 10 -124t-1 -153t-3 -125q80 35 256 35q70 0 70 -51z" />
<glyph unicode="&#xac15;" d="M1100 1133q0 -59 -132 -280.5t-149 -289.5q-2 -29 -17.5 -67.5t-49.5 -38.5q-53 0 -54 49q0 74 71 204t142.5 247.5t71.5 164.5q0 90 -86 132t-188 42q-129 0 -232.5 -29.5t-236.5 -92.5q-27 -10 -31 -11q-20 0 -35.5 17.5t-15.5 38.5q0 23 26 45q84 68 225.5 102.5 t272.5 34.5q100 0 187 -19.5t159 -84t72 -164.5zM1532 104q0 -102 -68.5 -179t-163 -110.5t-194.5 -33.5q-74 0 -140.5 8t-141 31.5t-118.5 76t-44 128.5q0 125 91 225t218 147v2q43 8 98 9q84 0 188.5 -35t189.5 -108t85 -161zM1425 98q0 70 -132 144.5t-212 74.5 q-102 0 -209.5 -87t-107.5 -187q0 -80 116.5 -120t219.5 -40q72 0 142.5 19.5t126.5 70.5t56 125zM1874 1061q0 -33 -15.5 -43t-50.5 -10q-170 0 -260 -45q0 -57 1 -171t1 -171q0 -53 -49 -54q-55 0 -55 51l-10 857q0 25 13 41t38 16q45 0 55 -53q8 -59 10 -124t-1 -153 t-3 -125q80 35 256 35q70 0 70 -51z" />
<glyph unicode="&#xac16;" d="M1100 1133q0 -59 -132 -280.5t-149 -289.5q-2 -29 -17.5 -67.5t-49.5 -38.5q-53 0 -54 49q0 74 71 204t142.5 247.5t71.5 164.5q0 90 -86 132t-188 42q-129 0 -232.5 -29.5t-236.5 -92.5q-27 -10 -31 -11q-20 0 -35.5 17.5t-15.5 38.5q0 23 26 45q84 68 225.5 102.5 t272.5 34.5q100 0 187 -19.5t159 -84t72 -164.5zM1651 -150q0 -18 -15.5 -35.5t-33.5 -17.5q-20 0 -43 19q-68 49 -115 85t-107.5 60.5t-142.5 34.5q-12 -6 -109.5 -60.5t-176.5 -96.5t-93 -42q-45 0 -45 58q0 43 168 130t347 169t196 108l-2 2q-78 27 -166 27 q-154 0 -328 -62q-10 -4 -90 -35.5t-144.5 -54t-78.5 -22.5q-20 0 -35.5 17.5t-15.5 37.5q0 35 64.5 62.5t94.5 31.5q98 31 180 60.5t181.5 50t187.5 20.5q82 0 179.5 -31.5t97.5 -95.5q0 -82 -254 -209q84 -31 191.5 -95.5t107.5 -115.5zM1874 1061q0 -33 -15.5 -43 t-50.5 -10q-170 0 -260 -45q0 -57 1 -171t1 -171q0 -53 -49 -54q-55 0 -55 51l-10 857q0 25 13 41t38 16q45 0 55 -53q8 -59 10 -124t-1 -153t-3 -125q80 35 256 35q70 0 70 -51z" />
<glyph unicode="&#xac17;" d="M1100 1133q0 -59 -132 -280.5t-149 -289.5q-2 -29 -17.5 -67.5t-49.5 -38.5q-53 0 -54 49q0 74 71 204t142.5 247.5t71.5 164.5q0 90 -86 132t-188 42q-129 0 -232.5 -29.5t-236.5 -92.5q-27 -10 -31 -11q-20 0 -35.5 17.5t-15.5 38.5q0 23 26 45q84 68 225.5 102.5 t272.5 34.5q100 0 187 -19.5t159 -84t72 -164.5zM1634 -168q0 -20 -14 -35.5t-37 -15.5q-16 0 -193.5 85t-209.5 95q-94 -29 -165 -48t-147.5 -54t-150.5 -88q-25 -20 -43 -21q-47 0 -47 57q0 109 395 216q205 55 297 98q-123 6 -244 6q-92 0 -274.5 -13.5t-272.5 -13.5 q-49 0 -49 58q0 39 51 49q113 25 437 24h53q-31 29 -81 55.5t-87 43.5q-39 20 -39 49q0 20 12.5 36.5t32.5 16.5q72 0 156 -62.5t149 -138.5q57 -2 105.5 0t107 -2t105.5 -14t47 -43q0 -14 -2 -20q-55 -70 -201 -136q39 -16 107.5 -41.5t135 -67.5t66.5 -75zM1874 1061 q0 -33 -15.5 -43t-50.5 -10q-170 0 -260 -45q0 -57 1 -171t1 -171q0 -53 -49 -54q-55 0 -55 51l-10 857q0 25 13 41t38 16q45 0 55 -53q8 -59 10 -124t-1 -153t-3 -125q80 35 256 35q70 0 70 -51z" />
<glyph unicode="&#xac19;" d="M1100 1133q0 -59 -132 -280.5t-149 -289.5q-2 -29 -17.5 -67.5t-49.5 -38.5q-53 0 -54 49q0 74 71 204t142.5 247.5t71.5 164.5q0 90 -86 132t-188 42q-129 0 -232.5 -29.5t-236.5 -92.5q-27 -10 -31 -11q-20 0 -35.5 17.5t-15.5 38.5q0 23 26 45q84 68 225.5 102.5 t272.5 34.5q100 0 187 -19.5t159 -84t72 -164.5zM1626 -197q0 -49 -55 -49q-168 0 -500 4q-86 0 -124 3t-92 16.5t-76.5 40t-40 78t-17.5 129.5q0 39 6 112.5t6 110.5v33q-80 -6 -82 -7q-47 0 -47 60q0 23 12.5 31t36.5 14q84 16 254 16q61 0 185.5 -3t185.5 -3 q35 0 105.5 3t105.5 3q57 0 57 -49q0 -29 -12 -40t-41 -15q-37 -6 -147 -6h-506q2 -18 2 -54q0 -27 -11 -153h338q225 0 318 -19q53 -8 53 -57q0 -20 -14.5 -33.5t-36.5 -13.5q-53 0 -159.5 7t-160.5 7h-333l4 -41q6 -70 315 -69q63 0 186 3t185 3q100 -1 100 -62z M1874 1061q0 -33 -15.5 -43t-50.5 -10q-170 0 -260 -45q0 -57 1 -171t1 -171q0 -53 -49 -54q-55 0 -55 51l-10 857q0 25 13 41t38 16q45 0 55 -53q8 -59 10 -124t-1 -153t-3 -125q80 35 256 35q70 0 70 -51z" />
<glyph unicode="&#xac1a;" d="M1100 1133q0 -59 -132 -280.5t-149 -289.5q-2 -29 -17.5 -67.5t-49.5 -38.5q-53 0 -54 49q0 74 71 204t142.5 247.5t71.5 164.5q0 90 -86 132t-188 42q-129 0 -232.5 -29.5t-236.5 -92.5q-27 -10 -31 -11q-20 0 -35.5 17.5t-15.5 38.5q0 23 26 45q84 68 225.5 102.5 t272.5 34.5q100 0 187 -19.5t159 -84t72 -164.5zM1575 -160q0 -20 -15.5 -36.5t-37.5 -16.5q-8 0 -21 4q-117 41 -221 41q-86 0 -256 -27.5t-256 -27.5q-82 0 -82 53q0 33 16.5 43t51.5 10q92 0 155 11q-119 403 -123 415q-98 -12 -100 -12q-23 0 -35 19.5t-12 41.5 q0 70 311 70q88 0 264.5 -5t264.5 -5q94 0 94 -53q0 -25 -25.5 -39.5t-60.5 -15.5t-69 -1t-50 2q-23 -37 -76 -117.5t-91 -143t-71 -122.5q72 12 177 13q78 0 173 -24t95 -77zM1251 315q-88 6 -176 7q-61 0 -180 -5l117 -399q27 66 62.5 127t98 152t78.5 118zM1874 1061 q0 -33 -15.5 -43t-50.5 -10q-170 0 -260 -45q0 -57 1 -171t1 -171q0 -53 -49 -54q-55 0 -55 51l-10 857q0 25 13 41t38 16q45 0 55 -53q8 -59 10 -124t-1 -153t-3 -125q80 35 256 35q70 0 70 -51z" />
<glyph unicode="&#xac1b;" d="M1100 1133q0 -59 -132 -280.5t-149 -289.5q-2 -29 -17.5 -67.5t-49.5 -38.5q-53 0 -54 49q0 74 71 204t142.5 247.5t71.5 164.5q0 90 -86 132t-188 42q-129 0 -232.5 -29.5t-236.5 -92.5q-27 -10 -31 -11q-20 0 -35.5 17.5t-15.5 38.5q0 23 26 45q84 68 225.5 102.5 t272.5 34.5q100 0 187 -19.5t159 -84t72 -164.5zM1602 203q0 -20 -17.5 -33.5t-42 -18t-50.5 -6.5t-40 -2q16 -6 33.5 -12t33 -13t30 -17.5t23.5 -22.5t15 -29.5t6 -38.5q0 -68 -37.5 -118t-98 -75.5t-123 -37.5t-124.5 -12q-334 0 -333 151q0 102 151 211q-53 0 -161.5 -5 t-164.5 -5q-49 0 -49 57q0 23 27 37t73 18.5t82.5 5.5t85 -1.5t50.5 -2.5h110h88q-39 29 -118.5 61t-104.5 44q-37 20 -37 49q0 23 14.5 39t37.5 16q12 0 18 -2q221 -57 334 -204q37 2 116.5 14t124.5 12q48 0 48 -59zM1479 18q-125 76 -246 76q-47 0 -148.5 -58.5 t-101.5 -98.5q0 -35 81 -51.5t142 -16.5q250 -1 273 149zM1874 1061q0 -33 -15.5 -43t-50.5 -10q-170 0 -260 -45q0 -57 1 -171t1 -171q0 -53 -49 -54q-55 0 -55 51l-10 857q0 25 13 41t38 16q45 0 55 -53q8 -59 10 -124t-1 -153t-3 -125q80 35 256 35q70 0 70 -51z" />
<glyph unicode="&#xac1c;" d="M1315 1155q0 -236 -185 -704q-47 -117 -115.5 -262.5t-105.5 -174.5q-16 -14 -41 -14q-20 0 -35.5 13.5t-15.5 33.5q0 27 19 41l118 225q86 172 159 424t87 441q-45 115 -323 114h-132q-84 0 -177 -21.5t-169.5 -53t-169.5 -64.5q-16 -4 -22 -4q-23 0 -37 14.5t-14 34.5 q0 29 32 51q109 78 316 118t381 40q94 0 183 -18.5t168 -79t79 -154.5zM1851 1454q0 -14 -2 -20q-70 -377 -69 -668q0 -143 9 -428t9 -426q0 -109 -55 -109q-61 0 -62 142q0 25 3.5 75t3.5 76l-13 473q-45 4 -65 4q-37 0 -70 -6q0 -68 4 -205t4 -204q0 -55 -49 -56 q-27 0 -38 11.5t-17 40.5q-14 68 -14 206q0 76 2 228.5t2 228.5q0 35 -2 160t0 206t12 158q6 55 53 56q51 0 51 -56l-8 -667q61 8 133 2q0 29 -1 82t-1 82q0 418 76 616q16 41 51 41q53 0 53 -43z" />
<glyph unicode="&#xac1d;" d="M1100 1133q0 -59 -132 -280.5t-149 -289.5q-2 -29 -17.5 -67.5t-49.5 -38.5q-53 0 -54 49q0 74 71 204t142.5 247.5t71.5 164.5q0 90 -86 132t-188 42q-129 0 -232.5 -29.5t-236.5 -92.5q-27 -10 -31 -11q-20 0 -35.5 17.5t-15.5 38.5q0 23 26 45q84 68 225.5 102.5 t272.5 34.5q100 0 187 -19.5t159 -84t72 -164.5zM1726 123q0 -70 -37.5 -197t-86.5 -127q-23 0 -39.5 15.5t-16.5 35.5q0 23 13 35l-3 -10q6 20 26 73.5t30 92.5t10 78q0 53 -17.5 86t-54.5 47t-69.5 18t-87.5 4q-352 0 -711 -102q-25 -6 -27 -6q-20 0 -33.5 15.5 t-13.5 35.5q0 31 33 49q16 8 111 23q133 25 317 52.5t322 27.5q82 0 134 -7.5t102 -31t74.5 -74.5t24.5 -133zM1886 1430q0 -8 -8 -25q-59 -109 -85 -220.5t-23.5 -212t-0.5 -231.5v-155q0 -27 -16 -45.5t-41 -18.5q-45 0 -50 64.5t3 97.5q0 33 -3 102.5t-3 104.5q0 61 4 92 h-123q0 -63 2 -190t2 -191q0 -55 -61 -55q-37 0 -45 51q-6 49 -6 301q0 59 -1 180t-1 181q0 150 2 178q4 57 51 57q35 0 49 -28.5t10 -63.5t-2 -62v-254h86h41q10 106 56 250t110 144q53 0 53 -51z" />
<glyph unicode="&#xac20;" d="M1100 1133q0 -59 -132 -280.5t-149 -289.5q-2 -29 -17.5 -67.5t-49.5 -38.5q-53 0 -54 49q0 74 71 204t142.5 247.5t71.5 164.5q0 90 -86 132t-188 42q-129 0 -232.5 -29.5t-236.5 -92.5q-27 -10 -31 -11q-20 0 -35.5 17.5t-15.5 38.5q0 23 26 45q84 68 225.5 102.5 t272.5 34.5q100 0 187 -19.5t159 -84t72 -164.5zM1870 -61q0 -33 -16.5 -43.5t-53.5 -10.5q-98 0 -232 -20.5t-231 -38.5q-55 -10 -96 -10q-37 -14 -84 -15q-162 0 -263 138.5t-101 306.5q0 139 59 139q57 0 57 -47q0 -18 -3 -51t-3 -49q0 -96 39 -187.5t117 -118.5 q41 -14 131 -14q100 0 299 36t299 36q27 0 40 -2t27.5 -13t14.5 -36zM1886 1430q0 -8 -8 -25q-113 -205 -113 -512q0 -98 4.5 -294t4.5 -294q0 -23 -15.5 -37t-38.5 -14q-59 0 -59 135q0 20 2 60t2 61q0 55 -4 168t-4 170q0 68 6 135h-123v-209q0 -41 2 -125t2 -127 q0 -113 -57 -112q-53 0 -53 71q0 12 2 37t2 37q0 147 -3 441t-3 442q0 25 13 41t38 16q35 0 49 -28.5t10 -63.5t-2 -62v-254h86h41q10 106 56 250t110 144q53 0 53 -51z" />
<glyph unicode="&#xac23;" d="M1100 1133q0 -59 -132 -280.5t-149 -289.5q-2 -29 -17.5 -67.5t-49.5 -38.5q-53 0 -54 49q0 74 71 204t142.5 247.5t71.5 164.5q0 90 -86 132t-188 42q-129 0 -232.5 -29.5t-236.5 -92.5q-27 -10 -31 -11q-20 0 -35.5 17.5t-15.5 38.5q0 23 26 45q84 68 225.5 102.5 t272.5 34.5q100 0 187 -19.5t159 -84t72 -164.5zM1866 -82q0 -49 -49 -49q-16 0 -49 2t-50 2q-102 0 -303 -31.5t-303 -31.5q-162 0 -224.5 110.5t-45.5 278.5h-8q-68 0 -68 49q0 31 9 41t40 14q37 6 115 10t114 11q59 10 208 40.5t256.5 46t209.5 15.5q55 0 56 -53 q0 -51 -56 -51q-145 0 -407 -54.5t-363 -64.5q-4 -49 -4 -72q0 -221 176 -221q53 0 236 29q250 41 416 41q94 -1 94 -62zM1886 1430q0 -8 -8 -25q-59 -109 -85 -220.5t-23.5 -212t-0.5 -231.5v-155q0 -27 -16 -45.5t-41 -18.5q-45 0 -50 64.5t3 97.5q0 33 -3 102.5t-3 104.5 q0 61 4 92h-123q0 -63 2 -190t2 -191q0 -55 -61 -55q-37 0 -45 51q-6 49 -6 301q0 59 -1 180t-1 181q0 150 2 178q4 57 51 57q35 0 49 -28.5t10 -63.5t-2 -62v-254h86h41q10 106 56 250t110 144q53 0 53 -51z" />
<glyph unicode="&#xac24;" d="M1100 1133q0 -59 -132 -280.5t-149 -289.5q-2 -29 -17.5 -67.5t-49.5 -38.5q-53 0 -54 49q0 74 71 204t142.5 247.5t71.5 164.5q0 90 -86 132t-188 42q-129 0 -232.5 -29.5t-236.5 -92.5q-27 -10 -31 -11q-20 0 -35.5 17.5t-15.5 38.5q0 23 26 45q84 68 225.5 102.5 t272.5 34.5q100 0 187 -19.5t159 -84t72 -164.5zM1888 -70q0 -49 -57 -49q-25 0 -76 2t-76 2q-100 0 -293.5 -48t-291.5 -48q-74 0 -177.5 37t-103.5 94q0 41 132 90t294 88t305.5 86t159.5 82q-39 59 -141 60q-76 0 -224 -33q-336 -76 -526 -76q-117 0 -117 64q0 49 62 49 q10 0 31.5 -2t33.5 -2q135 0 380 49t315 57q37 4 57 4q82 0 157.5 -44t75.5 -122q0 -74 -63 -120q-74 -55 -382 -131t-380 -107q35 -12 109 -12q90 0 248.5 40t228.5 46q68 6 203 6q116 -1 116 -62zM1886 1430q0 -8 -8 -25q-59 -109 -85 -220.5t-23.5 -212t-0.5 -231.5v-155 q0 -27 -16 -45.5t-41 -18.5q-45 0 -50 64.5t3 97.5q0 33 -3 102.5t-3 104.5q0 61 4 92h-123q0 -63 2 -190t2 -191q0 -55 -61 -55q-37 0 -45 51q-6 49 -6 301q0 59 -1 180t-1 181q0 150 2 178q4 57 51 57q35 0 49 -28.5t10 -63.5t-2 -62v-254h86h41q10 106 56 250t110 144 q53 0 53 -51z" />
<glyph unicode="&#xac2c;" d="M1100 1133q0 -59 -132 -280.5t-149 -289.5q-2 -29 -17.5 -67.5t-49.5 -38.5q-53 0 -54 49q0 74 71 204t142.5 247.5t71.5 164.5q0 90 -86 132t-188 42q-129 0 -232.5 -29.5t-236.5 -92.5q-27 -10 -31 -11q-20 0 -35.5 17.5t-15.5 38.5q0 23 26 45q84 68 225.5 102.5 t272.5 34.5q100 0 187 -19.5t159 -84t72 -164.5zM1817 244q0 -47 -58.5 -208t-83.5 -216q-82 0 -244.5 2t-244.5 2h-144q-18 0 -57 -6t-59 -6q-35 0 -52 38q-4 14 -14 70q-8 45 -58 190.5t-50 231.5q0 55 53 55q59 0 51 -75q94 6 298 56t316 50q70 0 141.5 -13.5t138.5 -57 t67 -113.5zM1696 254q-45 74 -174 74q-115 0 -328 -54.5t-317 -58.5q23 -55 92 -295q266 8 637 4q8 29 49 135.5t41 182.5v12zM1886 1430q0 -8 -8 -25q-59 -109 -85 -220.5t-23.5 -212t-0.5 -231.5v-155q0 -27 -16 -45.5t-41 -18.5q-45 0 -50 64.5t3 97.5q0 33 -3 102.5 t-3 104.5q0 61 4 92h-123q0 -63 2 -190t2 -191q0 -55 -61 -55q-37 0 -45 51q-6 49 -6 301q0 59 -1 180t-1 181q0 150 2 178q4 57 51 57q35 0 49 -28.5t10 -63.5t-2 -62v-254h86h41q10 106 56 250t110 144q53 0 53 -51z" />
<glyph unicode="&#xac2d;" d="M1100 1133q0 -59 -132 -280.5t-149 -289.5q-2 -29 -17.5 -67.5t-49.5 -38.5q-53 0 -54 49q0 74 71 204t142.5 247.5t71.5 164.5q0 90 -86 132t-188 42q-129 0 -232.5 -29.5t-236.5 -92.5q-27 -10 -31 -11q-20 0 -35.5 17.5t-15.5 38.5q0 23 26 45q84 68 225.5 102.5 t272.5 34.5q100 0 187 -19.5t159 -84t72 -164.5zM1874 328q0 -16 -6 -38t-17.5 -49.5t-15.5 -37.5q-43 -123 -63 -211q-2 -8 -14.5 -75t-26.5 -95q-20 -37 -48 -37q-23 0 -40 12.5t-17 32.5q-2 0 -62.5 3t-94 5t-100 9.5t-107.5 18.5t-87.5 27.5t-69 42t-22.5 58.5 q0 102 113 163.5t225 61.5q152 0 283 -72q6 41 41 134.5t78 93.5q51 0 51 -47zM993 -141q0 -25 -13 -41.5t-38 -16.5q-43 0 -55 62q-8 45 -19.5 141t-21.5 146q-4 20 -16.5 63t-18.5 77t-6 64q0 23 17.5 36t39.5 13q31 0 47 -47q84 -272 84 -497zM1671 45q-115 70 -246 70 q-141 0 -227 -92q0 -2 -1 -4.5t-1 -4.5q0 -27 106.5 -45t192.5 -24t150 -8q3 28 26 108zM1886 1430q0 -8 -8 -25q-59 -109 -85 -220.5t-23.5 -212t-0.5 -231.5v-155q0 -27 -16 -45.5t-41 -18.5q-45 0 -50 64.5t3 97.5q0 33 -3 102.5t-3 104.5q0 61 4 92h-123q0 -63 2 -190 t2 -191q0 -55 -61 -55q-37 0 -45 51q-6 49 -6 301q0 59 -1 180t-1 181q0 150 2 178q4 57 51 57q35 0 49 -28.5t10 -63.5t-2 -62v-254h86h41q10 106 56 250t110 144q53 0 53 -51z" />
<glyph unicode="&#xac2f;" d="M1100 1133q0 -59 -132 -280.5t-149 -289.5q-2 -29 -17.5 -67.5t-49.5 -38.5q-53 0 -54 49q0 74 71 204t142.5 247.5t71.5 164.5q0 90 -86 132t-188 42q-129 0 -232.5 -29.5t-236.5 -92.5q-27 -10 -31 -11q-20 0 -35.5 17.5t-15.5 38.5q0 23 26 45q84 68 225.5 102.5 t272.5 34.5q100 0 187 -19.5t159 -84t72 -164.5zM1769 -125q0 -18 -13 -33.5t-32 -15.5q-37 0 -250.5 167t-250.5 185q-61 -61 -167 -186t-159 -178q-25 -25 -49 -25q-20 0 -33.5 17.5t-13.5 37.5q0 61 269 327.5t331 266.5q20 0 36.5 -16t16.5 -37q0 -23 -74.5 -74 t-81.5 -57q51 -31 101.5 -67.5t118 -91t96.5 -77.5q14 -10 41.5 -28.5t50.5 -33.5t39 -32q24 -22 24 -49zM1886 1430q0 -8 -8 -25q-113 -205 -113 -512q0 -98 4.5 -294t4.5 -294q0 -23 -15.5 -37t-38.5 -14q-59 0 -59 135q0 20 2 60t2 61q0 55 -4 168t-4 170q0 68 6 135 h-123v-209q0 -41 2 -125t2 -127q0 -113 -57 -112q-53 0 -53 71q0 12 2 37t2 37q0 147 -3 441t-3 442q0 25 13 41t38 16q35 0 49 -28.5t10 -63.5t-2 -62v-254h86h41q10 106 56 250t110 144q53 0 53 -51z" />
<glyph unicode="&#xac30;" d="M1100 1133q0 -59 -132 -280.5t-149 -289.5q-2 -29 -17.5 -67.5t-49.5 -38.5q-53 0 -54 49q0 74 71 204t142.5 247.5t71.5 164.5q0 90 -86 132t-188 42q-129 0 -232.5 -29.5t-236.5 -92.5q-27 -10 -31 -11q-20 0 -35.5 17.5t-15.5 38.5q0 23 26 45q84 68 225.5 102.5 t272.5 34.5q100 0 187 -19.5t159 -84t72 -164.5zM1855 -80q0 -18 -14 -34.5t-33 -16.5q-57 0 -162.5 98.5t-152.5 169.5q-18 -20 -78.5 -104t-117 -142.5t-101.5 -58.5q-41 0 -140.5 68.5t-158.5 122.5q-115 -160 -139.5 -160t-43 14t-18.5 39q0 53 213 278.5t267 225.5 q20 0 37.5 -15.5t17.5 -35.5q0 -23 -25 -45q-182 -160 -239 -224q29 -29 66.5 -55.5t85.5 -57t73 -46.5q86 74 202.5 240.5t172.5 226.5q29 29 51 28q20 0 33.5 -14t13.5 -35q0 -14 -45 -81.5t-51 -84.5q39 -76 114.5 -141.5t143.5 -112.5q28 -20 28 -47zM1886 1430 q0 -8 -8 -25q-59 -109 -85 -220.5t-23.5 -212t-0.5 -231.5v-155q0 -27 -16 -45.5t-41 -18.5q-45 0 -50 64.5t3 97.5q0 33 -3 102.5t-3 104.5q0 61 4 92h-123q0 -63 2 -190t2 -191q0 -55 -61 -55q-37 0 -45 51q-6 49 -6 301q0 59 -1 180t-1 181q0 150 2 178q4 57 51 57 q35 0 49 -28.5t10 -63.5t-2 -62v-254h86h41q10 106 56 250t110 144q53 0 53 -51z" />
<glyph unicode="&#xac31;" d="M1100 1133q0 -59 -132 -280.5t-149 -289.5q-2 -29 -17.5 -67.5t-49.5 -38.5q-53 0 -54 49q0 74 71 204t142.5 247.5t71.5 164.5q0 90 -86 132t-188 42q-129 0 -232.5 -29.5t-236.5 -92.5q-27 -10 -31 -11q-20 0 -35.5 17.5t-15.5 38.5q0 23 26 45q84 68 225.5 102.5 t272.5 34.5q100 0 187 -19.5t159 -84t72 -164.5zM1729 100q0 -102 -70 -179t-164 -110.5t-195 -33.5q-72 0 -139 9t-141 33.5t-119 77t-45 126.5q0 125 92 225t219 145v2q43 8 97 8q84 0 189.5 -34.5t190.5 -108.5t85 -160zM1622 96q0 74 -133 147.5t-215 73.5 q-100 0 -206.5 -89t-106.5 -189q0 -57 67.5 -96t137 -51.5t128.5 -12.5q74 0 144.5 19.5t127 70.5t56.5 127zM1886 1430q0 -8 -8 -25q-59 -109 -85 -220.5t-23.5 -212t-0.5 -231.5v-155q0 -27 -16 -45.5t-41 -18.5q-45 0 -50 64.5t3 97.5q0 33 -3 102.5t-3 104.5q0 61 4 92 h-123q0 -63 2 -190t2 -191q0 -55 -61 -55q-37 0 -45 51q-6 49 -6 301q0 59 -1 180t-1 181q0 150 2 178q4 57 51 57q35 0 49 -28.5t10 -63.5t-2 -62v-254h86h41q10 106 56 250t110 144q53 0 53 -51z" />
<glyph unicode="&#xac38;" d="M1315 1155q0 -236 -185 -704q-47 -117 -115.5 -262.5t-105.5 -174.5q-16 -14 -41 -14q-20 0 -35.5 13.5t-15.5 33.5q0 27 19 41l118 225q86 172 159 424t87 441q-45 115 -323 114h-132q-84 0 -177 -21.5t-169.5 -53t-169.5 -64.5q-16 -4 -22 -4q-23 0 -37 14.5t-14 34.5 q0 29 32 51q109 78 316 118t381 40q94 0 183 -18.5t168 -79t79 -154.5zM1862 604q0 -23 -39 -49q-170 -104 -273 -186l-8 -531q0 -53 -53 -53t-53 53q0 158 8 477.5t8 477.5q0 188 -10 419q-10 184 -10 220q0 57 51 57q29 0 40 -12.5t15 -40.5q20 -100 21 -275 q0 -47 -2.5 -143t-2.5 -146v-65q186 186 242 186q20 0 35.5 -14t15.5 -35q0 -27 -24 -49q-39 -35 -130 -110.5t-139 -120.5q0 -18 -1 -54.5t-1 -54.5v-51q188 158 258 158q20 0 36 -19t16 -39z" />
<glyph unicode="&#xac39;" d="M1100 1133q0 -59 -132 -280.5t-149 -289.5q-2 -29 -17.5 -67.5t-49.5 -38.5q-53 0 -54 49q0 74 71 204t142.5 247.5t71.5 164.5q0 90 -86 132t-188 42q-129 0 -232.5 -29.5t-236.5 -92.5q-27 -10 -31 -11q-20 0 -35.5 17.5t-15.5 38.5q0 23 26 45q84 68 225.5 102.5 t272.5 34.5q100 0 187 -19.5t159 -84t72 -164.5zM1690 123q0 -70 -38 -197t-87 -127q-23 0 -39.5 15.5t-16.5 35.5q0 23 13 35l-2 -10q6 20 25.5 73.5t29.5 92.5t10 78q0 53 -17.5 86t-54 47t-69.5 18t-88 4q-350 0 -709 -102q-25 -6 -26 -6q-20 0 -35 15.5t-15 35.5 q0 31 33 49q16 8 111 23q133 25 317.5 52.5t321.5 27.5q82 0 134 -7.5t102 -31t75 -74.5t25 -133zM1878 999q0 -27 -13.5 -37t-42 -14t-121.5 -6t-145 -14q0 -35 1.5 -105.5t1.5 -105.5q0 -109 -60 -109q-51 0 -51 56q0 49 2 143t2 143q0 84 -2 253t-2 255q0 53 53 53 q47 0 54.5 -77.5t-1.5 -112.5v-135q12 4 117 64.5t141 60.5q20 0 35 -16.5t15 -37.5q0 -33 -37 -49q-29 -14 -86.5 -38.5t-101.5 -48t-81 -50.5v-35q84 16 259 17q63 -1 63 -54z" />
<glyph unicode="&#xac3c;" d="M1100 1133q0 -59 -132 -280.5t-149 -289.5q-2 -29 -17.5 -67.5t-49.5 -38.5q-53 0 -54 49q0 74 71 204t142.5 247.5t71.5 164.5q0 90 -86 132t-188 42q-129 0 -232.5 -29.5t-236.5 -92.5q-27 -10 -31 -11q-20 0 -35.5 17.5t-15.5 38.5q0 23 26 45q84 68 225.5 102.5 t272.5 34.5q100 0 187 -19.5t159 -84t72 -164.5zM1712 -61q0 -33 -16.5 -43.5t-53.5 -10.5q-98 0 -232 -20.5t-230 -38.5q-55 -10 -97 -10q-37 -14 -84 -15q-162 0 -263 138.5t-101 306.5q0 139 59 139q57 0 58 -47q0 -18 -3.5 -51t-3.5 -49q0 -96 39 -187.5t117 -118.5 q41 -14 131 -14q102 0 299 36t299 36q27 0 40 -2t27.5 -13t14.5 -36zM1878 999q0 -27 -13.5 -37t-42 -14t-121.5 -6t-145 -14q0 -88 -1 -267.5t-1 -269.5q0 -76 -53 -76t-53 91q0 53 3 158.5t3 156.5v270q0 78 -3 233.5t-3 233.5q0 53 53 53q47 0 54.5 -77.5t-1.5 -112.5 v-135q6 4 114 64.5t144 60.5q20 0 35 -16.5t15 -37.5q0 -29 -37 -49q-12 -6 -115.5 -53t-153.5 -84v-35q84 16 256 17q66 -1 66 -54z" />
<glyph unicode="&#xac40;" d="M1100 1133q0 -59 -132 -280.5t-149 -289.5q-2 -29 -17.5 -67.5t-49.5 -38.5q-53 0 -54 49q0 74 71 204t142.5 247.5t71.5 164.5q0 90 -86 132t-188 42q-129 0 -232.5 -29.5t-236.5 -92.5q-27 -10 -31 -11q-20 0 -35.5 17.5t-15.5 38.5q0 23 26 45q84 68 225.5 102.5 t272.5 34.5q100 0 187 -19.5t159 -84t72 -164.5zM1765 -70q0 -49 -57 -49q-25 0 -76 2t-76 2q-100 0 -292.5 -48t-292.5 -48q-74 0 -176.5 37t-102.5 94q0 51 210 114.5t434.5 125t244.5 106.5q-39 59 -141 60q-76 0 -223 -33q-332 -76 -519 -76q-123 0 -123 55q0 57 56 58 q12 0 34.5 -2t34.5 -2q135 0 380 49t315 57q37 4 57 4q82 0 158 -44t76 -122q0 -72 -62 -120q-66 -51 -383 -131t-381 -107q35 -12 109 -12q90 0 248.5 40t228.5 46q68 6 203 6q116 -1 116 -62zM1878 999q0 -27 -13.5 -37t-42 -14t-121.5 -6t-145 -14q0 -35 1.5 -105.5 t1.5 -105.5q0 -109 -60 -109q-51 0 -51 56q0 49 2 143t2 143q0 84 -2 253t-2 255q0 53 53 53q47 0 54.5 -77.5t-1.5 -112.5v-135q12 4 117 64.5t141 60.5q20 0 35 -16.5t15 -37.5q0 -33 -37 -49q-29 -14 -86.5 -38.5t-101.5 -48t-81 -50.5v-35q84 16 259 17q63 -1 63 -54z " />
<glyph unicode="&#xac4b;" d="M1100 1133q0 -59 -132 -280.5t-149 -289.5q-2 -29 -17.5 -67.5t-49.5 -38.5q-53 0 -54 49q0 74 71 204t142.5 247.5t71.5 164.5q0 90 -86 132t-188 42q-129 0 -232.5 -29.5t-236.5 -92.5q-27 -10 -31 -11q-20 0 -35.5 17.5t-15.5 38.5q0 23 26 45q84 68 225.5 102.5 t272.5 34.5q100 0 187 -19.5t159 -84t72 -164.5zM1540 -131q0 -20 -14.5 -35.5t-34.5 -15.5q-31 0 -250 172t-246 188q-55 -55 -160.5 -180t-164.5 -184q-25 -25 -47.5 -25t-36 17.5t-13.5 37.5q0 39 132.5 186.5t281 277.5t187.5 130q23 0 38 -16t15 -37q0 -23 -77 -76 t-79 -55q51 -31 101.5 -69t119 -93t92.5 -76q18 -14 63.5 -45.5t68.5 -52.5q24 -22 24 -49zM1878 999q0 -27 -13.5 -37t-42 -14t-121.5 -6t-145 -14q0 -88 -1 -267.5t-1 -269.5q0 -76 -53 -76t-53 91q0 53 3 158.5t3 156.5v270q0 78 -3 233.5t-3 233.5q0 53 53 53 q47 0 54.5 -77.5t-1.5 -112.5v-135q6 4 114 64.5t144 60.5q20 0 35 -16.5t15 -37.5q0 -29 -37 -49q-12 -6 -115.5 -53t-153.5 -84v-35q84 16 256 17q66 -1 66 -54z" />
<glyph unicode="&#xac4d;" d="M1100 1133q0 -59 -132 -280.5t-149 -289.5q-2 -29 -17.5 -67.5t-49.5 -38.5q-53 0 -54 49q0 74 71 204t142.5 247.5t71.5 164.5q0 90 -86 132t-188 42q-129 0 -232.5 -29.5t-236.5 -92.5q-27 -10 -31 -11q-20 0 -35.5 17.5t-15.5 38.5q0 23 26 45q84 68 225.5 102.5 t272.5 34.5q100 0 187 -19.5t159 -84t72 -164.5zM1532 104q0 -102 -68.5 -179t-163 -110.5t-194.5 -33.5q-74 0 -140.5 8t-141 31.5t-118.5 76t-44 128.5q0 125 91 225t218 147v2q43 8 98 9q84 0 188.5 -35t189.5 -108t85 -161zM1425 98q0 70 -132 144.5t-212 74.5 q-102 0 -209.5 -87t-107.5 -187q0 -80 116.5 -120t219.5 -40q72 0 142.5 19.5t126.5 70.5t56 125zM1878 999q0 -27 -13.5 -37t-42 -14t-121.5 -6t-145 -14q0 -35 1.5 -105.5t1.5 -105.5q0 -109 -60 -109q-51 0 -51 56q0 49 2 143t2 143q0 84 -2 253t-2 255q0 53 53 53 q47 0 54.5 -77.5t-1.5 -112.5v-135q12 4 117 64.5t141 60.5q20 0 35 -16.5t15 -37.5q0 -33 -37 -49q-29 -14 -86.5 -38.5t-101.5 -48t-81 -50.5v-35q84 16 259 17q63 -1 63 -54z" />
<glyph unicode="&#xac54;" d="M1315 1155q0 -236 -185 -704q-47 -117 -115.5 -262.5t-105.5 -174.5q-16 -14 -41 -14q-20 0 -35.5 13.5t-15.5 33.5q0 27 19 41l118 225q86 172 159 424t87 441q-45 115 -323 114h-132q-84 0 -177 -21.5t-169.5 -53t-169.5 -64.5q-16 -4 -22 -4q-23 0 -37 14.5t-14 34.5 q0 29 32 51q109 78 316 118t381 40q94 0 183 -18.5t168 -79t79 -154.5zM1862 1495q0 -4 -1 -8t-1 -8q-98 -524 -99 -992q0 -86 3 -262t3 -262q0 -127 -59 -127q-51 0 -51 55q0 39 4 113t4 113q0 55 -4 154.5t-4 131.5q-18 -2 -54 -11t-55 -11v-197q0 -53 -51 -53 q-59 0 -59 113q0 100 4 303t4 305q0 82 -7 241.5t-7 241.5q0 55 51 56q27 0 38 -11.5t17 -40.5q16 -68 16 -209q0 -45 -3 -133t-3 -131q78 12 117 17q4 111 13.5 226.5t44 275t85.5 159.5q54 0 54 -49zM1661 776l-113 -18v-271q20 2 56 11.5t53 11.5q0 90 4 266z" />
<glyph unicode="&#xac58;" d="M1100 1133q0 -59 -132 -280.5t-149 -289.5q-2 -29 -17.5 -67.5t-49.5 -38.5q-53 0 -54 49q0 74 71 204t142.5 247.5t71.5 164.5q0 90 -86 132t-188 42q-129 0 -232.5 -29.5t-236.5 -92.5q-27 -10 -31 -11q-20 0 -35.5 17.5t-15.5 38.5q0 23 26 45q84 68 225.5 102.5 t272.5 34.5q100 0 187 -19.5t159 -84t72 -164.5zM1870 -61q0 -33 -16.5 -43.5t-53.5 -10.5q-98 0 -232 -20.5t-231 -38.5q-55 -10 -96 -10q-37 -14 -84 -15q-162 0 -263 138.5t-101 306.5q0 139 59 139q57 0 57 -47q0 -18 -3 -51t-3 -49q0 -96 39 -187.5t117 -118.5 q41 -14 131 -14q100 0 299 36t299 36q27 0 40 -2t27.5 -13t14.5 -36zM1886 1421q0 -12 -8 -28q-63 -131 -87 -213t-24 -211q0 -88 6.5 -265.5t6.5 -267.5q0 -119 -58 -119q-25 0 -40 16.5t-15 41.5q0 27 2 80t2 80q0 43 -3 124.5t-3 124.5q-10 0 -28.5 1t-26.5 1 q-29 0 -54 -12q-6 -53 -6 -102q0 -35 3 -104.5t3 -104.5q0 -53 -51 -53q-29 0 -43 24.5t-15 50t0 69.5t1 52h2q0 37 1 108.5t1 106.5v328q0 51 -6 153.5t-6 151.5q0 47 59 47q39 0 47 -51q10 -59 10 -289v-55q20 4 121 41q14 84 59.5 206t92.5 122q23 0 40 -15.5t17 -38.5z M1665 1026q-68 -25 -109 -31v-112q47 16 107 6q0 12 1 40.5t1 41.5v55z" />
<glyph unicode="&#xac5c;" d="M1100 1133q0 -59 -132 -280.5t-149 -289.5q-2 -29 -17.5 -67.5t-49.5 -38.5q-53 0 -54 49q0 74 71 204t142.5 247.5t71.5 164.5q0 90 -86 132t-188 42q-129 0 -232.5 -29.5t-236.5 -92.5q-27 -10 -31 -11q-20 0 -35.5 17.5t-15.5 38.5q0 23 26 45q84 68 225.5 102.5 t272.5 34.5q100 0 187 -19.5t159 -84t72 -164.5zM1888 -70q0 -49 -57 -49q-25 0 -76 2t-76 2q-100 0 -293.5 -48t-291.5 -48q-74 0 -177.5 37t-103.5 94q0 41 132 90t294 88t305.5 86t159.5 82q-39 59 -141 60q-76 0 -224 -33q-336 -76 -526 -76q-117 0 -117 64q0 49 62 49 q10 0 31.5 -2t33.5 -2q135 0 380 49t315 57q37 4 57 4q82 0 157.5 -44t75.5 -122q0 -74 -63 -120q-74 -55 -382 -131t-380 -107q35 -12 109 -12q90 0 248.5 40t228.5 46q68 6 203 6q116 -1 116 -62zM1886 1421q0 -12 -8 -28q-63 -131 -87 -213t-24 -211q0 -66 5.5 -201 t5.5 -203q0 -117 -62 -116q-51 0 -51 55q0 20 2 57t2 55q0 29 -2 85.5t-2 82.5q-10 0 -28.5 1t-26.5 1q-29 0 -54 -12q-2 -16 -2 -192q0 -55 -51 -56q-57 0 -57 101q0 53 3 157.5t3 155.5v186q0 53 -6 164t-6 164q0 47 59 47q39 0 47 -51q10 -66 10 -283v-61q20 4 121 41 q14 84 59.5 206t92.5 122q23 0 40 -15.5t17 -38.5zM1665 1026q-68 -25 -109 -31v-112q47 16 107 6q0 12 1 40.5t1 41.5v55z" />
<glyph unicode="&#xac65;" d="M1100 1133q0 -59 -132 -280.5t-149 -289.5q-2 -29 -17.5 -67.5t-49.5 -38.5q-53 0 -54 49q0 74 71 204t142.5 247.5t71.5 164.5q0 90 -86 132t-188 42q-129 0 -232.5 -29.5t-236.5 -92.5q-27 -10 -31 -11q-20 0 -35.5 17.5t-15.5 38.5q0 23 26 45q84 68 225.5 102.5 t272.5 34.5q100 0 187 -19.5t159 -84t72 -164.5zM1874 328q0 -16 -6 -38t-17.5 -49.5t-15.5 -37.5q-43 -123 -63 -211q-2 -8 -14.5 -75t-26.5 -95q-20 -37 -48 -37q-23 0 -40 12.5t-17 32.5q-2 0 -62.5 3t-94 5t-100 9.5t-107.5 18.5t-87.5 27.5t-69 42t-22.5 58.5 q0 102 113 163.5t225 61.5q152 0 283 -72q6 41 41 134.5t78 93.5q51 0 51 -47zM993 -141q0 -25 -13 -41.5t-38 -16.5q-43 0 -55 62q-8 45 -19.5 141t-21.5 146q-4 20 -16.5 63t-18.5 77t-6 64q0 23 17.5 36t39.5 13q31 0 47 -47q84 -272 84 -497zM1671 45q-115 70 -246 70 q-141 0 -227 -92q0 -2 -1 -4.5t-1 -4.5q0 -27 106.5 -45t192.5 -24t150 -8q3 28 26 108zM1886 1421q0 -12 -8 -28q-63 -131 -87 -213t-24 -211q0 -66 5.5 -201t5.5 -203q0 -117 -62 -116q-51 0 -51 55q0 20 2 57t2 55q0 29 -2 85.5t-2 82.5q-10 0 -28.5 1t-26.5 1 q-29 0 -54 -12q-2 -16 -2 -192q0 -55 -51 -56q-57 0 -57 101q0 53 3 157.5t3 155.5v186q0 53 -6 164t-6 164q0 47 59 47q39 0 47 -51q10 -66 10 -283v-61q20 4 121 41q14 84 59.5 206t92.5 122q23 0 40 -15.5t17 -38.5zM1665 1026q-68 -25 -109 -31v-112q47 16 107 6 q0 12 1 40.5t1 41.5v55z" />
<glyph unicode="&#xac70;" d="M1315 1155q0 -236 -185 -704q-47 -117 -115.5 -262.5t-105.5 -174.5q-16 -14 -41 -14q-20 0 -35.5 13.5t-15.5 33.5q0 27 19 41l118 225q86 172 159 424t87 441q-45 115 -323 114h-132q-84 0 -177 -21.5t-169.5 -53t-169.5 -64.5q-16 -4 -22 -4q-23 0 -37 14.5t-14 34.5 q0 29 32 51q109 78 316 118t381 40q94 0 183 -18.5t168 -79t79 -154.5zM1722 -250q-59 0 -59 60q0 41 10 235q6 164 15 506q-74 12 -150 12q-43 0 -128 -6t-128 -6q-53 0 -53 51q0 29 10 39t39 14q53 10 162 11h61q109 0 187 -11q0 289 -9 521q0 33 -5 117.5t-5 131.5 q0 55 51 56q29 0 40.5 -11.5t15.5 -42.5q18 -100 18 -346q0 -547 -14 -1022v-78.5t-2 -101.5t-11 -78q-8 -51 -45 -51z" />
<glyph unicode="&#xac71;" d="M1100 1133q0 -59 -132 -280.5t-149 -289.5q-2 -29 -17.5 -67.5t-49.5 -38.5q-53 0 -54 49q0 74 71 204t142.5 247.5t71.5 164.5q0 90 -86 132t-188 42q-129 0 -232.5 -29.5t-236.5 -92.5q-27 -10 -31 -11q-20 0 -35.5 17.5t-15.5 38.5q0 23 26 45q84 68 225.5 102.5 t272.5 34.5q100 0 187 -19.5t159 -84t72 -164.5zM1671 123q0 -68 -39 -196t-88 -128q-20 0 -36.5 15.5t-16.5 35.5q0 23 12 35l-2 -10q6 20 25.5 72.5t30 91.5t10.5 78q0 53 -18.5 87t-54.5 48t-70.5 18t-88.5 4q-350 0 -708 -102q-25 -6 -27 -6q-20 0 -34.5 15.5 t-14.5 35.5q0 31 33 49q16 10 112 23q133 25 317.5 52.5t321.5 27.5q82 0 133.5 -7.5t102.5 -31t75.5 -74.5t24.5 -133zM1665 1454q0 -12 -6 -29q-33 -84 -56.5 -140t-36 -122.5t-12.5 -154.5q0 -63 9.5 -190.5t9.5 -190.5q0 -78 -55 -78q-25 0 -39.5 14.5t-12.5 38.5v-2v4 l-2 14l-2 56q-2 33 -2 95t-2 113.5t-8 96.5q-61 -6 -184 -6q-147 0 -148 57q0 55 47 55q29 0 87.5 -2t88.5 -2q74 0 111 2q8 242 111 390q20 31 49 30q53 0 53 -49z" />
<glyph unicode="&#xac74;" d="M1100 1133q0 -59 -132 -280.5t-149 -289.5q-2 -29 -17.5 -67.5t-49.5 -38.5q-53 0 -54 49q0 74 71 204t142.5 247.5t71.5 164.5q0 90 -86 132t-188 42q-129 0 -232.5 -29.5t-236.5 -92.5q-27 -10 -31 -11q-20 0 -35.5 17.5t-15.5 38.5q0 23 26 45q84 68 225.5 102.5 t272.5 34.5q100 0 187 -19.5t159 -84t72 -164.5zM1747 -61q0 -33 -16.5 -43.5t-53.5 -10.5q-70 0 -146.5 -9t-171.5 -26.5t-145 -23.5q-10 -2 -42.5 -4t-51.5 -6q-6 0 -37.5 -7.5t-48.5 -7.5q-162 0 -263 138.5t-101 306.5q0 139 59 139q57 0 57 -47q0 -18 -3 -51t-3 -49 q0 -96 39 -187.5t117 -118.5q41 -14 131 -14q102 0 300 36t298 36q27 0 40 -2t27.5 -13t14.5 -36zM1665 1454q0 -12 -6 -29q-33 -84 -56.5 -140t-36 -122.5t-12.5 -154.5q0 -55 8.5 -166t8.5 -166q0 -37 2 -112t2 -113q0 -131 -59 -132q-45 0 -52.5 47.5t0.5 82.5 q0 84 -6 249.5t-6 247.5q0 23 -2 33q-61 -6 -186 -6q-145 0 -146 57q0 23 12.5 39t34.5 16q31 0 90.5 -2t87.5 -2q72 0 109 2q2 102 47 261t113 159q53 0 53 -49z" />
<glyph unicode="&#xac77;" d="M1100 1133q0 -59 -132 -280.5t-149 -289.5q-2 -29 -17.5 -67.5t-49.5 -38.5q-53 0 -54 49q0 74 71 204t142.5 247.5t71.5 164.5q0 90 -86 132t-188 42q-129 0 -232.5 -29.5t-236.5 -92.5q-27 -10 -31 -11q-20 0 -35.5 17.5t-15.5 38.5q0 23 26 45q84 68 225.5 102.5 t272.5 34.5q100 0 187 -19.5t159 -84t72 -164.5zM1745 -82q0 -20 -14.5 -34.5t-34.5 -14.5q-18 0 -51 2t-50 2q-102 0 -303.5 -31.5t-304.5 -31.5q-109 0 -174 58t-84.5 142t-9.5 189h-8q-68 0 -68 49q0 31 9.5 41t39.5 14q37 6 115 10t117 11q57 10 205.5 40.5t256 46 t209.5 15.5q55 0 56 -53q0 -51 -56 -51q-145 0 -407 -54.5t-363 -64.5q-4 -49 -4 -72q0 -221 178 -221q53 0 236 29q246 41 412 41q98 -1 98 -62zM1665 1454q0 -12 -6 -29q-33 -84 -56.5 -140t-36 -122.5t-12.5 -154.5q0 -63 9.5 -190.5t9.5 -190.5q0 -78 -55 -78 q-25 0 -39.5 14.5t-12.5 38.5v-2v4l-2 14l-2 56q-2 33 -2 95t-2 113.5t-8 96.5q-61 -6 -184 -6q-147 0 -148 57q0 55 47 55q29 0 87.5 -2t88.5 -2q74 0 111 2q8 242 111 390q20 31 49 30q53 0 53 -49z" />
<glyph unicode="&#xac78;" d="M1100 1133q0 -59 -132 -280.5t-149 -289.5q-2 -29 -17.5 -67.5t-49.5 -38.5q-53 0 -54 49q0 74 71 204t142.5 247.5t71.5 164.5q0 90 -86 132t-188 42q-129 0 -232.5 -29.5t-236.5 -92.5q-27 -10 -31 -11q-20 0 -35.5 17.5t-15.5 38.5q0 23 26 45q84 68 225.5 102.5 t272.5 34.5q100 0 187 -19.5t159 -84t72 -164.5zM1765 -70q0 -49 -57 -49q-25 0 -76 2t-76 2q-100 0 -292.5 -48t-292.5 -48q-74 0 -176.5 37t-102.5 94q0 51 210 114.5t434.5 125t244.5 106.5q-39 59 -141 60q-76 0 -223 -33q-332 -76 -519 -76q-123 0 -123 55q0 57 56 58 q12 0 34.5 -2t34.5 -2q135 0 380 49t315 57q37 4 57 4q82 0 158 -44t76 -122q0 -72 -62 -120q-66 -51 -383 -131t-381 -107q35 -12 109 -12q90 0 248.5 40t228.5 46q68 6 203 6q116 -1 116 -62zM1665 1454q0 -12 -6 -29q-33 -84 -56.5 -140t-36 -122.5t-12.5 -154.5 q0 -63 9.5 -190.5t9.5 -190.5q0 -78 -55 -78q-25 0 -39.5 14.5t-12.5 38.5v-2v4l-2 14l-2 56q-2 33 -2 95t-2 113.5t-8 96.5q-61 -6 -184 -6q-147 0 -148 57q0 55 47 55q29 0 87.5 -2t88.5 -2q74 0 111 2q8 242 111 390q20 31 49 30q53 0 53 -49z" />
<glyph unicode="&#xac7a;" d="M1100 1133q0 -59 -132 -280.5t-149 -289.5q-2 -29 -17.5 -67.5t-49.5 -38.5q-53 0 -54 49q0 74 71 204t142.5 247.5t71.5 164.5q0 90 -86 132t-188 42q-129 0 -232.5 -29.5t-236.5 -92.5q-27 -10 -31 -11q-20 0 -35.5 17.5t-15.5 38.5q0 23 26 45q84 68 225.5 102.5 t272.5 34.5q100 0 187 -19.5t159 -84t72 -164.5zM1759 147q0 -113 -35 -256q6 -12 7 -26q0 -45 -56 -51q-68 -10 -202 -11q-37 -2 -122 -1t-114 18q-123 -12 -309 -13q-29 -4 -98.5 -0.5t-141.5 8.5t-127 29.5t-55 63.5q0 59 46 103t113.5 71t135 53.5t118 65.5t56.5 92 q-14 33 -57 33q-78 0 -235 -55.5t-175.5 -55.5t-33.5 18.5t-15 36.5q0 57 174 107.5t256 50.5q74 0 135 -20q57 -53 57 -119q0 -100 -80.5 -158.5t-202.5 -104.5t-167 -87q211 -31 385 -31q35 0 198 10q10 70 11.5 198t5.5 177q12 111 65 110q35 0 44.5 -19t7.5 -56 q164 80 241 80q55 0 92 -21.5t52.5 -63.5t20.5 -81.5t5 -94.5zM1638 287q-37 14 -61 14q-41 0 -132 -43t-112 -49q-4 -164 -14 -299q49 0 145.5 5t145.5 5q51 80 51 230q0 84 -23 137zM1665 1454q0 -12 -6 -29q-33 -84 -56.5 -140t-36 -122.5t-12.5 -154.5q0 -63 9.5 -190.5 t9.5 -190.5q0 -78 -55 -78q-25 0 -39.5 14.5t-12.5 38.5v-2v4l-2 14l-2 56q-2 33 -2 95t-2 113.5t-8 96.5q-61 -6 -184 -6q-147 0 -148 57q0 55 47 55q29 0 87.5 -2t88.5 -2q74 0 111 2q8 242 111 390q20 31 49 30q53 0 53 -49z" />
<glyph unicode="&#xac80;" d="M1100 1133q0 -59 -132 -280.5t-149 -289.5q-2 -29 -17.5 -67.5t-49.5 -38.5q-53 0 -54 49q0 74 71 204t142.5 247.5t71.5 164.5q0 90 -86 132t-188 42q-129 0 -232.5 -29.5t-236.5 -92.5q-27 -10 -31 -11q-20 0 -35.5 17.5t-15.5 38.5q0 23 26 45q84 68 225.5 102.5 t272.5 34.5q100 0 187 -19.5t159 -84t72 -164.5zM1640 244q0 -29 -18 -90.5t-37.5 -115.5t-48.5 -127t-35 -91q-86 0 -255 2t-253 2h-110q-23 0 -70 -6t-63 -6q-35 0 -52 38q-4 14 -14 70q-8 45 -58.5 190.5t-50.5 231.5q0 55 54 55q61 0 53 -75q94 6 297 56t315 50 q51 0 104.5 -8t111 -26.5t94 -57.5t36.5 -92zM1520 254q-45 74 -174 74q-115 0 -328 -54.5t-318 -58.5q29 -68 95 -295q266 8 637 4q6 47 47 151.5t41 168.5v10zM1665 1454q0 -12 -6 -29q-33 -84 -56.5 -140t-36 -122.5t-12.5 -154.5q0 -63 9.5 -190.5t9.5 -190.5 q0 -78 -55 -78q-25 0 -39.5 14.5t-12.5 38.5v-2v4l-2 14l-2 56q-2 33 -2 95t-2 113.5t-8 96.5q-61 -6 -184 -6q-147 0 -148 57q0 55 47 55q29 0 87.5 -2t88.5 -2q74 0 111 2q8 242 111 390q20 31 49 30q53 0 53 -49z" />
<glyph unicode="&#xac81;" d="M1100 1133q0 -59 -132 -280.5t-149 -289.5q-2 -29 -17.5 -67.5t-49.5 -38.5q-53 0 -54 49q0 74 71 204t142.5 247.5t71.5 164.5q0 90 -86 132t-188 42q-129 0 -232.5 -29.5t-236.5 -92.5q-27 -10 -31 -11q-20 0 -35.5 17.5t-15.5 38.5q0 23 26 45q84 68 225.5 102.5 t272.5 34.5q100 0 187 -19.5t159 -84t72 -164.5zM1751 328q0 -16 -6 -38t-17.5 -49.5t-15.5 -37.5q-43 -123 -63 -211q-2 -8 -14.5 -75t-26.5 -95q-20 -37 -47 -37q-23 0 -39.5 12.5t-16.5 32.5q-2 0 -62.5 3t-94 5t-100 9.5t-107.5 18.5t-87 27.5t-68.5 42t-22.5 58.5 q0 104 111.5 164.5t223.5 60.5q154 0 285 -72q6 41 40 134.5t77 93.5q51 0 51 -47zM870 -141q0 -25 -13 -41.5t-38 -16.5q-43 0 -55 62q-2 14 -8 100q-8 78 -33 187q-4 20 -16.5 63t-18.5 77t-6 64q0 23 17.5 36t39.5 13q35 0 47 -47q84 -272 84 -497zM1548 45 q-109 70 -245 70q-141 0 -228 -92q0 -2 -1 -4.5t-1 -4.5q0 -25 104.5 -44t194.5 -25t150 -8q3 28 26 108zM1665 1454q0 -12 -6 -29q-33 -84 -56.5 -140t-36 -122.5t-12.5 -154.5q0 -63 9.5 -190.5t9.5 -190.5q0 -78 -55 -78q-25 0 -39.5 14.5t-12.5 38.5v-2v4l-2 14l-2 56 q-2 33 -2 95t-2 113.5t-8 96.5q-61 -6 -184 -6q-147 0 -148 57q0 55 47 55q29 0 87.5 -2t88.5 -2q74 0 111 2q8 242 111 390q20 31 49 30q53 0 53 -49z" />
<glyph unicode="&#xac83;" d="M1100 1133q0 -59 -132 -280.5t-149 -289.5q-2 -29 -17.5 -67.5t-49.5 -38.5q-53 0 -54 49q0 74 71 204t142.5 247.5t71.5 164.5q0 90 -86 132t-188 42q-129 0 -232.5 -29.5t-236.5 -92.5q-27 -10 -31 -11q-20 0 -35.5 17.5t-15.5 38.5q0 23 26 45q84 68 225.5 102.5 t272.5 34.5q100 0 187 -19.5t159 -84t72 -164.5zM1671 -113q0 -18 -14.5 -34.5t-32.5 -16.5q-35 0 -245 162t-244 180q-59 -59 -165 -183t-161 -181q-25 -25 -49 -25q-20 0 -33.5 16.5t-13.5 36.5q0 61 269 328.5t333 267.5q20 0 35.5 -16t15.5 -37q0 -23 -74.5 -74 t-81.5 -57q49 -31 183 -131q27 -20 119 -81.5t135 -102.5q24 -25 24 -52zM1665 1454q0 -12 -6 -29q-33 -84 -56.5 -140t-36 -122.5t-12.5 -154.5q0 -55 8.5 -166t8.5 -166q0 -37 2 -112t2 -113q0 -131 -59 -132q-45 0 -52.5 47.5t0.5 82.5q0 84 -6 249.5t-6 247.5 q0 23 -2 33q-61 -6 -186 -6q-145 0 -146 57q0 23 12.5 39t34.5 16q31 0 90.5 -2t87.5 -2q72 0 109 2q2 102 47 261t113 159q53 0 53 -49z" />
<glyph unicode="&#xac84;" d="M1100 1133q0 -59 -132 -280.5t-149 -289.5q-2 -29 -17.5 -67.5t-49.5 -38.5q-53 0 -54 49q0 74 71 204t142.5 247.5t71.5 164.5q0 90 -86 132t-188 42q-129 0 -232.5 -29.5t-236.5 -92.5q-27 -10 -31 -11q-20 0 -35.5 17.5t-15.5 38.5q0 23 26 45q84 68 225.5 102.5 t272.5 34.5q100 0 187 -19.5t159 -84t72 -164.5zM1733 -80q0 -20 -14.5 -35.5t-35.5 -15.5q-55 0 -160.5 98.5t-152.5 169.5q-18 -18 -77.5 -104t-116 -143.5t-103.5 -57.5q-41 0 -140 68.5t-159 122.5q-115 -160 -139.5 -160t-43 13t-18.5 38q0 57 212 281.5t268 224.5 q20 0 37.5 -15.5t17.5 -35.5q0 -23 -25 -45q-182 -160 -239 -224q29 -29 66.5 -55.5t85.5 -57t73 -46.5q74 61 150.5 165.5t128.5 184.5q102 145 147 145q20 0 34.5 -15t14.5 -36q0 -12 -46 -78.5t-52 -85.5q39 -76 114.5 -141.5t143.5 -112.5q29 -20 29 -47zM1665 1454 q0 -12 -6 -29q-33 -84 -56.5 -140t-36 -122.5t-12.5 -154.5q0 -63 9.5 -190.5t9.5 -190.5q0 -78 -55 -78q-25 0 -39.5 14.5t-12.5 38.5v-2v4l-2 14l-2 56q-2 33 -2 95t-2 113.5t-8 96.5q-61 -6 -184 -6q-147 0 -148 57q0 55 47 55q29 0 87.5 -2t88.5 -2q74 0 111 2 q8 242 111 390q20 31 49 30q53 0 53 -49z" />
<glyph unicode="&#xac85;" d="M1100 1133q0 -59 -132 -280.5t-149 -289.5q-2 -29 -17.5 -67.5t-49.5 -38.5q-53 0 -54 49q0 74 71 204t142.5 247.5t71.5 164.5q0 90 -86 132t-188 42q-129 0 -232.5 -29.5t-236.5 -92.5q-27 -10 -31 -11q-20 0 -35.5 17.5t-15.5 38.5q0 23 26 45q84 68 225.5 102.5 t272.5 34.5q100 0 187 -19.5t159 -84t72 -164.5zM1571 104q0 -102 -68.5 -179t-163 -110.5t-194.5 -33.5q-72 0 -139.5 9t-142.5 32.5t-120 75t-45 127.5q0 125 92.5 225t219.5 147v2q43 8 96 9q84 0 189.5 -35t190.5 -109t85 -160zM1464 98q0 70 -133 144.5t-211 74.5 q-102 0 -209.5 -87t-107.5 -187q0 -80 115.5 -120t218.5 -40q121 0 224 54.5t103 160.5zM1665 1454q0 -12 -6 -29q-33 -84 -56.5 -140t-36 -122.5t-12.5 -154.5q0 -63 9.5 -190.5t9.5 -190.5q0 -78 -55 -78q-25 0 -39.5 14.5t-12.5 38.5v-2v4l-2 14l-2 56q-2 33 -2 95 t-2 113.5t-8 96.5q-61 -6 -184 -6q-147 0 -148 57q0 55 47 55q29 0 87.5 -2t88.5 -2q74 0 111 2q8 242 111 390q20 31 49 30q53 0 53 -49z" />
<glyph unicode="&#xac86;" d="M1100 1133q0 -59 -132 -280.5t-149 -289.5q-2 -29 -17.5 -67.5t-49.5 -38.5q-53 0 -54 49q0 74 71 204t142.5 247.5t71.5 164.5q0 90 -86 132t-188 42q-129 0 -232.5 -29.5t-236.5 -92.5q-27 -10 -31 -11q-20 0 -35.5 17.5t-15.5 38.5q0 23 26 45q84 68 225.5 102.5 t272.5 34.5q100 0 187 -19.5t159 -84t72 -164.5zM1651 -150q0 -18 -15.5 -35.5t-33.5 -17.5q-20 0 -43 19q-68 49 -115 85t-107.5 60.5t-142.5 34.5q-12 -6 -109.5 -60.5t-176.5 -96.5t-93 -42q-45 0 -45 58q0 43 168 130t347 169t196 108l-2 2q-78 27 -166 27 q-154 0 -328 -62q-10 -4 -90 -35.5t-144.5 -54t-78.5 -22.5q-20 0 -35.5 17.5t-15.5 37.5q0 35 64.5 62.5t94.5 31.5q98 31 180 60.5t181.5 50t187.5 20.5q82 0 179.5 -31.5t97.5 -95.5q0 -82 -254 -209q84 -31 191.5 -95.5t107.5 -115.5zM1665 1454q0 -12 -6 -29 q-33 -84 -56.5 -140t-36 -122.5t-12.5 -154.5q0 -63 9.5 -190.5t9.5 -190.5q0 -78 -55 -78q-25 0 -39.5 14.5t-12.5 38.5v-2v4l-2 14l-2 56q-2 33 -2 95t-2 113.5t-8 96.5q-61 -6 -184 -6q-147 0 -148 57q0 55 47 55q29 0 87.5 -2t88.5 -2q74 0 111 2q8 242 111 390 q20 31 49 30q53 0 53 -49z" />
<glyph unicode="&#xac89;" d="M1100 1133q0 -59 -132 -280.5t-149 -289.5q-2 -29 -17.5 -67.5t-49.5 -38.5q-53 0 -54 49q0 74 71 204t142.5 247.5t71.5 164.5q0 90 -86 132t-188 42q-129 0 -232.5 -29.5t-236.5 -92.5q-27 -10 -31 -11q-20 0 -35.5 17.5t-15.5 38.5q0 23 26 45q84 68 225.5 102.5 t272.5 34.5q100 0 187 -19.5t159 -84t72 -164.5zM1626 -154q0 -49 -55 -49h-262q-39 0 -119 1t-119 1q-86 0 -124 3t-92 16.5t-76.5 40t-40 79t-17.5 130.5q0 37 6 110.5t6 110.5v35l-80 -7q-49 0 -49 58q0 25 11.5 33t37.5 14q72 14 219 14q68 0 203 -3t203 -3 q37 0 110.5 4t110.5 4q20 0 33.5 -14t13.5 -35q0 -37 -35.5 -52t-77.5 -12t-73 1h-520q2 -18 2 -54q0 -27 -11 -153q43 0 128 1t128 1q281 0 400 -23q53 -10 53 -55q0 -49 -49 -49q-53 0 -157.5 8t-155.5 8h-342l4 -43q6 -66 272 -65q68 0 201 3t200 3q113 -1 113 -62z M1665 1454q0 -12 -6 -29q-33 -84 -56.5 -140t-36 -122.5t-12.5 -154.5q0 -63 9.5 -190.5t9.5 -190.5q0 -78 -55 -78q-25 0 -39.5 14.5t-12.5 38.5v-2v4l-2 14l-2 56q-2 33 -2 95t-2 113.5t-8 96.5q-61 -6 -184 -6q-147 0 -148 57q0 55 47 55q29 0 87.5 -2t88.5 -2 q74 0 111 2q8 242 111 390q20 31 49 30q53 0 53 -49z" />
<glyph unicode="&#xac8a;" d="M1100 1133q0 -59 -132 -280.5t-149 -289.5q-2 -29 -17.5 -67.5t-49.5 -38.5q-53 0 -54 49q0 74 71 204t142.5 247.5t71.5 164.5q0 90 -86 132t-188 42q-129 0 -232.5 -29.5t-236.5 -92.5q-27 -10 -31 -11q-20 0 -35.5 17.5t-15.5 38.5q0 23 26 45q84 68 225.5 102.5 t272.5 34.5q100 0 187 -19.5t159 -84t72 -164.5zM1540 -160q0 -20 -16.5 -36.5t-36.5 -16.5q-8 0 -21 4q-117 41 -221 41q-86 0 -256 -27.5t-256 -27.5q-82 0 -82 53q0 33 16.5 43t51.5 10q92 0 155 11q-113 385 -122 415q-98 -12 -101 -12q-23 0 -35 19.5t-12 41.5 q0 70 311 70q88 0 264.5 -5t264.5 -5q94 0 94 -53q0 -25 -25.5 -39.5t-60.5 -15.5t-68.5 -1t-50.5 2q-190 -293 -237 -383q72 12 176 13q78 0 173 -24t95 -77zM1217 315q-90 6 -177 7q-61 0 -180 -5l117 -399q39 92 111 204.5t129 192.5zM1665 1454q0 -12 -6 -29 q-33 -84 -56.5 -140t-36 -122.5t-12.5 -154.5q0 -63 9.5 -190.5t9.5 -190.5q0 -78 -55 -78q-25 0 -39.5 14.5t-12.5 38.5v-2v4l-2 14l-2 56q-2 33 -2 95t-2 113.5t-8 96.5q-61 -6 -184 -6q-147 0 -148 57q0 55 47 55q29 0 87.5 -2t88.5 -2q74 0 111 2q8 242 111 390 q20 31 49 30q53 0 53 -49z" />
</font>
</defs>
</svg>
